SplineFontDB: 3.0
FontName: Bali
FullName: Bali Polos
FamilyName: Bali
Weight: Medium
Copyright: Bali Polos v0.2\nBalinese Phonetic Script Font\n\nCreated by Putu Wiramaswara Widya <initrunlevel0@gmail.com> with FontForge 2.0 (http://fontforge.sf.net) for BlankOn Linux (http://www.blankonlinux.or.id). Licensed under GNU General Public License v2.0.
UComments: "2009-8-2: Created." 
Version: 000.200
ItalicAngle: 0
UnderlinePosition: -780
UnderlineWidth: 388
Ascent: 5400
Descent: 7200
LayerCount: 2
Layer: 0 0 "Back"  1
Layer: 1 0 "Fore"  0
XUID: [1021 386 283466689 6111577]
FSType: 8
OS2Version: 0
OS2_WeightWidthSlopeOnly: 0
OS2_UseTypoMetrics: 1
CreationTime: 1249211244
ModificationTime: 1288629214
PfmFamily: 17
TTFWeight: 500
TTFWidth: 5
LineGap: 780
VLineGap: 0
OS2TypoAscent: 0
OS2TypoAOffset: 1
OS2TypoDescent: 0
OS2TypoDOffset: 1
OS2TypoLinegap: 780
OS2WinAscent: 0
OS2WinAOffset: 1
OS2WinDescent: 0
OS2WinDOffset: 1
HheadAscent: 0
HheadAOffset: 1
HheadDescent: 0
HheadDOffset: 1
OS2Vendor: 'PfEd'
Lookup: 4 0 0 "'ccmp' Glyph Composition/Decomposition in Balinese lookup 0"  {"'ccmp' Glyph Composition/Decomposition in Balinese lookup 0-1"  } [' RQD' ('DFLT' <'dflt' > 'bali' <'dflt' > ) 'ccmp' ('DFLT' <'dflt' > 'bali' <'dflt' > ) ]
Lookup: 258 0 0 "'kern' Horizontal Kerning in Balinese lookup 0"  {} ['kern' ('DFLT' <'dflt' > 'bali' <'dflt' > ) ]
MarkAttachClasses: 2
"SWARA" 73 ULU CECEK PEPET SURANG ULU.CECEK ULU.SURANG PEPET.CECEK PEPET.SURANG SUKU
DEI: 91125
LangName: 1033 
Encoding: Custom
UnicodeInterp: none
NameList: Adobe Glyph List
DisplaySize: -72
AntiAlias: 1
FitToEm: 1
WinInfo: 17 17 7
Grid
-59445.2 11291.4 m 0
 -59445.2 -6080 l 0
EndSplineSet
TeXData: 1 0 0 -57588 -28794 -19196 0 25965 -19196 783286 444596 497025 792723 393216 433062 380633 303038 157286 324010 404750 52429 2506097 1059062 262144
BeginChars: 134 134

StartChar: uni1B33
Encoding: 0 6963 0
Width: 8208
VWidth: 0
Flags: W
HStem: -78.7195 622.508<1567.8 3277.1> 4400 964.37<283.321 782.442> 5016.45 362.45<4561.83 5365.51>
VStem: 0 234.151<2711.32 4282.19> 136 118.467<2663.55 2821.67> 633.587 331.339<1484.09 4171.27> 3500 187.1<1980.87 3619.03> 3547.38 251.44<1017.52 3154.21> 5908 200<1380.51 3275.7> 6540 240<1078.17 3961.19> 7280 291.74<-15.0576 3318.36>
LayerCount: 2
Fore
SplineSet
1464 158 m 0xa5e0
 856.729 612.51 633.587 1241.3 633.587 2617.89 c 0
 633.587 2701.15 634.403 2787.14 636 2876 c 0
 637.381 3008.1 638.126 3129 638.126 3239.52 c 0
 638.126 4089.5 638.049 4400 500 4400 c 4
 338.325 4400 234.151 4141.12 234.151 3626.74 c 0xd5e0
 234.151 3479.34 239.091 3304.9 248 3100 c 0
 252.351 3035.46 254.467 2977.95 254.467 2927.52 c 0
 254.467 2750.09 228.27 2660.33 181.069 2660.33 c 0
 167.693 2660.33 152.631 2667.54 136 2682 c 0xcce0
 60 2744 0 3270 0 3836 c 0
 0 4680 44 4936 284 5160 c 0
 421.19 5299 549.216 5364.37 662.103 5364.37 c 0
 944.053 5364.37 1131.57 4956.56 1131.57 4269.46 c 0
 1131.57 4012.47 1105.33 3716.41 1048 3388 c 0
 992.154 3062.48 964.926 2759.1 964.926 2481.42 c 0
 964.926 2003.32 1045.65 1601.44 1200 1294 c 0
 1458.59 786.402 1849.67 543.788 2411.87 543.788 c 0
 2554.09 543.788 2707.26 559.313 2872 590 c 0
 3436.04 695.304 3547.38 1171.26 3547.38 1856.95 c 0xd5e0
 3547.38 2304.27 3500 2840.85 3500 3422 c 0
 3500 4922 4084 5192 4844 5332 c 0
 4986.18 5360.15 5104.58 5378.9 5209.49 5378.9 c 0
 5402.67 5378.9 5550.1 5315.35 5716 5130 c 0
 6020 4770 6048 4582 6108 2758 c 0
 6156.2 1484.43 6252.51 875.416 6341.99 875.416 c 0
 6445.57 875.416 6540 1691.67 6540 3238 c 0
 6540 3946.57 6529.55 4527.14 6529.55 4894.63 c 0
 6529.55 5170.25 6535.43 5326 6556 5326 c 0
 6860 5326 7340 4684 7448 3916 c 0
 7529.54 3325.36 7571.74 2257.14 7571.74 1371.97 c 0
 7571.74 563.669 7536.55 -91.9999 7464 -92 c 0
 7392 -92 7320 658 7280 1592 c 0
 7260 2552 7144 3472 7036 3746 c 0
 6980.98 3881.71 6941.29 3966.41 6910.97 3966.41 c 0
 6842.11 3966.41 6821.66 3529.28 6780 2260 c 0
 6725.2 585.444 6615.86 -83.8499 6355.67 -83.8499 c 0
 6292.98 -83.8499 6221.54 -45.0005 6140 28 c 0
 5968 186 5956 846 5908 2246 c 0
 5852 3710 5516 4514 5384 4806 c 0
 5320.3 4947.89 5195.16 5016.45 5040.45 5016.45 c 0
 4526.79 5016.45 3687.1 4260.68 3687.1 2923.35 c 0xa6e0
 3687.1 2716 3707.28 2494.66 3752 2260 c 0
 3783.77 2100.38 3798.82 1928.93 3798.82 1754.85 c 0
 3798.82 1052.09 3553.5 306.337 3172 122 c 0
 2904.98 -12.4635 2596.13 -78.7195 2302.25 -78.7195 c 0
 1979.79 -78.7195 1675.36 1.04623 1464 158 c 0xa5e0
EndSplineSet
Validated: 1
EndChar

StartChar: uni1B26
Encoding: 1 6950 1
Width: 9256
VWidth: 0
Flags: W
HStem: 1.29659 537.2<4454.36 6392.25> 2150.03 753.97<1899.38 2323.6> 2642.97 297.03<3129.66 4028.94> 5047.03 313.39<736.313 1289.5 5140.14 6744.32>
VStem: 85.7989 370.201<2928.54 4517.14> 430.431 732.749<141.346 1868.46> 1594.62 189.38<3249.98 4479.01> 6636 171.52<776.062 1225.88> 8123.77 320.23<55.5303 3855.64>
LayerCount: 2
Fore
SplineSet
820 60 m 0xdb80
 558.743 212.266 430.431 501.973 430.431 860.15 c 0xd780
 430.431 1395.85 717.453 2084.71 1276 2696 c 0
 1495.4 2941.99 1594.62 3368.94 1594.62 3792.02 c 0
 1594.62 4387.11 1398.32 4974.54 1064 5040 c 0
 1040.32 5044.74 1017.61 5047.03 995.826 5047.03 c 0
 576.183 5047.03 501.632 4196.03 456 3580 c 0
 434 3272 364 3052 244 2884 c 0
 224.577 2856.62 206.729 2843.93 190.576 2843.93 c 0
 123.618 2843.93 85.7989 3062.12 85.7989 3357.4 c 0
 85.7989 3761.05 156.475 4308.76 320 4640 c 0
 480 4960 688 5308 1024 5344 c 0
 1110.72 5353.98 1180.5 5360.42 1238.05 5360.42 c 0
 1480.44 5360.42 1505.6 5246.1 1664 4800 c 0
 1774.1 4502.1 1784.58 4385.06 1784.58 4175.16 c 0
 1784.58 4125.77 1784 4071.24 1784 4008 c 0
 1784 3618.03 1895.74 2904 2079 2904 c 0xdb80
 2281.09 2904 2560.09 3659.09 2644 4108 c 1
 3732 5128 3772 5376 5568 5472 c 0
 5909.53 5449.99 6144.13 5443.87 6315.59 5443.87 c 0
 6530.67 5443.87 6646.39 5453.51 6749.15 5453.51 c 0
 6936.74 5453.51 7081.15 5421.4 7708 5240 c 1
 8420 4544 l 1
 8444 2272 l 2
 8444 1044 8360 44 8268 44 c 0
 8171.85 44 8123.77 465.598 8123.77 1379.91 c 0
 8123.77 1416.49 8123.85 1453.85 8124 1492 c 1
 8154.86 1945.11 8170.86 2303.98 8170.86 2599.42 c 0
 8170.86 3567.57 7999.1 3854.42 7616 4544 c 1
 7273.12 4840.72 6677.19 4967.01 6025.47 4967.01 c 0
 4700.42 4967.01 3144.7 4444.99 3016 3772 c 0
 3006.53 3718.36 3000.96 3653.51 3000.96 3583.97 c 0
 3000.96 3300.9 3093.36 2940 3392 2940 c 0xbb80
 4100 2940 5508 2624 5996 2184 c 0
 6479.02 1750.45 6807.52 1380.4 6807.52 990.703 c 0
 6807.52 844.685 6761.4 695.909 6660 540 c 0
 6421.08 177.884 5977.46 1.29659 5474.26 1.29659 c 0
 4899.13 1.29659 4246.15 231.982 3732 680 c 0
 3324 1044 2888 1364 2824 1580 c 0
 2707.16 1940.6 2334.63 2150.03 1974.7 2150.03 c 0
 1619.97 2150.03 1277.46 1946.61 1204 1484 c 0
 1172.97 1293.25 1163.18 1117.07 1163.18 958.899 c 0
 1163.18 688.449 1191.8 470.618 1191.8 322.505 c 0
 1191.8 181.615 1165.9 103.81 1064.84 103.81 c 0
 1061.95 103.81 1059.01 103.873 1056 104 c 0
 1000.49 104 1009 14.3661 938.119 14.3661 c 0
 911.962 14.3661 874.991 26.5739 820 60 c 0xdb80
6636 1008 m 0
 6636 1480 5450 1890 4280 2400 c 0
 3890.81 2569.56 3611.04 2642.97 3420.35 2642.97 c 0xb380
 3182.27 2642.97 3083.04 2528.54 3083.04 2343.97 c 0
 3083.04 2156.75 3185.14 1897.36 3348 1612 c 0
 3724.74 951.453 4924.68 538.497 5765.52 538.497 c 0
 6263.82 538.497 6636 683.526 6636 1008 c 0
EndSplineSet
Validated: 1
EndChar

StartChar: uni1B18
Encoding: 2 6936 2
Width: 9332
VWidth: 0
Flags: W
HStem: 0 21G<8521.54 8523.65> 71.3652 564.635<310.828 1054.08> 110.063 217.937<4961.6 5807.64> 4899.57 489.2<5709.06 7196.33> 5088 243.3<2135.08 2682.17>
VStem: 24 390.414<662.809 1624.89> 2728.72 387.48<3823.16 5076.83> 4680.78 991.71<4249.67 4711.14> 6772 312.09<1535.05 3112.79> 8340 184<778.896 2008.32>
LayerCount: 2
Fore
SplineSet
24 744 m 0xc7c0
 24 1652 584 2444 1320 2588 c 0
 2244 2764 2324 3028 2500 3684 c 0
 2577.6 3989.56 2728.72 4440.68 2728.72 4748.55 c 0
 2728.72 4948.48 2664.99 5088 2476 5088 c 0
 2048 5088 1116 4164 732 3564 c 0
 478.013 3170.18 399.124 2971.81 351.526 2971.81 c 0
 332.409 2971.81 318.339 3003.81 300 3068 c 0
 292.591 3096.48 289.028 3127.85 289.028 3161.75 c 0
 289.028 3713.35 1232.75 4931.75 1896 5188 c 0
 2141.61 5283.8 2350.87 5331.3 2523.11 5331.3 c 0xcfc0
 2915.89 5331.3 3116.2 5084.3 3116.2 4599.7 c 0
 3116.2 4462.71 3100.19 4306.74 3068 4132 c 0
 2988 3672 2948 3148 2880 3004 c 0
 2822.56 2869.28 2796.37 2733.83 2796.37 2599.24 c 0
 2796.37 1431.15 4769.15 328 5404 328 c 0
 6228 328 6772 1512 6772 2428 c 0
 6772 3368 6016 4124 5076 4124 c 0
 4800.6 4124 4680.78 4194.28 4680.78 4308.12 c 0
 4680.78 4505.12 5039.63 4832.58 5572 5152 c 0
 5837.58 5313.78 6121.34 5388.77 6406.42 5388.77 c 0
 6967.21 5388.77 7533.14 5098.6 7976 4608 c 0
 8388 4168 8452 3816 8488 2048 c 2
 8524 0 l 1
 8340 1496 l 2
 8140 3060 7532 4652 6924 4844 c 0
 6799.88 4881.87 6651.29 4899.57 6500.56 4899.57 c 0
 6094.28 4899.57 5672.49 4770.93 5672.49 4561.77 c 0
 5672.49 4405.92 5906.68 4205.36 6556 3980 c 1
 7000 3364 7084 2588 7084 2048 c 0
 7084.09 1905.12 l 0
 7084.09 1281.37 7066.72 1038.07 6556 628 c 0
 6137.6 287.325 5754.07 110.063 5328.52 110.063 c 0xb7c0
 4724.78 110.063 4036.46 466.857 3044 1220 c 2
 2364 1740 l 1
 1652 920 l 2
 1166.69 358.061 736.88 71.3652 440.929 71.3652 c 0
 180.728 71.3652 24 292.982 24 744 c 0xc7c0
1376 1236 m 0
 1529.74 1439.37 1597.02 1631.02 1597.02 1785.45 c 0
 1597.02 2001.87 1464.87 2145.18 1253.39 2145.18 c 0
 1117.15 2145.18 947.979 2085.71 760 1948 c 0
 524.183 1775.2 414.414 1439.17 414.414 1150.44 c 0
 414.414 871.07 517.192 636 708 636 c 0
 832 636 1132 916 1376 1236 c 0
EndSplineSet
Validated: 1
EndChar

StartChar: uni1B2D
Encoding: 3 6957 3
Width: 9448
VWidth: 0
Flags: W
HStem: 0 618.271<1979.9 2519.08> 4724.27 522.05<434.021 1114.09> 4984 285.22<4829.21 7083.16>
VStem: 36 276<3425.48 4008.81> 1966.1 603.95<1558.67 3648.89> 8315.51 337.86<10.7127 3806.09>
LayerCount: 2
Fore
SplineSet
1372 604 m 1xbc
 1796.17 1008.23 1966.1 1651.1 1966.1 2295.66 c 0
 1966.1 3073.42 1718.69 3853.63 1372 4220 c 0
 1025.47 4585.85 823.273 4724.27 700.27 4724.27 c 0
 415.781 4724.27 554.955 3983.79 312 3604 c 0
 229.775 3474.79 171.804 3402.17 130.965 3402.17 c 0
 60.5482 3402.17 41.0634 3618.06 36 4132 c 0
 35.4085 4157.63 35.1183 4183.15 35.1183 4208.53 c 0
 35.1183 4697.96 143.098 5131.94 280 5208 c 0
 335.728 5234.01 399.274 5246.32 468.767 5246.32 c 0xdc
 997.829 5246.32 1871.55 4532.72 2264 3716 c 0
 2464.11 3317.56 2570.05 3031.66 2570.05 2700 c 0
 2570.05 2289.16 2407.49 1808.12 2060 956 c 0
 2007.7 834.449 1979.88 750.354 1979.88 696.48 c 0
 1979.88 641.822 2008.52 618.271 2069.3 618.271 c 0
 2118.16 618.271 2187.79 633.489 2280 660 c 0
 2884 824 3108 1284 3276 2668 c 0
 3476 4320 3756 4844 4608 5120 c 0
 4932.27 5222.4 5344.45 5269.22 5774.38 5269.22 c 0
 6654.37 5269.22 7608.74 5073.08 8036 4756 c 0
 8488 4412 8564 4124 8636 2176 c 0
 8647.38 1825.07 8653.37 1518.22 8653.37 1254.27 c 0
 8653.37 405.067 8591.42 -4.06901e-05 8448 0 c 0
 8345.61 0 8315.51 225.36 8315.51 645.708 c 0
 8315.51 931.512 8329.43 1307.46 8344 1764 c 0
 8348.71 1914.64 8351.1 2058.51 8351.1 2195.89 c 0
 8351.1 4509.96 7671.32 4984 5908 4984 c 0
 4364 4984 3808 4480 3612 2576 c 0
 3416 676 2776 0 1220 0 c 2
 476 0 l 1
 1372 604 l 1xbc
EndSplineSet
Validated: 1
EndChar

StartChar: uni1B13
Encoding: 4 6931 4
Width: 9448
VWidth: 0
Flags: W
HStem: 4.2772 706.402<6967.14 7335.45> 46.3129 297.429<3956.08 4875.86> 1993.15 646.39<1687.78 1846.97> 5040 364.22<730.857 1114.78 3561.8 5465.31>
VStem: -12.2429 360.243<2810.43 4176.85> 402.893 965.107<181.007 1956.44> 1476 176<2948.72 3957.89> 5281.82 261.22<628.545 1227.06> 7454.88 246.27<929.01 3379.13> 8373.76 280.82<54.6664 3391.53>
LayerCount: 2
Fore
SplineSet
660 192 m 0x7fc0
 487.099 417.248 402.893 706.029 402.893 1012.2 c 0
 402.893 1478.08 597.869 1984.21 972 2368 c 0
 1252 2676 1476 3040 1476 3192 c 0
 1476 3684 1260 5040 912 5040 c 0
 668 5040 436 4000 348 3436 c 0
 284 3040 168 2712 68 2712 c 0
 12.509 2712 -12.2429 2824.93 -12.2429 3001.55 c 0
 -12.2429 3436.03 137.549 4255.91 348 4728 c 0
 452 4968 728 5372 936 5400 c 0
 955.434 5402.82 974.488 5404.22 993.161 5404.22 c 0
 1424.17 5404.22 1652 4660.5 1652 3564 c 0
 1652 3069.32 1681.5 2639.54 1788.65 2639.54 c 0
 1806.27 2639.54 1825.98 2651.15 1848 2676 c 0
 1976 2796 2148 3524 2240 3844 c 0
 2344 4172 2688 4628 3016 4868 c 0
 3480.84 5194.45 3734.78 5410.73 4420.05 5410.73 c 0
 4507.27 5410.73 4601.48 5407.23 4704 5400 c 0
 5588 5348 5844 5076 6216 4672 c 0
 6620 4256 6688 4000 6780 2536 c 0
 6872.79 1254.86 6967.83 710.679 7128.79 710.679 c 0
 7182.93 710.679 7244.52 772.23 7316 888 c 0
 7411.5 1053.07 7454.88 1476.38 7454.88 2006.54 c 0
 7454.88 3030.81 7292.94 4453.9 7032 5184 c 0
 7003.7 5261.82 6990.71 5313.38 6990.71 5342.89 c 0
 6990.71 5364.1 6997.42 5373.93 7010 5373.93 c 0
 7088.7 5373.93 7396.92 4988.96 7724 4604 c 0
 8136 4118 8580 4344 8636 2152 c 0
 8648.32 1729.16 8654.58 1379.27 8654.58 1094.2 c 0
 8654.58 344.103 8611.24 42.9104 8520.87 42.9104 c 0
 8511.73 42.9104 8502.11 45.9912 8492 52 c 0
 8415.47 107.416 8373.76 256.841 8373.76 486.493 c 0
 8373.76 604.948 8384.86 744.747 8408 904 c 0
 8440.68 1110.97 8455.81 1350.06 8455.81 1603.21 c 0
 8455.81 2558.55 8240.4 3714.23 7940 4100 c 0
 7846.97 4224.04 7759.71 4313.08 7692.29 4313.08 c 0
 7611.84 4313.08 7559.64 4186.26 7559.64 3840.77 c 0
 7559.64 3542.22 7598.62 3080.39 7692 2396 c 0
 7697.84 2116.43 7701.15 1874.96 7701.15 1665.44 c 0
 7701.15 726.788 7634.74 429.284 7432 220 c 0
 7298.56 74.8162 7177.37 4.2772 7071.4 4.2772 c 0xbfc0
 6780.29 4.2772 6604 536.554 6604 1516 c 0
 6604 3700 6284 5088 4344 5088 c 0
 3300 5088 2456 3872 2368 3412 c 0
 2364.32 3393.24 2362.44 3375.33 2362.44 3358.2 c 0
 2362.44 3189.04 2546.34 3096.28 3004 3020 c 0
 4475.64 2814.98 5543.04 1803.47 5543.04 996.131 c 0
 5543.04 653.608 5350.91 347.837 4916 156 c 0
 4745.18 82.3126 4568.4 46.3129 4389.03 46.3129 c 0
 3711.58 46.3129 2997.28 559.858 2428 1496 c 0
 2222.76 1827.69 1983.09 1993.15 1783.63 1993.15 c 0
 1547.7 1993.15 1368 1761.67 1368 1300 c 0
 1368 556.237 1204.79 -1.64808 944.92 -1.64808 c 0
 859.584 -1.64808 763.825 58.5103 660 192 c 0x7fc0
5160 624 m 0
 5243.94 681.67 5281.82 765.422 5281.82 866.635 c 0
 5281.82 1474.46 3915.55 2712 2952 2712 c 0
 2695 2712 2574.29 2428.94 2574.29 2119.42 c 0
 2574.29 1923.1 2622.85 1716.14 2716 1564 c 0
 3032.55 1065.43 3979.31 343.742 4352.03 343.742 c 0
 4356.09 343.742 4360.08 343.828 4364 344 c 0
 4520 344 5032 536 5160 624 c 0
EndSplineSet
Validated: 1
EndChar

StartChar: uni1B24
Encoding: 5 6948 5
Width: 9380
VWidth: 0
Flags: W
HStem: 0.880868 540.129<562.26 1814.34 4475.13 5344.82> 4890.25 461.23<1146.76 1629.22 5237.73 6665.06>
VStem: 81.3091 371.767<712.469 1794.33> 1634.24 492.2<3897 4881.87> 3639.21 260.7<2443.28 3263.97> 5348 483.44<518.922 1305.6> 8216 382.71<22.2729 2761.54>
LayerCount: 2
Fore
SplineSet
392 284 m 0
 180.763 488.51 81.3091 731.941 81.3091 1019.47 c 0
 81.3091 1586.75 468.438 2325.68 1148 3276 c 0
 1340 3540 1544 4424 1608 4652 c 0
 1625.9 4710.55 1634.24 4757.21 1634.24 4793.16 c 0
 1634.24 4860.47 1605 4890.25 1554.55 4890.25 c 0
 1342.93 4890.25 758.099 4366.46 392 3892 c 0
 225.395 3675.03 111.332 3581.48 50.0807 3581.48 c 0
 14.6126 3581.48 -3.14763 3612.85 -3.14763 3669.78 c 0
 -3.14763 3819.02 118.921 4143.95 364 4540 c 0
 716.187 5104.46 1158.89 5351.48 1512.49 5351.48 c 0
 1863.32 5351.48 2126.44 5108.33 2126.44 4690.84 c 0
 2126.44 4482.47 2060.89 4230.68 1908 3944 c 0
 1772 3716 1516 3020 1112 2600 c 0
 652.811 2111.19 453.076 1615.79 453.076 1233.45 c 0
 453.076 821.654 684.78 541.01 1073.57 541.01 c 0
 1298.58 541.01 1576.22 635.014 1892 852 c 0
 2308 1132 2888 1688 3256 1916 c 0
 3586.87 2151.16 3639.21 2451.75 3639.21 2746.21 c 0
 3639.21 2882.48 3628 3017.45 3628 3144 c 0
 3628 4436 4652 5340 6164 5340 c 0
 7780 5340 8408 4448 8564 1892 c 0
 8587.14 1512.71 8598.71 1195.01 8598.71 935.419 c 0
 8598.71 387.403 8547.14 98.4286 8444 36 c 0
 8423.37 25.142 8404.36 19.663 8386.88 19.663 c 0
 8275.58 19.663 8226.37 241.834 8216 712 c 0
 8188 3392 7620 4812 5752 4812 c 0
 4948 4812 4120 3712 3948 3092 c 0
 3923.54 2991.59 3899.91 2887.44 3899.91 2783.84 c 0
 3899.91 2565.53 4004.83 2349.61 4428 2176 c 0
 5181.88 1884.41 5831.44 1371.52 5831.44 758.182 c 0
 5831.44 681.609 5821.31 603.47 5800 524 c 0
 5706.95 177.189 5432.88 14.9808 5116.99 14.9808 c 0
 4685.99 14.9808 4177.13 316.947 3944 864 c 2
 3712 1428 l 1
 2756 780 l 2
 1968.05 247.338 1449.74 0.880868 1048.54 0.880868 c 0
 795.964 0.880868 589.803 98.5599 392 284 c 0
5348 864 m 0
 5348 1212 4844 1608 4412 1608 c 0
 4274.13 1608 4209.68 1513.49 4209.68 1378.31 c 0
 4209.68 1207.58 4312.48 971.987 4500 780 c 0
 4692.04 597.197 4887.48 508.157 5042.26 508.157 c 0
 5222.79 508.157 5348 629.268 5348 864 c 0
EndSplineSet
Validated: 1
EndChar

StartChar: uni1B22
Encoding: 6 6946 6
Width: 9400
VWidth: 0
Flags: W
HStem: 2.24647 592.156<1967.52 3932.85 7076.2 7429.46> 2073.55 706.45<3170.6 4552.23> 4548.99 562.45<634.946 981.543> 4772 404.52<3921.8 5333.46>
VStem: 23.6775 304.323<2978.61 3922.08> 872.31 367.77<1443.04 3791.04> 998.82 553.69<2653.34 4529.21> 2528.45 533.74<2899.23 3929.94> 4607.42 361.84<1159.83 1979.14> 7507.03 366.26<631.574 3387.54> 8268 338.8<540.063 3760.74>
LayerCount: 2
Fore
SplineSet
1396 540 m 0xdde0
 990.232 954.28 872.31 1076.69 872.31 1632.61 c 0xdde0
 872.31 1860.36 892.101 2160.86 920 2584 c 0
 956.46 3144.93 998.82 3845.48 998.82 4230.64 c 0
 998.82 4394.79 991.126 4501.66 972 4516 c 0
 950.687 4538.54 927.148 4548.99 902.045 4548.99 c 0
 682.169 4548.99 342.361 3747.44 328 3252 c 0
 319.329 2948.5 311.832 2809.49 278.767 2809.49 c 0
 250.823 2809.49 204.615 2908.78 124 3092 c 0
 54.6737 3232.55 23.6775 3409.18 23.6775 3599.13 c 0
 23.6775 4209.25 343.458 4956.84 740 5088 c 0
 787.118 5104.01 835.648 5111.44 884.436 5111.44 c 0
 1212.64 5111.44 1552.51 4775.15 1552.51 4452.29 c 0xebe0
 1552.51 4403.48 1544.75 4354.98 1528 4308 c 0
 1476 4188 1384 3584 1308 2988 c 0
 1270.77 2586.52 1240.08 2297.07 1240.08 2070.35 c 0
 1240.08 1736.86 1306.46 1539.06 1516 1320 c 0
 1835.7 989.272 2047.38 594.402 2861.25 594.402 c 0
 2933.28 594.402 3010.04 597.495 3092 604 c 0
 4097.92 672.303 4607.42 1157.5 4607.42 1584.5 c 0
 4607.42 1707.64 4565.05 1825.93 4480 1928 c 0
 4369.5 2079.93 4222.76 2146.02 4021.33 2146.02 c 0
 3931.08 2146.02 3829.86 2132.75 3716 2108 c 0
 3610.06 2084.79 3510.26 2073.55 3417 2073.55 c 0
 2853.34 2073.55 2528.45 2483.9 2528.45 3139.63 c 0
 2528.45 3403.58 2581.1 3707.29 2692 4040 c 0
 2949.48 4791.99 3821.83 5176.52 4686.15 5176.52 c 0
 5513.71 5176.52 6333.91 4824.01 6600 4104 c 0
 6708 3828 6844 2908 6912 2068 c 0
 6984 1236 7104 544 7192 544 c 0
 7408.09 544 7507.03 1027.34 7507.03 1674.99 c 0
 7507.03 2573.83 7316.46 3789.14 6984 4468 c 2
 6624 5164 l 1
 6952 5148 l 2
 7208 5148 7492 5032 7780 4780 c 0
 8268 4344 8532 4220 8596 2084 c 0
 8603.2 1725.2 8606.8 1389.44 8606.8 1096.7 c 0
 8606.8 441.365 8588.76 1.62185 8552.68 1.62185 c 0
 8551.15 1.62185 8549.59 2.40891 8548 4 c 0
 8448 104 8292 1632 8268 2784 c 0
 8256 3060 8300 3544 8128 3772 c 0
 8025.39 3900.59 7935.85 3976.46 7867.2 3976.46 c 0
 7776.65 3976.46 7722.43 3844.5 7722.43 3527.51 c 0
 7722.43 3344.65 7740.47 3100.21 7780 2784 c 0
 7842.14 2317.93 7873.29 1908.12 7873.29 1557.85 c 0
 7873.29 600.452 7640.57 88 7172 88 c 0
 6740 88 6724 128 6636 1628 c 0
 6556 3036 6684 3476 6216 3884 c 0
 5816 4252 5340 4772 4492 4772 c 0
 3784 4772 3368 3972 3220 3784 c 0
 3112.43 3654.17 3062.19 3508.68 3062.19 3369.6 c 0
 3062.19 3058.76 3313.18 2780 3736 2780 c 0
 4439.62 2780 4969.26 2415.93 4969.26 1806.34 c 0
 4969.26 1736.71 4962.35 1663.87 4948 1588 c 0
 4760 644 4104 128 2972 36 c 0
 2736.81 15.8118 2553.83 2.24647 2403.15 2.24647 c 0
 1956.73 2.24647 1793.75 121.318 1396 540 c 0xdde0
EndSplineSet
Validated: 1
EndChar

StartChar: uni1B32
Encoding: 7 6962 7
Width: 9320
VWidth: 0
Flags: HMW
LayerCount: 2
Fore
SplineSet
84 280 m 0
 53.9872 345.22 40.3808 418.685 40.3808 497.655 c 0
 40.3808 965.976 518.911 1627.91 892 1912 c 0
 1108 2080 1440 2380 1824 2496 c 0
 2406.5 2670.75 2785.77 3474.34 2785.77 4079.31 c 0
 2785.77 4471.36 2626.49 4780 2260 4780 c 0
 1828 4780 1088 3908 588 3092 c 0
 439.687 2844.81 340.256 2725.94 283.098 2725.94 c 0
 235.807 2725.94 223.984 2814.09 223.984 2863.77 c 0
 223.984 3326.48 953.437 4513.14 1480 4932 c 0
 1702.67 5101.65 2056.5 5218.21 2331.78 5218.21 c 0
 2368.05 5218.21 2402.94 5216.19 2436 5212 c 0
 2828.07 5155.61 3041.66 4805.34 3041.66 4265.3 c 0
 3041.66 4000.94 2990.48 3691.1 2884 3348 c 0
 2814.89 3121.54 2747.93 2876.7 2747.93 2619.64 c 0
 2747.93 2177.47 2946.04 1699.13 3672 1216 c 0
 4186.07 873.287 4653.48 737.568 5065.8 737.568 c 0
 5779.59 737.568 6328.25 1144.3 6668 1588 c 0
 6853.21 1841.04 6938.05 2077.06 6938.05 2553.47 c 0
 6938.05 2807.57 6913.92 3130.06 6868 3560 c 0
 6820.61 4035.35 6792.96 4364.32 6792.96 4595.42 c 0
 6792.96 4988.58 6872.99 5098.5 7072 5164 c 0
 7128.73 5184 7185.35 5193.45 7241.33 5193.45 c 0
 7666.84 5193.45 8054.88 4647.09 8168 4032 c 0
 8341.27 3178.27 8566.63 1168.37 8566.63 352.968 c 0
 8566.63 133.032 8550.24 2.03451e-05 8512 0 c 0
 8420 0 8292 780 8248 1736 c 0
 8148.31 3212.83 7718.06 4659 7407.06 4659 c 0
 7381.13 4659 7356.02 4648.94 7332 4628 c 0
 7310.99 4612.24 7302.94 4538.52 7302.94 4428.51 c 0
 7302.94 4119.74 7366.3 3525.1 7384 3124 c 0
 7388.91 3037.16 7391.33 2951.57 7391.33 2867.28 c 0
 7391.33 1165.67 6403.89 -0.000244141 4948 0 c 0
 4644 0 3944 328 3352 760 c 2
 2296 1512 l 1
 1960 1088 l 2
 1424.13 385.177 879.198 -0.405252 499.716 -0.405252 c 0
 315.501 -0.405252 170.275 90.4572 84 280 c 0
1308 980 m 0
 1621.52 1410.32 1987 1701.29 1987 1842.01 c 0
 1987 1884.42 1953.81 1913.18 1876 1928 c 0
 1858.52 1930.8 1840.04 1932.17 1820.66 1932.17 c 0
 1369.97 1932.17 436 1195.22 436 712 c 0
 436 494.193 505.476 388.67 621.205 388.67 c 0
 781.773 388.67 1031.38 591.798 1308 980 c 0
EndSplineSet
Validated: 1
EndChar

StartChar: uni1B2F
Encoding: 8 6959 8
Width: 9216
VWidth: 0
Flags: W
HStem: 1.16269 642.837<2751.18 5667.59> 4738.89 649.09<560.444 1116.22> 4828.23 347.75<6571.78 7235.87>
VStem: 1172 411.22<1741.35 4176.88> 7162.23 238.7<2074.64 2886.09> 8164 463.17<105.723 3446.06>
LayerCount: 2
Fore
SplineSet
2848 124 m 0xbc
 1688 412 1180 1236 1172 2888 c 0
 1172 3879 1172 4738.89 979.84 4738.89 c 0
 973.442 4738.89 966.831 4737.93 960 4736 c 0
 800 4692 568 3804 520 3424 c 0
 481.922 3035.97 396.992 2854.24 315.511 2854.24 c 0
 217.247 2854.24 124 3118.54 124 3604 c 0
 124 4625.79 337.498 5387.98 783.39 5387.98 c 0xdc
 910.035 5387.98 1055.43 5326.49 1220 5192 c 0
 1461.03 5009.6 1768.38 4758.23 1768.38 4183.04 c 0
 1768.38 4051.87 1752.4 3903.87 1716 3736 c 0
 1630.29 3352.26 1583.22 2999.9 1583.22 2681.41 c 0
 1583.22 1379.83 2369.29 644 4516 644 c 0
 5820 644 6168 1300 6688 1716 c 0
 7026.52 1989.19 7162.23 2183.02 7162.23 2423.5 c 0
 7162.23 2506.96 7145.89 2596.04 7116 2696 c 0
 6912 3352 6432 4344 5908 4344 c 0
 5697.67 4344 5226.37 3991.34 5007.37 3991.34 c 0
 4993.13 3991.34 4979.96 3992.83 4968 3996 c 0
 4823.14 4041.74 4758.95 4120.7 4758.95 4216.97 c 0
 4758.95 4474.25 5217.45 4855.15 5820 5056 c 0
 6063.84 5136.63 6304.15 5175.98 6534.84 5175.98 c 0
 7253.99 5175.98 7879.72 4793.64 8228 4088 c 0
 8473.03 3585.93 8627.17 2249.98 8627.17 1262.83 c 0
 8627.17 606.266 8558.98 104 8404 104 c 0
 8256 104 8164 696 8164 1500 c 0
 8164 3388 7660 4820 6728 4828 c 0
 6725.33 4828.15 6722.7 4828.23 6720.09 4828.23 c 0
 6624.59 4828.23 6565.72 4726.2 6565.72 4582.26 c 0
 6565.72 4423 6637.78 4212.44 6812 4032 c 0
 7165.58 3673.26 7400.93 2921.51 7400.93 2235.56 c 0
 7400.93 1858.39 7329.78 1501.12 7168 1240 c 0
 6708.33 502.018 5283.04 1.16269 3935.58 1.16269 c 0
 3559.42 1.16269 3189.33 40.1959 2848 124 c 0xbc
EndSplineSet
Validated: 1
EndChar

StartChar: uni1B2E
Encoding: 9 6958 9
Width: 9424
VWidth: 0
Flags: W
HStem: 0 766.42<1114.16 1471.13> 93.7742 342.226<4998.49 6400.85> 5045.62 450.6<321.437 786.015 2366.27 3357.31>
VStem: 24 179.177<3104.92 4759.62> 815.823 233.057<960.644 5014.01> 1588 320<915.755 4136.21> 7474.63 206.02<2020.17 4033.17> 8352.6 325.71<344.51 3197.03>
LayerCount: 2
Fore
SplineSet
972 280 m 0xbf
 868.731 417.691 815.823 993.808 815.823 1901.28 c 0
 815.823 2048.31 817.211 2204.03 820 2368 c 0
 828 2706.67 830.667 3052.89 830.667 3367.11 c 0
 830.667 3995.56 820 4496 820 4552 c 0
 799.074 4943.31 724.508 5045.62 639.252 5045.62 c 0
 561.54 5045.62 474.945 4960.61 412 4932 c 0
 262.647 4860.09 203.177 4461.15 203.177 4051.24 c 0
 203.177 3868.32 215.019 3683.21 236 3524 c 0
 250.966 3389.31 258.528 3274.51 258.528 3184.34 c 0
 258.528 3041.05 239.433 2959.93 200.613 2959.93 c 0
 192.04 2959.93 182.504 2963.88 172 2972 c 0
 92 3020 24 3556 24 4120 c 0
 24 5056 68 5192 436 5384 c 0
 561.111 5455.61 664.88 5496.22 750.028 5496.22 c 0
 996.956 5496.22 1087.27 5154.66 1087.27 4236.92 c 0
 1087.27 3933.21 1077.38 3566.41 1060 3128 c 0
 1052.83 2811.43 1048.88 2502 1048.88 2220.16 c 0
 1048.88 1558.28 1070.7 1048.58 1124 956 c 0
 1185.41 827.245 1244.85 766.42 1299.54 766.42 c 0xbf
 1465.72 766.42 1588 1328.06 1588 2252 c 0
 1588 4498.56 1888.39 5496.11 2831.01 5496.11 c 0
 2836.65 5496.11 2842.31 5496.07 2848 5496 c 0
 3628 5476 3992 5088 4088 3404 c 0
 4192 1528 4364 436 5736 436 c 0
 6492 436 6944 980 7128 1408 c 0
 7333.55 1867.27 7474.63 2112.51 7474.63 2762.81 c 0
 7474.63 2922.42 7466.13 3106.43 7448 3324 c 0
 7384 3960 7300 4728 7244 5032 c 0
 7218.98 5173.77 7204.25 5278.28 7204.25 5353.68 c 0
 7204.25 5481.61 7246.66 5525.7 7353.17 5525.7 c 0
 7394.64 5525.7 7445.82 5519.02 7508 5508 c 0
 8028 5408 8420 4640 8600 3336 c 0
 8654.08 2940.72 8678.31 2474.16 8678.31 2023.16 c 0
 8678.31 1073.05 8570.75 192 8408 192 c 0
 8332 192 8292 260 8332 344 c 0
 8346.33 367.456 8352.6 470.301 8352.6 629.991 c 0
 8352.6 960.473 8325.76 1534.42 8288 2152 c 0
 8212 3320 8008 4628 7820 4844 c 0
 7788.25 4883.55 7762.39 4902.7 7741.44 4902.7 c 0
 7675.82 4902.7 7658.27 4714.9 7658.27 4377.78 c 0
 7658.27 4049.55 7674.9 3579.79 7680 3004 c 0
 7680.42 2941.1 7680.65 2880.47 7680.65 2821.97 c 0
 7680.65 1779.38 7610.19 1415.14 7364 972 c 0
 7016.26 386.516 6507.98 93.7742 5839.17 93.7742 c 0x7f
 5754.04 93.7742 5666.32 98.5161 5576 108 c 0
 4280 256 4100 520 3912 2520 c 0
 3784 4060 3560 5084 2860 5084 c 0
 2080 5084 1908 3868 1908 1996 c 0
 1908 504 1756 0 1340 0 c 0
 1236 0 1064 124 972 280 c 0xbf
EndSplineSet
Validated: 1
EndChar

StartChar: uni1B2B
Encoding: 10 6955 10
Width: 9488
VWidth: 0
Flags: W
HStem: 0 21G<8388 8518> 21.7537 330.246<3275.77 5390.91> 2884 388<2488.73 4799.58> 5012 376<2935.27 4898.54 7479.68 7612.7>
VStem: 36.0313 290.429<2588.54 4150.34> 1368 428<1481.39 2454.07> 1460.2 568.89<3386.23 4437.41> 8236 432<0.599106 3976.06>
LayerCount: 2
Fore
SplineSet
2656 220 m 0xfd
 1732 544 1368 980 1368 1736 c 0xfd
 1368 2148 1500 2560 1688 2696 c 0
 1836 2806 1910 2876 1910 2955.5 c 0
 1910 3035 1836 3124 1688 3272 c 0
 1528.43 3428.27 1460.2 3633.26 1460.2 3842.71 c 0
 1460.2 4142.57 1600.05 4451.6 1812 4640 c 0
 1867.01 4689.51 1890.85 4739.92 1890.85 4787 c 0
 1890.85 4911.09 1725.19 5012 1528 5012 c 0
 1332 5012 968 4764 712 4472 c 0
 437.426 4165.96 326.46 3951.96 326.46 3597.47 c 0
 326.46 3456.2 344.084 3292.61 376 3092 c 0
 407.568 2868.02 423.883 2698.27 423.883 2581.26 c 0
 423.883 2449.41 403.163 2384.54 360.202 2384.54 c 0
 339.848 2384.54 314.501 2399.1 284 2428 c 0
 125.344 2572.23 36.0313 3029.96 36.0313 3503.38 c 0
 36.0313 3817.72 75.4058 4138.99 160 4380 c 0
 416 5096 1364 5388 3392 5388 c 0
 5212 5388 5228 5384 5228 4908 c 0
 5228 4769.15 5223.99 4720.69 5181.99 4720.69 c 0
 5084.82 4720.69 4784.37 4980 3860 4980 c 0
 2639.39 4980 2029.09 4369.7 2029.09 3830.32 c 0xfb
 2029.09 3736.9 2047.39 3645.62 2084 3560 c 0
 2176 3352 2540 3272 3500 3272 c 0
 4228 3272 4800 3192 4800 3076 c 0
 4800 2972 4364 2884 3844 2884 c 0
 2676 2884 1796 2556 1796 2108 c 0
 1796 1480 2600 352 4344 352 c 0
 5796 352 6208 1020 6508 1544 c 0
 6874.3 2204.58 7152.38 2664.24 7152.38 3498.32 c 0
 7152.38 3729.91 7130.94 3990.36 7084 4292 c 0
 7004.62 4812.39 6944.69 5086.95 6944.69 5231.29 c 0
 6944.69 5373.46 7002.83 5389.3 7157.79 5389.3 c 0
 7202.25 5389.3 7254.68 5388 7316 5388 c 0
 7648 5388 7820 5188 8104 4764 c 0
 8460 4244 8668 3796 8668 2072 c 0
 8668 820 8584 0 8452 0 c 0
 8324 0 8236 708 8236 1740 c 0
 8236 3392 8064 4408 7516 4928 c 0
 7514.41 4929.42 7512.82 4930.11 7511.24 4930.11 c 0
 7441.53 4930.11 7387.11 3570.72 7348 2808 c 0
 7260 1220 6936 724 5720 260 c 0
 5300.84 103.343 4683.36 21.7537 4080.45 21.7537 c 0
 3544.18 21.7537 3019.42 86.3057 2656 220 c 0xfd
EndSplineSet
Validated: 1
EndChar

StartChar: uni1B15
Encoding: 11 6933 11
Width: 9408
VWidth: 0
Flags: W
HStem: 59.5634 424.437<1832.55 2199.32> 4507.57 508.4<585.751 1044.41 3259.64 5437.31>
VStem: 15.1276 248.872<2848.52 3722.08> 984 250.68<1460.91 3269.8> 1791.97 333.67<1284.43 3268.67> 2199.33 596<114.193 655.466> 6505.16 293.08<1768.09 3302.22> 7289.12 379.01<1430.15 4324.88> 8352 338.38<372.884 3115.2>
LayerCount: 2
Fore
SplineSet
1928 220 m 0
 1228 500 984 1056 984 2452 c 0
 984 3172 936 4416 872 4480 c 0
 852.506 4498.8 831.951 4507.57 810.655 4507.57 c 0
 587.249 4507.57 282.259 3542.4 264 3064 c 2
 256 2524 l 1
 100 3036 l 2
 42.7012 3215.21 15.1276 3401.11 15.1276 3584.98 c 0
 15.1276 4004.39 158.598 4413.23 420 4708 c 0
 608.745 4918.19 778.801 5015.97 922.229 5015.97 c 0
 1217.73 5015.97 1400.2 4600.93 1400.2 3898.96 c 0
 1400.2 3670.82 1380.93 3412.36 1340 3128 c 0
 1271.66 2677.59 1234.68 2234.42 1234.68 2010.16 c 0
 1234.68 1945.64 1237.74 1899.24 1244 1876 c 0
 1284 1760 1364 1460 1412 1204 c 0
 1476 940 1984 484 2136 484 c 0
 2181.14 484 2199.33 502.879 2199.33 536.388 c 0
 2199.33 648.388 1996.05 923.824 1916 1204 c 0
 1831.36 1500.92 1791.97 1865.21 1791.97 2234.62 c 0
 1791.97 2930.19 1931.65 3643.88 2172 3960 c 0
 2688.49 4640.01 3537.02 4980.01 4365.21 4980.01 c 0
 5198.27 4980.01 6010.74 4636.01 6444 3948 c 0
 6678.3 3576.13 6798.24 3029.85 6798.24 2489.15 c 0
 6798.24 2023.67 6709.35 1562.34 6528 1220 c 0
 6403.58 986.47 6339.61 859.198 6339.61 796.103 c 0
 6339.61 757.238 6363.88 742.723 6413.24 742.723 c 0
 6451.2 742.723 6504 751.306 6572 764 c 0
 7019.85 848.183 7289.12 1660.88 7289.12 2872.79 c 0
 7289.12 3100.49 7279.61 3342.29 7260 3596 c 0
 7207.79 4319.52 6870.44 4970.02 6870.44 5054.69 c 0
 6870.44 5060.83 6872.21 5064 6876 5064 c 0
 7172 5064 8064 4600 8288 4172 c 0
 8496.53 3789.7 8690.38 1889.12 8690.38 869.348 c 0
 8690.38 480.712 8662.23 220 8596 220 c 0
 8508 220 8404 916 8352 1756 c 0
 8268 3124 8036 4348 7688 4348 c 0
 7652 4348 7636.16 4019.68 7636.16 3658.53 c 0
 7636.16 3417.76 7643.2 3162.4 7656 2980 c 0
 7664.18 2868.38 7668.13 2756.68 7668.13 2645.76 c 0
 7668.13 1671.61 7362.94 758.562 6932 500 c 0
 6712 364 6280 220 5976 160 c 2
 5408 60 l 1
 5928 856 l 2
 6296.22 1423.97 6505.16 2061.45 6505.16 2608.99 c 0
 6505.16 2971.5 6413.57 3294.59 6216 3532 c 0
 5928 3872 5760 4416 4620 4472 c 0
 4305.94 4487.56 4064.91 4498.15 3872.56 4498.15 c 0
 3273.59 4498.15 3146.57 4395.43 2756 4020 c 0
 2357.36 3635.52 2125.64 2981.18 2125.64 2284.21 c 0
 2125.64 1799.27 2237.82 1293.69 2484 844 c 0
 2696.77 458.351 2795.33 256.913 2795.33 155.31 c 0
 2795.33 80.0468 2741.25 59.5634 2639.45 59.5634 c 0
 2630.66 59.5634 2621.5 59.7163 2612 60 c 0
 2444 64 2144 136 1928 220 c 0
EndSplineSet
Validated: 1
EndChar

StartChar: uni1B29
Encoding: 12 6953 12
Width: 9464
VWidth: 0
Flags: W
HStem: 4 710.909<1467.62 1747.29> 4511.04 526.29<5353.58 6344.81> 4600 476<498.432 957.903 2375.51 3286.83 7602.94 7866>
VStem: 3.97691 220.023<3098.26 3844.95> 856 261.24<1365.32 3755.87> 857.689 373.141<2593.98 4595.08> 1545.29 339.6<1112.92 3749.34> 6773 341.95<1287.79 3839.09> 8388 273.63<15.2534 2928.18>
LayerCount: 2
Fore
SplineSet
1568 196 m 0xdb80
 1116 500 856 1464 856 2792 c 0xdb80
 856 3022.88 857.689 3249.41 857.689 3459.81 c 0
 857.689 4106.02 841.754 4600 712 4600 c 0
 476 4600 248 3672 224 3092 c 0
 222.196 2953.12 214.7 2880.93 197.476 2880.93 c 0
 176.502 2880.93 141.105 2987.97 84 3212 c 0
 29.4763 3416.25 3.97691 3619.37 3.97691 3812.3 c 0
 3.97691 4511.04 338.473 5076 840 5076 c 0
 1095.46 5076 1230.83 4715.75 1230.83 4073.22 c 0xb780
 1230.83 3830.39 1211.49 3547.25 1172 3228 c 0
 1134.88 2930.11 1117.24 2641.49 1117.24 2372.51 c 0
 1117.24 1511.02 1298.22 850.882 1600 732 c 0
 1631.71 720.94 1658.11 714.909 1679.39 714.909 c 0
 1725.25 714.909 1747.31 742.927 1747.31 808.997 c 0
 1747.31 878.568 1722.86 990.331 1676 1156 c 0
 1587.07 1492.11 1545.29 1916.25 1545.29 2349.45 c 0
 1545.29 3065.92 1659.59 3807.18 1864 4216 c 0
 2156.1 4781.69 2601.6 5069.16 3025.85 5069.16 c 0
 3426.57 5069.16 3808.33 4812.71 4024 4292 c 2
 4276 3700 l 1
 4604 4252 l 2
 4911.98 4776.91 5302.49 5037.33 5693.34 5037.33 c 0
 6109.63 5037.33 6526.29 4741.91 6844 4156 c 0
 7044.48 3792.63 7114.95 3517.57 7114.95 2973.48 c 0
 7114.95 2822.81 7109.54 2651.52 7100 2452 c 0
 7064 1824 6984 1172 6920 1004 c 0
 6856 832 6868 700 6952 700 c 0
 7176.86 700 7596.25 1976.11 7596.25 2648.2 c 0
 7596.25 2657.58 7596.17 2666.85 7596 2676 c 0
 7592 2980 7468 3648 7316 4156 c 2
 6924 5056 l 1
 7292 5056 l 2
 7488 5056 7932 4884 8168 4652 c 0
 8596 4236 8600 4184 8648 2112 c 0
 8657.13 1769.17 8661.63 1464.41 8661.63 1200.45 c 0
 8661.63 423.437 8622.64 4.06901e-05 8548 0 c 0
 8452 0 8388 588 8388 1460 c 0
 8384 2940 7916 4672 7624 4672 c 0
 7609.28 4672 7602.93 4644.73 7602.93 4596.38 c 0
 7602.93 4329.37 7796.59 3419.39 7844 2908 c 0
 7868.57 2675.17 7880.98 2457.53 7880.98 2254.72 c 0
 7880.98 1004.64 7409.52 317.94 6408 108 c 2
 5908 4 l 1
 6312 608 l 2
 6626.73 1083.84 6773 1865.01 6773 2601.82 c 0
 6773 3438.23 6584.51 4217.46 6240 4428 c 0
 6146.25 4485.69 6048.96 4511.04 5950.23 4511.04 c 0
 5446.59 4511.04 4905.65 3851.3 4608 3460 c 2
 4284 3036 l 1
 3892 3540 l 2
 3547.87 3956.75 3300.92 4602.76 2858.09 4602.76 c 0
 2739.88 4602.76 2607.71 4556.72 2456 4448 c 0
 2096.31 4195.99 1884.89 3339.04 1884.89 2436.35 c 0
 1884.89 1762.99 2002.53 1064.18 2264 572 c 2
 2568 0 l 1
 2208 4 l 2
 2012 4 1724 92 1568 196 c 0xdb80
EndSplineSet
Validated: 1
EndChar

StartChar: uni1B17
Encoding: 13 6935 13
Width: 8884
VWidth: 0
Flags: W
HStem: 32.7373 378.471<1938.5 2610.05> 4544 442.42<603.05 954.248 2865.3 3876.62 6117.13 7138.9>
VStem: 27.9817 287.166<2826.15 4011.16> 924.741 326.209<1696.72 4355.85> 966.846 440.724<2805.61 4538.72> 1739.37 246.18<1688.78 3379.42> 2228.58 480.37<126.671 850.076> 7908 252.8<261.424 2817.48>
LayerCount: 2
Fore
SplineSet
1820 264 m 0xf7
 1192.16 576.038 924.741 1230.82 924.741 2480.74 c 0xf7
 924.741 2560.7 925.835 2643.1 928 2728 c 0
 934.388 3249.68 966.846 3730.55 966.846 4066.24 c 0
 966.846 4361.15 941.793 4544 852 4544 c 0
 598.832 4544 315.148 3786.65 315.148 3306.98 c 0
 315.148 3210.66 326.584 3125.55 352 3060 c 0
 416 2904 376 2780 276 2780 c 0
 106.28 2780 27.9817 3069.11 27.9817 3430.11 c 0
 27.9817 3885.88 152.792 4456.24 376 4704 c 0
 552.757 4891.15 718.703 4986.42 877.21 4986.42 c 0
 1023.6 4986.42 1163.64 4905.16 1300 4740 c 0
 1376.1 4651.51 1407.57 4542.66 1407.57 4366.34 c 0xef
 1407.57 4144.14 1357.6 3814.79 1284 3284 c 0
 1261.36 3122.57 1250.95 2959.74 1250.95 2798.03 c 0
 1250.95 1645.45 1779.62 549.297 2176 416 c 0
 2186.83 412.775 2195.81 411.208 2203.1 411.208 c 0
 2220.83 411.208 2228.58 420.463 2228.58 437.656 c 0
 2228.58 536.22 1973.87 895.671 1884 1268 c 0
 1786.23 1645.54 1739.37 2069.46 1739.37 2478.3 c 0
 1739.37 3156.68 1868.4 3793.52 2108 4108 c 0
 2526.78 4662.26 3039.31 4941.55 3510.99 4941.55 c 0
 3958.39 4941.55 4369.02 4690.27 4628 4184 c 2
 4916 3624 l 1
 5272 4220 l 2
 5567.3 4721.05 6079.46 4965.31 6581.6 4965.31 c 0
 7133.74 4965.31 7673.76 4669.99 7900 4096 c 0
 8045.92 3715 8160.8 2079.95 8160.8 1059.03 c 0
 8160.8 568.676 8134.3 220 8072 220 c 0
 7988 220 7908 760 7908 1416 c 0
 7908 2808 7556 4256 6876 4512 c 0
 6811.78 4535.75 6746.21 4546.64 6679.85 4546.64 c 0
 6142.66 4546.64 5553.34 3833.38 5208 3456 c 0
 5069.79 3306.73 4991.86 3226.23 4907.71 3226.23 c 0
 4809.21 3226.23 4702.19 3336.55 4480 3576 c 0
 4145.07 3922.22 3898.65 4551.7 3414.3 4551.7 c 0
 3383.83 4551.7 3352.43 4549.21 3320 4544 c 0
 2449.07 4412.2 1985.55 3534.02 1985.55 2553.51 c 0
 1985.55 2016.43 2124.63 1448.64 2412 956 c 0
 2609.9 615.904 2708.95 370.362 2708.95 218.389 c 0
 2708.95 94.4433 2643.06 32.7373 2511.19 32.7373 c 0
 2363.55 32.7373 2133.2 110.075 1820 264 c 0xf7
EndSplineSet
Validated: 1
EndChar

StartChar: uni1B27
Encoding: 14 6951 14
Width: 9428
VWidth: 0
Flags: W
HStem: 36 493.906<2697.05 5850.89> 4544.51 518.45<7484.95 7810.32> 4677.23 384.74<778.061 1455.23>
VStem: 29.3561 230.644<2971.75 3765.12> 136 236<2988 3151.55> 1189.93 571.12<1206.46 4670.33> 6964 536.23<1532.31 4534.55> 8212 466.07<49.9417 3723.64>
LayerCount: 2
Fore
SplineSet
2592 312 m 0xd7
 1540 716 1236 1236 1196 2652 c 0
 1189.58 2913.28 1187.9 3148.18 1187.9 3357.33 c 0
 1187.9 3587.12 1189.93 3785.83 1189.93 3954.29 c 0
 1189.93 4443.04 1172.86 4677.23 1039.67 4677.23 c 0
 1000.18 4677.23 950.486 4656.65 888 4616 c 0
 700 4492 264 3700 260 3336 c 1
 372 2468 l 1
 136 2988 l 2xaf
 62.6164 3146.84 29.3561 3331.79 29.3561 3524.15 c 0
 29.3561 4160.12 392.909 4877.16 872 5000 c 0
 1033.29 5039.75 1169.02 5061.97 1282 5061.97 c 0xb7
 1628.47 5061.97 1761.05 4853.01 1761.05 4299.85 c 0
 1761.05 4089.49 1741.88 3829.36 1708 3512 c 0
 1698.38 3420.57 1694.02 3319.4 1694.02 3211.85 c 0
 1694.02 2425.44 1926.92 1297.38 2036 1132 c 0
 2321.34 720.665 3198.89 529.906 4122 529.906 c 0
 5191.71 529.906 6322.6 786.071 6664 1252 c 0
 6820 1460 6964 2756 6964 3548 c 0
 6964 4760 7032 5000 7356 5052 c 0
 7403.52 5059.29 7449.66 5062.96 7494.44 5062.96 c 0
 8210.89 5062.96 8577.18 4123.78 8660 2072 c 0
 8671.83 1726.12 8678.07 1427.09 8678.07 1172.82 c 0
 8678.07 394.963 8619.66 36 8484 36 c 0
 8320 36 8224 568 8212 1528 c 0
 8181.34 3087.65 7908.39 4544.51 7586.57 4544.51 c 0
 7572.47 4544.51 7558.27 4541.71 7544 4536 c 0
 7478.38 4509.75 7457.02 4179.68 7457.02 3823.79 c 0
 7457.02 3528.86 7471.69 3216.2 7488 3044 c 0
 7496.2 2950.63 7500.23 2857.84 7500.23 2765.89 c 0
 7500.23 1825.75 7078.15 974.03 6364 504 c 0
 5804 128 5420 36 4472 36 c 0
 3820 44 2972 168 2592 312 c 0xd7
EndSplineSet
Validated: 1
EndChar

StartChar: uni1B1A
Encoding: 15 6938 15
Width: 8944
VWidth: 0
Flags: W
HStem: 0 21G<8088.23 8096.65> 92 384.555<2421.41 2851.73> 1764 480<5201.7 6992.18> 4894.27 381.63<999.027 1358.2 4297.33 6618.39>
VStem: 328 396<2784.5 4528.34> 1367.88 373.47<1280.16 4787.68> 2328 283.92<1788.28 3413.67> 7732 396.39<2847.2 3859.76>
LayerCount: 2
Fore
SplineSet
2060 372 m 0
 1628.84 766.105 1367.88 1608.39 1367.88 2468.88 c 0
 1367.88 2630.23 1377.05 2792.21 1396 2952 c 0
 1422.23 3154.13 1434.77 3453.27 1434.77 3752.54 c 0
 1434.77 4229.11 1402.97 4706 1344 4792 c 0
 1296.88 4862.68 1248.59 4894.27 1200.76 4894.27 c 0
 956.255 4894.27 724 4068.39 724 3416 c 0
 724 3019.67 663.442 2773.13 562.243 2773.13 c 0
 550.071 2773.13 537.312 2776.7 524 2784 c 0
 416 2852 328 3304 328 3796 c 0
 328 4687.95 725.55 5275.9 1297.78 5275.9 c 0
 1351.7 5275.9 1407.17 5270.68 1464 5260 c 0
 1707.63 5213.04 1787.55 5105.76 1787.55 4405.52 c 0
 1787.55 4151.52 1777.04 3819.48 1760 3384 c 0
 1748.02 3051.45 1741.35 2770.87 1741.35 2531.53 c 0
 1741.35 1731.59 1815.88 1392.17 2016 1112 c 0
 2278.8 736.215 2606.46 476.555 2761.9 476.555 c 0
 2818.07 476.555 2851.75 510.469 2851.75 585.073 c 0
 2851.75 640.228 2833.34 717.625 2792 820 c 0
 2688 1088 2328 2040 2328 2568 c 0
 2332 4360 3428 5300 5536 5300 c 0
 6652 5300 7608 4932 7924 4380 c 0
 8061.7 4139.03 8128.39 3868.07 8128.39 3600.64 c 0
 8128.39 3184.42 7966.84 2776.75 7660 2504 c 1
 6876 2088 l 1
 7660 1656 l 1
 7960.84 1382.16 8116.64 1045.09 8116.64 655.555 c 0
 8116.64 641.109 8116.43 626.59 8116 612 c 2
 8096 0 l 1
 7852 628 l 2
 7532 1460 7032 1764 5992 1764 c 0
 5431.75 1764 5156.17 1839.16 5156.17 1934.85 c 0
 5156.17 2036.59 5467.76 2161.54 6080 2244 c 0
 7356 2412 7732 2624 7732 3156 c 0
 7732 3880 7052 4952 5412 4952 c 0
 4616 4952 3624 4488 3368 4100 c 1
 2860.86 3885.83 2611.92 3302.2 2611.92 2624.4 c 0
 2611.92 1960.36 2850.86 1205.93 3320 620 c 2
 3740 92 l 1
 3044 92 l 2
 2668 92 2220 220 2060 372 c 0
EndSplineSet
Validated: 1
EndChar

StartChar: uni1B2C
Encoding: 16 6956 16
Width: 9428
VWidth: 0
Flags: W
HStem: 53.3622 465.685<1335.28 2406.4> 107.588 552.412<5746.81 6971.23> 4540 560<7462 7970.59> 4700.07 420.81<751.408 1076.5>
VStem: 4.54078 307.459<2709.4 3758.4> 567.885 486.005<801.585 2608.16> 1130.62 535.16<3498.37 4684.29> 7272 427.65<1077.72 4522.58> 8264 356<119.112 3871.04>
LayerCount: 2
Fore
SplineSet
1260 212 m 0x8f80
 788.911 396.447 567.885 702.043 567.885 1265.25 c 0
 567.885 1605.88 648.731 2040.73 804 2600 c 0
 1008.59 3334.42 1130.62 3922.65 1130.62 4289.11 c 0
 1130.62 4481.51 1096.98 4612.79 1024 4672 c 0
 1000.54 4691.24 977.24 4700.07 954.172 4700.07 c 0
 780.606 4700.07 620.045 4199.89 500 3868 c 0
 392 3596 312 3232 312 3040 c 0
 312 2852 220 2696 104 2696 c 0
 34.9791 2696 4.54078 2852.03 4.54078 3080.01 c 0
 4.54078 3552.3 135.16 4333.39 324 4676 c 0
 482.623 4970.58 772.802 5120.88 1046.46 5120.88 c 0x9f80
 1304.18 5120.88 1547.24 4987.6 1652 4716 c 0
 1661.33 4693.33 1665.78 4658.56 1665.78 4613.76 c 0
 1665.78 4389.78 1554.67 3915.33 1388 3452 c 0
 1165.96 2814.41 1053.89 2216.24 1053.89 1731.98 c 0
 1053.89 1265.32 1157.96 904.445 1368 716 c 0
 1518.99 580.904 1679.52 519.047 1843.88 519.047 c 0
 2672.32 519.047 3598.28 2090.43 3892 3776 c 0
 3985.39 4316.34 4135.65 4599.57 4273.36 4599.57 c 0
 4383.37 4599.57 4485.38 4418.82 4544 4044 c 0
 4604 3700 4692 3128 4748 2784 c 0
 4888 1896 5632 660 6344 660 c 0
 7252 660 7272 1460 7272 3372 c 0
 7272 4980 7296 5100 7628 5100 c 0
 8300 5100 8620 4076 8620 1928 c 0
 8620 757.566 8569.46 110.612 8461.51 110.612 c 0
 8455.83 110.612 8450 112.402 8444 116 c 0
 8344 172 8264 896 8264 1720 c 0
 8264 3200 8064 4540 7744 4540 c 0
 7678.21 4540 7645.32 4103.71 7645.32 3570.56 c 0
 7645.32 3293.32 7654.21 2989.89 7672 2708 c 0
 7690.12 2461.24 7699.65 2238.08 7699.65 2035.97 c 0
 7699.65 943.958 7421.43 466.022 6716 196 c 0
 6556.75 136.745 6402.27 107.588 6253.41 107.588 c 0x6f80
 5437.61 107.588 4790.89 983.337 4456 2580 c 2
 4236 3676 l 1
 4012 2880 l 2
 3652 1564 3276 820 2752 416 c 0
 2431.68 169.232 2190.17 53.3622 1913.94 53.3622 c 0
 1724.5 53.3622 1518.73 107.857 1260 212 c 0x8f80
EndSplineSet
Validated: 1
EndChar

StartChar: uni1B1C
Encoding: 17 6940 17
Width: 15052
VWidth: 0
Flags: W
HStem: 56.6226 239.377<11409.2 12827.8> 116 512.467<1731.31 2052.18 7765.48 8112.27> 4389.4 450.6<610.97 941.265 3202.97 4154.07 10405 12329.8>
VStem: 52.5502 331.45<2746.45 3991.54> 1092 206.42<1271.46 3615> 7685.98 502.13<1150.49 3496.12> 13972.6 320.801<1425.94 2608.74>
LayerCount: 2
Fore
SplineSet
11796 84 m 0xbe
 11513.6 124.567 11387 165.743 11387 200.88 c 0
 11387 255.822 11696.5 296 12204 296 c 0
 13326.9 296 13972.6 1093.85 13972.6 1921.27 c 0
 13972.6 2319.97 13822.7 2725.53 13504 3052 c 0
 12756.2 3877.59 12388.7 4398.22 11364.4 4398.22 c 0
 11282.1 4398.22 11195.4 4394.85 11104 4388 c 0
 9896 4284 9448 3128 9020 1764 c 0
 8684 716 8076 116 7364 116 c 2
 6944 116 l 1
 7316 596 l 2
 7576.73 931.63 7685.98 1454.52 7685.98 2010.01 c 0
 7685.98 2997.03 7341.04 4086.94 6888 4412 c 0
 6819.1 4462.83 6749.64 4485.35 6679.81 4485.35 c 0
 6255.09 4485.35 5816.79 3652.13 5408 3288 c 2
 5000 2924 l 1
 4152 4188 l 1
 3995.3 4328.61 3840.39 4389.4 3690.39 4389.4 c 0
 3132.04 4389.4 2641.7 3547.11 2380 2844 c 0
 2231.94 2441.2 2111.15 2159.29 2111.15 1844.73 c 0
 2111.15 1581.39 2195.81 1295.18 2420 896 c 2
 2852 116 l 1
 2408 116 l 2
 2168 116 1764 300 1528 524 c 0
 1132 896 1092 1088 1092 2284 c 0
 1092 3100 980 4316 864 4388 c 0
 847.473 4397.44 831.049 4401.93 814.786 4401.93 c 0
 583.074 4401.93 384 3490.68 384 3016 c 0
 377.703 2827.1 329.282 2719.98 250.438 2719.98 c 0
 229.108 2719.98 205.551 2727.82 180 2744 c 0
 91.6585 2793.87 52.5502 2997.53 52.5502 3254.82 c 0
 52.5502 3719.81 180.29 4359.96 376 4584 c 0
 521.721 4749.51 707.089 4828.44 880.066 4828.44 c 0
 1091.69 4828.44 1284.76 4710.3 1364 4488 c 0
 1393.03 4399.11 1406.42 4194.21 1406.42 3928.15 c 0
 1406.42 3607.57 1386.97 3198.2 1352 2796 c 0
 1317.23 2417.75 1298.42 2131.84 1298.42 1905.5 c 0
 1298.42 1480.79 1364.66 1265.8 1516 1044 c 0
 1710.26 766.491 1878.97 628.467 1972.99 628.467 c 0x7e
 2023.29 628.467 2052.2 667.979 2052.2 746.779 c 0
 2052.2 817.902 2028.65 921.031 1976 1056 c 0
 1861.86 1337.79 1806.56 1768.27 1806.56 2218.05 c 0
 1806.56 2777.04 1891.98 3365.84 2056 3736 c 0
 2328 4348 3104 4840 3820 4840 c 0
 4316 4840 4820 4284 4820 3756 c 0
 4820 3662.82 4834 3614.55 4868.46 3614.55 c 0
 4924.24 3614.55 5033.62 3740.98 5224 4008 c 0
 5599.14 4541.6 6094.55 4818.97 6638.36 4818.97 c 0
 6767.17 4818.97 6898.71 4803.41 7032 4772 c 0
 7711.15 4607.87 8188.11 3420.74 8188.11 2333.73 c 0
 8188.11 1884.23 8106.55 1451.85 7924 1116 c 0
 7817.64 923.92 7765.46 787.909 7765.46 709.467 c 0
 7765.46 656.492 7789.26 629.774 7836.24 629.774 c 0
 7894.98 629.774 7989.97 671.548 8120 756 c 0
 8424 940 8664 1460 8904 2476 c 0
 9224 3784 9508 4244 10212 4564 c 0
 10650.6 4760.08 11097.7 4852.47 11527.7 4852.47 c 0
 12799.3 4852.47 13921.1 4044.26 14232 2720 c 0
 14273.7 2546.42 14293.4 2374.5 14293.4 2206.55 c 0
 14293.4 1034.92 13332.2 56.6226 12142.1 56.6226 c 0
 12028.6 56.6226 11913 65.5214 11796 84 c 0xbe
EndSplineSet
Validated: 1
EndChar

StartChar: uni1B36
Encoding: 18 6966 18
Width: 0
VWidth: 0
GlyphClass: 4
Flags: W
HStem: 5942.75 288.518<-3939.41 -3450.75> 9193.26 430.031<-5201.39 -3463.12>
VStem: -6398.63 380.34<7060.36 8418.25> -2828.06 443.903<7004.96 8524.14>
LayerCount: 2
Fore
SplineSet
-5685.56 6213.27 m 0
 -6427.82 6645.58 -7070.27 7214.62 -7070.27 7424.68 c 0
 -7070.27 7446.4 -7063.41 7464.28 -7049.06 7477.77 c 0
 -7039.61 7485.04 -7025.93 7488.55 -7008.74 7488.55 c 0
 -6919.55 7488.55 -6735.9 7393.97 -6558.56 7239.27 c 2
 -6180.56 6919.77 l 1
 -6338.06 7495.77 l 2
 -6379.19 7638.38 -6398.63 7779.71 -6398.63 7917.72 c 0
 -6398.63 8845.79 -5519.27 9623.29 -4440.1 9623.29 c 0
 -4327.67 9623.29 -4213.06 9614.86 -4097.06 9597.27 c 0
 -3011.01 9433.07 -2384.16 8687.95 -2384.16 7851.85 c 0
 -2384.16 7381.9 -2582.21 6883.2 -3008.06 6442.77 c 0
 -3315.4 6126.48 -3624.72 5942.75 -3798.26 5942.75 c 0
 -3886.44 5942.75 -3939.56 5990.2 -3939.56 6091.77 c 0
 -3939.56 6163.77 -3858.56 6231.27 -3768.56 6231.27 c 0
 -3363.56 6231.27 -2828.06 6942.27 -2828.06 7486.77 c 0
 -2828.06 8193.27 -3084.56 8994.27 -3786.56 9138.27 c 0
 -3974.07 9175.77 -4152.13 9193.26 -4319.82 9193.26 c 0
 -5374.19 9193.26 -6018.29 8501.88 -6018.29 7746.4 c 0
 -6018.29 7209.04 -5692.44 6639.26 -4956.56 6262.77 c 0
 -4740.56 6154.77 -4695.56 6064.77 -4817.06 5956.77 c 0
 -4849.32 5925.81 -4893.02 5910.02 -4950.86 5910.02 c 0
 -5094.76 5910.02 -5326.05 6007.84 -5685.56 6213.27 c 0
EndSplineSet
Validated: 1
EndChar

StartChar: uni1B38
Encoding: 19 6968 19
Width: 0
VWidth: 0
GlyphClass: 4
Flags: W
HStem: -5786 332.87<-2910.77 -2181.09>
VStem: -3308.78 351.19<-5366.54 -4585.12> -1344 312<-1366.29 -718.6> -864 265.417<-2224.16 182.352>
LayerCount: 2
Fore
SplineSet
-3192 -5618 m 4
 -3269.32 -5531.15 -3308.78 -5416.11 -3308.78 -5267.4 c 0
 -3308.78 -4854.47 -3004.58 -4181.88 -2362 -3132 c 4
 -1886 -2370 -1426 -1480 -1344 -1150 c 4
 -1258 -830 -1138 -566 -1076 -566 c 4
 -1022 -566 -998 -658 -1032 -770 c 4
 -1070 -886 -1138 -1150 -1186 -1378 c 4
 -1238 -1600 -1732 -2246 -2132 -2984 c 4
 -2744.8 -4080.35 -2957.59 -4763.96 -2957.59 -5104.3 c 0
 -2957.59 -5211.59 -2936.44 -5284.77 -2900 -5326 c 4
 -2815.75 -5414.69 -2714.29 -5453.13 -2605.11 -5453.13 c 0
 -2221.86 -5453.13 -1743.44 -4979.4 -1580 -4542 c 5
 -1076 -3666 -864 -1550 -864 -496 c 4
 -864 -162 -802 148 -724 190 c 4
 -718.031 193.358 -712.279 195.005 -706.746 195.005 c 0
 -633.764 195.005 -598.583 -91.4463 -598.583 -517.219 c 0
 -598.583 -1097.51 -663.933 -1936.6 -788 -2662 c 4
 -1124 -4648 -1800 -5786 -2644 -5786 c 4
 -2852 -5786 -3106 -5712 -3192 -5618 c 4
EndSplineSet
Validated: 1
LCarets2: 1 0 
EndChar

StartChar: uni1B3E
Encoding: 20 6974 20
Width: 3760
VWidth: 0
GlyphClass: 4
Flags: W
HStem: 5125.9 322.1<1756.95 2455.24>
VStem: 2211.91 307.64<-3150.12 -1293.25> 3014.72 368.98<1927.05 4053.91>
LayerCount: 2
Fore
SplineSet
2424 -3296 m 1
 2275.5 -2977.19 2211.91 -2697.83 2211.91 -2377.46 c 0
 2211.91 -1757.24 2450.22 -983.332 2772 528 c 0
 2948.01 1342.22 3014.72 2014.63 3014.72 2575.46 c 0
 3014.72 3582.35 2799.69 4229.57 2616 4692 c 0
 2494.62 4998.18 2324.52 5125.9 2137.72 5125.9 c 0
 1641.22 5125.9 1026.79 4223.6 896 3372 c 0
 836.768 2996.87 770.769 2810.55 700.229 2810.55 c 0
 599.277 2810.55 489.024 3192.15 376 3948 c 0
 332 4264 244 4564 180 4608 c 0
 102.982 4664.35 66.5438 4750.7 66.5438 4826.45 c 0
 66.5438 4911.99 113.018 4984 200 4984 c 0
 272 4984 408 4760 512 4488 c 2
 684 3660 l 1
 876 4556 l 1
 1376 5240 1420 5448 2112 5448 c 0
 2512 5448 2688 5356 2936 5000 c 0
 3233.69 4576.97 3383.7 4182.71 3383.7 3536.47 c 0
 3383.7 2862.8 3220.69 1915.32 2892 376 c 0
 2643.35 -777.548 2519.55 -1664.96 2519.55 -2329.41 c 0
 2519.55 -2701.76 2558.43 -3004.09 2636 -3244 c 0
 2672.64 -3362.26 2691.25 -3457.63 2691.25 -3538.2 c 0
 2691.25 -3651.12 2654.7 -3734.97 2580 -3812 c 0
 2544.06 -3845.03 2523.45 -3862.48 2511.13 -3862.48 c 0
 2472.71 -3862.48 2514.86 -3692.76 2424 -3296 c 1
EndSplineSet
Validated: 1
EndChar

StartChar: uni1B35
Encoding: 21 6965 21
Width: 5136
VWidth: 0
GlyphClass: 4
Flags: W
HStem: 1228 402.29<3079.33 4015.63> 5023.81 393.35<1039.02 3392.19>
VStem: 4554.68 277.46<2270.93 3611.77>
LayerCount: 2
Fore
SplineSet
2456 1684 m 0
 2456 1954.51 2521.32 2063.63 2637.37 2063.63 c 0
 2758.13 2063.63 2933.82 1945.46 3148 1768 c 0
 3264.23 1671.34 3387.73 1630.29 3512.05 1630.29 c 0
 3819.86 1630.29 4132.61 1881.92 4352 2164 c 0
 4491.66 2345.66 4554.68 2592.64 4554.68 2865.45 c 0
 4554.68 3631.86 4057.24 4602.05 3364 4900 c 0
 3159.2 4987.95 2861.65 5023.81 2533.97 5023.81 c 0
 1818.43 5023.81 959.175 4852.84 608 4680 c 0
 354.496 4556.87 182.962 4480.46 121.97 4480.46 c 0
 105.703 4480.46 97.2993 4485.9 97.2993 4497.33 c 0
 97.2993 4537.72 202.23 4653 436 4868 c 0
 876 5268 1108 5352 1932 5404 c 0
 2061.65 5412.7 2185.11 5417.16 2302.93 5417.16 c 0
 3213.82 5417.16 3787.68 5150.91 4280 4524 c 0
 4648.09 4051.58 4832.14 3512.32 4832.14 2997.75 c 0
 4832.14 2466.66 4636.09 1961.87 4244 1584 c 0
 3976 1324 3712 1228 3172 1228 c 0
 2484 1228 2456 1244 2456 1684 c 0
EndSplineSet
Validated: 1
EndChar

StartChar: uni1B42
Encoding: 22 6978 22
Width: 0
VWidth: 0
GlyphClass: 4
Flags: W
HStem: 8111.66 273.345<-3804.17 -2693.18>
VStem: -2487.48 690.48<7689.76 7996.04>
LayerCount: 2
Fore
SplineSet
-6387 6111 m 4
 -6757.4 6431.72 -6906.75 6596 -6906.75 6701.13 c 4
 -6906.75 6735.65 -6890.66 6763.79 -6861 6789 c 4
 -6842.97 6805.14 -6824.94 6813.02 -6805.43 6813.02 c 4
 -6701.62 6813.02 -6556.12 6589.92 -6147 6201 c 4
 -5817 5877 -5481 5691 -5481 5643 c 4
 -5480.56 5637.9 -5480.34 5633.01 -5480.34 5628.38 c 4
 -5480.34 5580.23 -5503.72 5556.74 -5547.97 5556.74 c 4
 -5675.08 5556.74 -5974.47 5750.58 -6387 6111 c 4
-5613 6831 m 4
 -5103 7689 -3981 8385 -3081 8385 c 4
 -2589 8385 -1797 8061 -1797 7857 c 4
 -1797 7706.37 -4577.37 6683.03 -4995.54 6683.03 c 4
 -5010.44 6683.03 -5022.33 6684.32 -5031 6687 c 4
 -5035.37 6688.1 -5037.48 6690.06 -5037.48 6692.87 c 4
 -5037.48 6766.94 -3551.61 7418.67 -2985 7569 c 4
 -2748.64 7638.33 -2487.48 7735.8 -2487.48 7837.07 c 4
 -2487.48 7928.6 -2700.9 8023.23 -3339 8103 c 4
 -3380.58 8108.84 -3422.16 8111.66 -3463.72 8111.66 c 4
 -4105.79 8111.66 -4742.38 7438.52 -5289 6813 c 4
 -5508.39 6563.97 -5664.78 6439.44 -5729.96 6439.44 c 4
 -5752.08 6439.44 -5763.69 6453.79 -5763.69 6482.48 c 4
 -5763.69 6540.33 -5716.49 6656.51 -5613 6831 c 4
EndSplineSet
Validated: 1
EndChar

StartChar: uni1B02
Encoding: 23 6914 23
Width: 0
VWidth: 0
GlyphClass: 4
Flags: W
HStem: 7525.68 368.55<-4900.89 -4383.53>
VStem: -5718.93 3209.58
LayerCount: 2
Fore
SplineSet
-2913.93 5854.23 m 0
 -3471.93 6436.23 -4377.93 7456.23 -4629.93 7525.23 c 0
 -4632.96 7525.54 -4636.04 7525.68 -4639.12 7525.68 c 0
 -4792.12 7525.68 -5019.71 7168.21 -5304.93 7018.23 c 0
 -5613.93 6832.23 -5718.93 6799.23 -5718.93 6925.23 c 0
 -5718.93 7162.23 -5091.93 7894.23 -4878.93 7894.23 c 0
 -4464.93 7894.23 -3741.93 7363.23 -3114.93 6580.23 c 0
 -2727.4 6089.01 -2509.35 5716.26 -2509.35 5601.62 c 0
 -2509.35 5577.53 -2518.98 5564.83 -2538.69 5564.83 c 0
 -2590.72 5564.83 -2713.04 5653.34 -2913.93 5854.23 c 0
EndSplineSet
Validated: 33
LCarets2: 1 2057 
EndChar

StartChar: uni1B04
Encoding: 24 6916 24
Width: 2634
VWidth: 0
GlyphClass: 4
Flags: HMW
LayerCount: 2
Fore
SplineSet
1268 -2640 m 4
 1154.05 -2432.22 1103.44 -2235.35 1103.44 -2028.67 c 0
 1103.44 -1495.3 1440.5 -896.54 1896 124 c 4
 2192.94 786.307 2332.13 1340.01 2332.13 1793.43 c 0
 2332.13 2665.41 1817.37 3166.52 920 3356 c 4
 574.189 3431.42 407.702 3482.3 407.702 3515.27 c 0
 407.702 3554 637.402 3568 1076 3568 c 4
 1504 3568 2072 3960 2248 4132 c 4
 2363.9 4248.9 2416.82 4388.91 2416.82 4530.85 c 0
 2416.82 4911.52 2036.15 5306.08 1468.55 5306.08 c 0
 1407.76 5306.08 1344.84 5301.55 1280 5292 c 4
 832 5228 312 4836 312 4528 c 4
 312 4440 351.111 4273.78 351.111 4172.74 c 0
 351.111 4122.22 341.333 4088 312 4088 c 4
 232 4088 160 4284 160 4524 c 4
 160 5088 680 5472 1440 5472 c 4
 2176 5472 2576 5176 2576 4608 c 4
 2576 4244 2484 4108 2064 3828 c 4
 1785.37 3645.45 1666.85 3555.21 1666.85 3490.59 c 0
 1666.85 3447.6 1719.31 3415.95 1812 3376 c 4
 1960 3308 2200 3076 2336 2860 c 4
 2511.55 2602.42 2600.29 2303.78 2600.29 1935.67 c 0
 2600.29 1406.31 2416.78 733.269 2044 -168 c 4
 1647.66 -1110.12 1536.28 -1469.14 1536.28 -1960.78 c 0
 1536.28 -2074.47 1542.23 -2195.26 1552 -2332 c 4
 1580.92 -2655.91 1593.11 -2940.09 1593.11 -3072.67 c 0
 1593.11 -3123.46 1591.32 -3152 1588 -3152 c 4
 1564 -3152 1424 -2920 1268 -2640 c 4
EndSplineSet
Validated: 1
EndChar

StartChar: uni1B03
Encoding: 25 6915 25
Width: 0
VWidth: 0
GlyphClass: 4
Flags: W
HStem: 5566 96<-1416.32 -1091.01>
LayerCount: 2
Fore
SplineSet
-2112 5662 m 4
 -2916 5824 -4032 6499 -4596 6958 c 4
 -5050.2 7331.89 -5596.46 8452.34 -5602.17 8452.34 c 4
 -5602.63 8452.34 -5599.38 8444.59 -5592 8428 c 4
 -5472 8134 -5136 8254 -4944 7984 c 4
 -4452 7282 -3324 6202 -2160 5920 c 4
 -1848 5836 -1440 5716 -1260 5662 c 4
 -1086 5614 -999 5590 -999 5578 c 4
 -999 5566 -1086 5566 -1260 5566 c 4
 -1440 5566 -1824 5620 -2112 5662 c 4
EndSplineSet
Validated: 5
EndChar

StartChar: uni1B33_conj
Encoding: 26 -1 26
Width: 0
VWidth: 0
GlyphClass: 4
Flags: W
HStem: -4100.14 320.14<-4475.19 -3538.65> -398.882 365.199<-5493.46 -5203.76> -300 280.735<-2015.79 -1217.47>
VStem: -5961.29 273.29<-1981.22 -744.561> -5199.68 205.74<-2820.79 -399.295> -800 280<-4107.51 -934.619>
LayerCount: 2
Fore
SplineSet
-4792 -3964 m 0xbc
 -5272 -3764 -5144 -2684 -5196 -1620 c 0
 -5204.09 -1453.49 -5206.61 -1305.84 -5206.61 -1175.96 c 0
 -5206.61 -960.722 -5199.68 -794.279 -5199.68 -671.666 c 0
 -5199.68 -483.86 -5215.94 -398.882 -5298.23 -398.882 c 0
 -5322.16 -398.882 -5351.68 -406.068 -5388 -420 c 0
 -5516 -476 -5688 -1132 -5688 -1500 c 0
 -5688 -1809.14 -5728.11 -1994.87 -5794.78 -1994.87 c 0
 -5804.02 -1994.87 -5813.77 -1991.31 -5824 -1984 c 0
 -5917.24 -1927.02 -5961.29 -1722.45 -5961.29 -1468.76 c 0
 -5961.29 -1134.76 -5884.94 -715.614 -5744 -436 c 0
 -5609.68 -156.746 -5481.6 -33.6828 -5299.04 -33.6828 c 0xdc
 -5275.01 -33.6828 -5250.05 -35.8137 -5224 -40 c 0
 -5024.62 -70.4615 -4993.94 -114.343 -4993.94 -567.17 c 0
 -4993.94 -768.426 -5000 -1050.46 -5000 -1448 c 0
 -5000 -2976 -4800 -3780 -3956 -3780 c 0
 -3280 -3780 -2936 -2752 -2824 -1580 c 0
 -2740 -768 -2656 -544 -2368 -300 c 0
 -2139.75 -111.697 -1865.38 -19.2652 -1599.5 -19.2652 c 0
 -1306.24 -19.2652 -1023.3 -131.716 -824 -352 c 0
 -552 -660 -520 -844 -520 -2400 c 0
 -520 -3444 -572 -4108 -660 -4108 c 0
 -744 -4108 -800 -3532 -800 -2676 c 0
 -800 -1084 -924 -300 -1624 -300 c 0
 -2384 -300 -2248 -1196 -2668 -2936 c 0
 -2865.6 -3773.82 -3117.86 -4100.14 -3895.42 -4100.14 c 0
 -3904.87 -4100.14 -3914.39 -4100.1 -3924 -4100 c 0
 -4240 -4092 -4632 -4032 -4792 -3964 c 0xbc
EndSplineSet
Validated: 1
LCarets2: 1 0 
EndChar

StartChar: uni1B26_conj
Encoding: 27 -1 27
Width: 0
VWidth: 0
GlyphClass: 4
Flags: W
HStem: -2364 416.78<-1826.68 -1156> -1312.99 262.82<-6240.63 -4617.07>
VStem: -7644 346.26<-2777.11 -2012.48> -1412 357.05<-1713.85 -178.725>
LayerCount: 2
Fore
SplineSet
-4696 -6272 m 0
 -4696 -6220 -4580 -6068 -4444 -5932 c 0
 -4271.87 -5777.27 -4186.7 -5552.41 -4186.7 -5326.14 c 0
 -4186.7 -5084.44 -4283.87 -4841.14 -4476 -4680 c 0
 -4644 -4544 -5340 -4164 -6016 -3848 c 0
 -6992 -3384 -7288 -3176 -7488 -2784 c 0
 -7592 -2572 -7644 -2437 -7644 -2317.5 c 0
 -7644 -2198 -7592 -2094 -7488 -1944 c 0
 -7144 -1464 -6464 -1148 -5584 -1068 c 0
 -5456.9 -1056.88 -5343.06 -1050.17 -5232.19 -1050.17 c 0
 -4784.77 -1050.17 -4385.81 -1159.35 -3360 -1528 c 0
 -2549.67 -1810.82 -2059.95 -1947.22 -1826.68 -1947.22 c 0
 -1766.32 -1947.22 -1723.13 -1938.09 -1696 -1920 c 0
 -1600 -1852 -1472 -1404 -1412 -928 c 0
 -1356 -452 -1232 -64 -1132 -64 c 0
 -1078.23 -64 -1054.95 -213.704 -1054.95 -431.124 c 0
 -1054.95 -909.231 -1167.52 -1714.79 -1316 -1976 c 0
 -1388 -2104 -1344 -2144 -1168 -2100 c 0
 -1032 -2060 -720 -2004 -480 -1952 c 2
 -40 -1876 l 1
 -456 -2116 l 2
 -684 -2252 -1000 -2364 -1156 -2364 c 0
 -1360 -2364 -1644 -2728 -2124 -3576 c 0
 -2792 -4764 -4048 -6240 -4476 -6336 c 0
 -4505.63 -6342.13 -4534.48 -6345.13 -4561.01 -6345.13 c 0
 -4638.35 -6345.13 -4696 -6319.65 -4696 -6272 c 0
-1964 -2700 m 0
 -1950.96 -2661.92 -1945.2 -2632.89 -1945.2 -2610.56 c 0
 -1945.2 -2461.69 -2201.39 -2610.96 -2264 -2364 c 0
 -2312 -2156 -3340 -1792 -4160 -1560 c 0
 -4777.61 -1383.54 -5227.53 -1312.99 -5576.19 -1312.99 c 0
 -6223.36 -1312.99 -6521.67 -1556.05 -6896 -1816 c 0
 -7160.96 -1998.32 -7297.74 -2182.37 -7297.74 -2380.12 c 0
 -7297.74 -2785.42 -6723.19 -3248.31 -5500 -3872 c 0
 -4496 -4376 -4152 -4640 -3976 -5000 c 2
 -3756 -5460 l 1
 -2920 -4248 l 2
 -2460 -3576 -2032 -2880 -1964 -2700 c 0
EndSplineSet
Validated: 1
LCarets2: 1 0 
EndChar

StartChar: uni1B18_conj
Encoding: 28 -1 28
Width: 0
VWidth: 0
GlyphClass: 4
Flags: W
HStem: -4967.78 344.9<-4249.98 -2873.54> -4947.36 619.36<-8751.79 -7609.57> -908.962 527.314<-3330.94 -1390.76>
VStem: -5560 164<-1193 -400.615> -5396 108<-471.385 -243> -2004 327.7<-3593.59 -2057.52> -456 132<-4558.16 -3066.97> -324 32<-5032 -4077.84>
LayerCount: 2
Fore
SplineSet
-8764 -4556 m 0x7f
 -8764 -4260 -8284 -4412 -7860 -4328 c 0
 -6720 -4120 -6520 -2996 -6316 -1148 c 0
 -6245.14 -518.429 -6194.71 -245.396 -6136.86 -245.396 c 0
 -6109.81 -245.396 -6081.14 -305.111 -6048 -416 c 0
 -6001.86 -557.888 -5980.73 -754.523 -5980.73 -983.725 c 0
 -5980.73 -1807.75 -6253.85 -3052.71 -6620 -3688 c 0
 -7037.28 -4422.3 -7873.05 -4947.36 -8368.86 -4947.36 c 0
 -8604.98 -4947.36 -8764 -4828.27 -8764 -4556 c 0x7f
-4648 -4716 m 0
 -5240.1 -4363.94 -5637.57 -3130.96 -5637.57 -1855.1 c 0
 -5637.57 -1536.39 -5612.77 -1215 -5560 -904 c 2
 -5396 32 l 1
 -5288 -1468 l 2
 -5156 -3360 -4892 -4544 -3648 -4620 c 0
 -3614.86 -4621.93 -3582.22 -4622.88 -3550.09 -4622.88 c 0
 -2515.71 -4622.88 -2004 -3640.64 -2004 -2760 c 0
 -2004 -1916 -2008 -1248 -2996 -872 c 0
 -3536.73 -668.852 -3914.58 -688.828 -3914.58 -640.302 c 0
 -3914.58 -623.855 -3871.18 -599.539 -3776 -556 c 0
 -3522.59 -438.475 -3145.25 -381.648 -2748.87 -381.648 c 0
 -2281.83 -381.648 -1788.35 -460.542 -1440 -612 c 0
 -605.039 -978.01 -289.739 -1692.88 -289.739 -3272.72 c 0
 -289.739 -3350.37 -290.501 -3430.11 -292 -3512 c 2
 -324 -5032 l 1
 -456 -3604 l 2
 -600 -2100 -808 -1164 -1676 -972 c 0
 -1827.14 -937.649 -1969.79 -908.962 -2077.84 -908.962 c 0
 -2196.99 -908.962 -2274.06 -943.845 -2274.06 -1044.48 c 0
 -2274.06 -1118.26 -2232.64 -1227.38 -2136 -1384 c 0
 -1844.22 -1859.41 -1676.3 -2498.23 -1676.3 -3090.21 c 0
 -1676.3 -3658.76 -1831.19 -4184.1 -2180 -4480 c 0
 -2561.21 -4800.03 -3103.01 -4967.78 -3628.67 -4967.78 c 0xbf
 -3996.54 -4967.78 -4356.51 -4885.62 -4648 -4716 c 0
EndSplineSet
Validated: 1
LCarets2: 1 0 
EndChar

StartChar: uni1B2D_conj
Encoding: 29 -1 29
Width: 0
VWidth: 0
GlyphClass: 4
Flags: W
HStem: -5843.57 372.02<-6363.75 -3367.06>
VStem: -8916.64 451.1<-3997.29 -1338.02> -958.366 225.492<-2856.49 -222.279>
LayerCount: 2
Fore
SplineSet
-6728 -5688 m 0
 -7520 -5436 -8328 -4652 -8652 -4084 c 0
 -8827.77 -3761.03 -8916.64 -3300.48 -8916.64 -2789.2 c 0
 -8916.64 -2369.64 -8856.79 -1915.91 -8736 -1476 c 0
 -8603.77 -1028.12 -8441.97 -787.208 -8350.65 -787.208 c 0
 -8306.58 -787.208 -8278.93 -843.315 -8278.93 -959.345 c 0
 -8278.93 -1053.82 -8297.26 -1188.02 -8340 -1364 c 0
 -8426.86 -1722.11 -8465.54 -2163.24 -8465.54 -2593.61 c 0
 -8465.54 -3292.92 -8363.42 -3963.82 -8200 -4204 c 0
 -7611.46 -5064.33 -6230.53 -5471.55 -4859.37 -5471.55 c 0
 -3546.63 -5471.55 -2242.85 -5098.29 -1652 -4392 c 0
 -1223.82 -3868.3 -958.366 -2718.11 -958.366 -1676.15 c 0
 -958.366 -1452.71 -970.573 -1234.24 -996 -1028 c 0
 -1031.79 -741.668 -1049.79 -528.728 -1049.79 -374.256 c 0
 -1049.79 -114.403 -998.856 -20 -896 -20 c 0
 -782.216 -20 -732.874 -525.456 -732.874 -1186.31 c 0
 -732.874 -2291.07 -870.767 -3830.12 -1076 -4168 c 0
 -1680 -5176 -2704 -5752 -4804 -5832 c 0
 -5022.57 -5839.71 -5217.45 -5843.57 -5392.69 -5843.57 c 0
 -6035.22 -5843.57 -6413.71 -5791.71 -6728 -5688 c 0
EndSplineSet
Validated: 1
LCarets2: 1 0 
EndChar

StartChar: uni1B24_conj
Encoding: 31 -1 31
Width: 0
VWidth: 0
GlyphClass: 4
Flags: W
HStem: -4040.56 273.56<-6487.35 -6052.78> -3069.01 551.6<-5035.72 -2132.85>
VStem: -7493.01 339.02<-3068.84 -1676.32>
LayerCount: 2
Fore
SplineSet
-776 -4000 m 0
 -1316 -3380 -2216 -3088 -3544 -3072 c 0
 -3672.16 -3070.2 -3787.23 -3069.01 -3891.29 -3069.01 c 0
 -4712.79 -3069.01 -4847.81 -3143.31 -5320 -3580 c 0
 -5652.27 -3886.56 -5947.37 -4040.56 -6230.95 -4040.56 c 0
 -6520.89 -4040.56 -6798.78 -3879.56 -7092 -3556 c 0
 -7359 -3256.88 -7493.01 -2840.89 -7493.01 -2424.32 c 0
 -7493.01 -2010.87 -7361 -1596.86 -7096 -1296 c 0
 -6516 -660 -4972 -4 -4056 -4 c 0
 -3697.75 -4 -3530.66 -36.3799 -3530.66 -85.9072 c 0
 -3530.66 -161.907 -3924.1 -278.285 -4624 -380 c 0
 -5648 -524 -6704 -1116 -7008 -1704 c 0
 -7107.18 -1903.67 -7153.99 -2128.45 -7153.99 -2354.05 c 0
 -7153.99 -2819.93 -6954.35 -3289.28 -6604 -3548 c 0
 -6408 -3694 -6305 -3767 -6225.5 -3767 c 0
 -6146 -3767 -6090 -3694 -5988 -3548 c 0
 -5386.52 -2709.1 -4833.76 -2517.41 -4096.78 -2517.41 c 0
 -3716.3 -2517.41 -3286.73 -2568.5 -2776 -2608 c 0
 -1760 -2836 -340 -3404 -340 -3980 c 0
 -340 -4234.55 -341.02 -4360.54 -397.687 -4360.54 c 0
 -453.218 -4360.54 -562.186 -4239.55 -776 -4000 c 0
EndSplineSet
Validated: 1
LCarets2: 1 0 
EndChar

StartChar: uni1B22_conj
Encoding: 32 -1 32
Width: 0
VWidth: 0
GlyphClass: 4
Flags: W
HStem: -4626.8 398.96<-5368.74 -3484.69> -2828 484<-4205.02 -2756.91> -415.902 404.111<-7095.24 -6718.77 -3451.26 -1378.53>
VStem: -7724 352<-2087.48 -818.098> -6838.3 301.6<-3211.07 -1912.47> -4900 513.12<-2173.81 -997.646> -2728.28 452.28<-3622.92 -2926.53> -369.196 300.532<-4650.23 -1355.35>
LayerCount: 2
Fore
SplineSet
-6032 -4428 m 0
 -6577.54 -4097.72 -6838.3 -3641.36 -6838.3 -2957.93 c 0
 -6838.3 -2714.32 -6805.17 -2441.87 -6740 -2136 c 0
 -6672.21 -1815.86 -6641.65 -1447.85 -6641.65 -1137.15 c 0
 -6641.65 -787.887 -6680.26 -511.038 -6748 -456 c 0
 -6782.13 -428.509 -6816.93 -415.902 -6851.76 -415.902 c 0
 -7110.91 -415.902 -7372 -1113.62 -7372 -1572 c 0
 -7372 -1808 -7456 -2044 -7552 -2092 c 0
 -7558.95 -2096.23 -7565.84 -2098.29 -7572.62 -2098.29 c 0
 -7655.64 -2098.29 -7724 -1789.84 -7724 -1372 c 0
 -7724 -562.828 -7305.86 -11.7913 -6835.72 -11.7913 c 0
 -6662.09 -11.7913 -6481.37 -86.9434 -6312 -252 c 0
 -6214 -352 -6165 -469 -6165 -669 c 0
 -6165 -869 -6214 -1152 -6312 -1584 c 0
 -6439.74 -2139.9 -6536.7 -2490.16 -6536.7 -2757.22 c 0
 -6536.7 -2941.73 -6490.41 -3086.53 -6376 -3232 c 0
 -5964 -3744 -5748 -4100 -4388 -4208 c 0
 -4317.79 -4221.53 -4247.16 -4227.84 -4176.73 -4227.84 c 0
 -3441.9 -4227.84 -2728.28 -3540.16 -2728.28 -3177.34 c 0
 -2728.28 -3143.04 -2734.66 -3111.64 -2748 -3084 c 0
 -2820 -2928 -3116 -2828 -3548 -2828 c 0
 -4404 -2828 -4900 -2400 -4900 -1640 c 0
 -4900 -764 -4004 -140 -2604 -48 c 0
 -2376.6 -32.2856 -2179.33 -22.5525 -2002.69 -22.5525 c 0
 -1414.99 -22.5525 -1055.8 -130.303 -576 -484 c 2
 -148 -976 l 1
 -80 -2812 l 2
 -72.34 -3033.29 -68.6642 -3243.89 -68.6642 -3438.34 c 0
 -68.6642 -4157.75 -118.98 -4656 -204 -4656 c 0
 -293.561 -4656 -369.196 -4220.83 -369.196 -3659.03 c 0
 -369.196 -3618.63 -368.805 -3577.59 -368 -3536 c 0
 -364.631 -3281.33 -361.036 -3041.65 -361.036 -2817.55 c 0
 -361.036 -1711.14 -448.68 -984.755 -1084 -712 c 0
 -1370.89 -589.988 -1910.61 -493.123 -2471.47 -493.123 c 0
 -3271.26 -493.123 -4114.04 -690.095 -4328 -1292 c 0
 -4365.86 -1401.87 -4386.88 -1517.08 -4386.88 -1629.29 c 0
 -4386.88 -2003.22 -4153.49 -2344 -3532 -2344 c 0
 -3331.49 -2344 -3160.54 -2339.52 -3015.43 -2339.52 c 0
 -2448.44 -2339.52 -2276 -2407.98 -2276 -3080 c 0
 -2276 -4072 -2924 -4536 -4444 -4612 c 0
 -4626.02 -4621.77 -4790.51 -4626.8 -4939.59 -4626.8 c 0
 -5462.11 -4626.8 -5795.48 -4564.93 -6032 -4428 c 0
EndSplineSet
Validated: 1
LCarets2: 1 0 
EndChar

StartChar: uni1B2F_conj
Encoding: 33 -1 33
Width: 0
VWidth: 0
GlyphClass: 4
Flags: W
HStem: -6274.11 373.69<-5081.22 -2951.87>
VStem: -7088.5 360.5<-4397.79 -2947.38> -1096 200<-2821.56 -951.592> -896 28<-752.408 -8>
LayerCount: 2
Fore
SplineSet
-5208 -6156 m 4
 -5940 -5936 -6416 -5572 -6788 -4944 c 4
 -6988.5 -4613.17 -7088.5 -4193.9 -7088.5 -3792.48 c 0
 -7088.5 -3393.08 -6989.5 -3011.35 -6792 -2752 c 4
 -6428 -2260 -6024 -2056 -4656 -1640 c 4
 -4048 -1456 -3344 -1188 -3092 -1036 c 4
 -2884.1 -918.493 -2764.29 -862.263 -2699.39 -862.263 c 0
 -2649.41 -862.263 -2632 -895.611 -2632 -960 c 4
 -2632 -1224 -3100 -1260 -4560 -1872 c 4
 -6264 -2372 -6728 -2628 -6728 -3556 c 4
 -6728 -4720 -5752 -5812 -4220 -5896 c 4
 -4159.32 -5898.97 -4099.34 -5900.42 -4040.08 -5900.42 c 0
 -2982.01 -5900.42 -2152.42 -5437.87 -1660 -4900 c 5
 -1376 -3932 -1208 -3500 -1096 -1696 c 6
 -896 -8 l 5
 -868 -1940 l 6
 -866.996 -2047.27 -866.475 -2151.08 -866.475 -2251.6 c 0
 -866.475 -4152.77 -1052.54 -4875.34 -1668 -5468 c 4
 -2180.25 -5956.43 -3302.31 -6274.11 -4281.3 -6274.11 c 0
 -4617.17 -6274.11 -4936.21 -6236.72 -5208 -6156 c 4
EndSplineSet
Validated: 1
LCarets2: 1 0 
EndChar

StartChar: uni1B2B_conj
Encoding: 35 -1 34
Width: 0
VWidth: 0
GlyphClass: 4
Flags: W
HStem: -3980.31 185.77<-2490.75 -1115.36> -240.288 207.393<-4317.45 -3016.48>
VStem: -5829.32 133.16<-2201.77 -1572.55> -2092.56 294.08<-1493.41 -749.294>
LayerCount: 2
Fore
SplineSet
-3912 -3816 m 0
 -5020 -3472 -5724 -2820 -5804 -2060 c 0
 -5820.33 -1926.94 -5829.32 -1810.2 -5829.32 -1704.8 c 0
 -5829.32 -1293.71 -5692.49 -1054.94 -5320 -692 c 0
 -4869.85 -262.192 -4222.42 -32.895 -3564.83 -32.895 c 0
 -3188.16 -32.895 -2808.17 -108.127 -2460 -264 c 0
 -2031.45 -454.465 -1798.48 -854.564 -1798.48 -1181.67 c 0
 -1798.48 -1459.09 -1966.05 -1684 -2324 -1684 c 0
 -2388 -1684 -2408 -1652 -2264 -1520 c 0
 -2147.58 -1415.77 -2092.56 -1280.84 -2092.56 -1140.49 c 0
 -2092.56 -866.122 -2302.87 -571.024 -2676 -444 c 0
 -3032.56 -320.467 -3403.9 -240.288 -3764.6 -240.288 c 0
 -4431.71 -240.288 -5062.43 -514.538 -5496 -1296 c 0
 -5622.6 -1520.32 -5696.16 -1700.24 -5696.16 -1889.18 c 0
 -5696.16 -2040.52 -5648.96 -2197.64 -5544 -2388 c 0
 -5164 -3084 -4612 -3500 -1892 -3784 c 0
 -1743.39 -3791.48 -1613.13 -3794.54 -1499.37 -3794.54 c 0
 -993.894 -3794.54 -813.966 -3734.23 -795.423 -3734.23 c 0
 -794.324 -3734.23 -793.792 -3734.44 -793.792 -3734.89 c 0
 -793.792 -3737.92 -818.023 -3751.72 -856 -3784 c 0
 -999.752 -3915.25 -1612.27 -3980.31 -2275.89 -3980.31 c 0
 -2886.4 -3980.31 -3540.17 -3925.25 -3912 -3816 c 0
EndSplineSet
Validated: 1
LCarets2: 1 0 
EndChar

StartChar: uni1B2E_conj
Encoding: 34 -1 35
Width: 0
VWidth: 0
GlyphClass: 4
Flags: W
HStem: -5105.95 745.19<-6865.53 -6447.32> -5073.55 400.27<-3108.7 -1697.55> -548.747 434.326<-7719.96 -7236.94 -5574.84 -4641.86>
VStem: -8147.94 294.23<-2321.74 -732.417> -7980 131.86<-2504.16 -2201.48> -7238.95 286.15<-4308.94 -1560.55> -7153.65 307.48<-3568.05 -631.977> -7148 928<-4999.2 -4373.5> -6320 220<-4020.88 -1908.52>
LayerCount: 2
Fore
SplineSet
-7148 -4644 m 4xa1
 -7208.63 -4487.37 -7238.95 -4094.59 -7238.95 -3615.82 c 0xa4
 -7238.95 -3336.54 -7228.63 -3028 -7208 -2720 c 4
 -7173.66 -2259.24 -7153.65 -1865.54 -7153.65 -1545.49 c 0
 -7153.65 -970.873 -7218.15 -633.658 -7380 -572 c 4
 -7417.98 -556.271 -7453.16 -548.747 -7485.72 -548.747 c 0
 -7769 -548.747 -7853.71 -1118.26 -7853.71 -1808.77 c 0xb2
 -7853.71 -1866.42 -7853.11 -1924.92 -7852 -1984 c 4
 -7849.47 -2073.29 -7848.14 -2150.85 -7848.14 -2217.1 c 0
 -7848.14 -2423.54 -7861.05 -2520.27 -7890.71 -2520.27 c 0
 -7911.66 -2520.27 -7940.97 -2471.99 -7980 -2380 c 4xa8
 -8097.1 -2090.53 -8147.94 -1781.54 -8147.94 -1487.81 c 0
 -8147.94 -753.425 -7830.13 -114.421 -7435.42 -114.421 c 0
 -7313.89 -114.421 -7185.08 -174.992 -7056 -312 c 4
 -6910.19 -462.929 -6846.17 -644.942 -6846.17 -1154.13 c 0xb2
 -6846.17 -1441.14 -6866.51 -1832.09 -6904 -2380 c 4
 -6936.67 -2878.98 -6952.8 -3259.96 -6952.8 -3546.91 c 0
 -6952.8 -4032.87 -6906.54 -4249.13 -6816 -4312 c 4
 -6765.45 -4344.33 -6719.05 -4360.76 -6676.67 -4360.76 c 0xa4
 -6430.61 -4360.76 -6320 -3806.77 -6320 -2592 c 4
 -6313.02 -828.588 -5989 -98.5664 -5137.73 -98.5664 c 0
 -5013.87 -98.5664 -4878.84 -114.022 -4732 -144 c 4
 -4168 -256 -3820 -1060 -3820 -2264 c 4
 -3820 -3444 -3528 -4636 -2584 -4664 c 4
 -2510.47 -4670.26 -2441.31 -4673.28 -2376.24 -4673.28 c 0
 -1485.5 -4673.28 -1359.01 -4107.69 -1236 -3556 c 4
 -1116 -3036 -1068 -2788 -988 -1752 c 4
 -936 -964 -924 8 -800 8 c 4
 -718.294 8 -681.344 -342.832 -681.344 -861.479 c 0
 -681.344 -1206.12 -697.659 -1624.86 -728 -2064 c 4
 -900.232 -4299.43 -1281.68 -5073.55 -2331.44 -5073.55 c 0
 -2451.93 -5073.55 -2581.21 -5063.36 -2720 -5044 c 4
 -3648 -4916 -3916 -4496 -4060 -2960 c 4
 -4188 -1580 -4488 -500 -5088 -500 c 4
 -5800 -500 -6064 -1664 -6100 -3220 c 4x6480
 -6124 -4000 -6172 -4748 -6220 -4868 c 4
 -6279.15 -5031.06 -6411.13 -5105.95 -6559.52 -5105.95 c 0
 -6782.42 -5105.95 -7042.34 -4936.97 -7148 -4644 c 4xa1
EndSplineSet
Validated: 1
LCarets2: 1 0 
EndChar

StartChar: uni1B15_conj
Encoding: 36 -1 36
Width: 0
VWidth: 0
GlyphClass: 4
Flags: W
HStem: -5000 398.26<-5931.59 -5453.43> -428 457.787<-7430.31 -6795.04 -4149.39 -1916.14>
VStem: -8117.55 337.55<-2179.15 -1045.86> -6967.79 281.41<-3822.51 -1796.17> -6916.45 434.26<-3228.4 -430.313> -6121.8 341.21<-3671.03 -2400.03> -748 428<-4999.53 -1754.76>
LayerCount: 2
Fore
SplineSet
-6480 -4520 m 0xf6
 -6845.96 -4129.64 -6967.79 -3843.91 -6967.79 -3013.98 c 0xf6
 -6967.79 -2755.37 -6955.96 -2443.92 -6936 -2060 c 0
 -6924.6 -1827.52 -6916.45 -1595.04 -6916.45 -1381.43 c 0
 -6916.45 -845.274 -6967.8 -428 -7148 -428 c 0
 -7500 -428 -7780 -1400 -7780 -1976 c 0
 -7780 -2167.24 -7814.37 -2256.8 -7862.81 -2256.8 c 0
 -7928.87 -2256.8 -8021.08 -2090.3 -8088 -1788 c 0
 -8108.15 -1700.86 -8117.55 -1607.27 -8117.55 -1510.27 c 0
 -8117.55 -894.832 -7739.19 -142.028 -7328 -28 c 0
 -7187.82 8.82261 -7067.04 29.7867 -6964.23 29.7867 c 0
 -6625.84 29.7867 -6482.19 -197.346 -6482.19 -833.687 c 0xee
 -6482.19 -1201.06 -6530.07 -1704.82 -6616 -2380 c 0
 -6660.52 -2755.02 -6686.38 -3027.22 -6686.38 -3238.34 c 0
 -6686.38 -3653.22 -6586.5 -3832.2 -6332 -4092 c 0
 -5938.89 -4439.61 -5652.6 -4601.74 -5525.87 -4601.74 c 0
 -5478.48 -4601.74 -5453.41 -4579.06 -5453.41 -4534.93 c 0
 -5453.41 -4437.72 -5575.1 -4236.39 -5848 -3944 c 0
 -6038.75 -3736.42 -6121.8 -3394.58 -6121.8 -3011.76 c 0
 -6121.8 -2302.84 -5836.99 -1453.41 -5424 -1056 c 0
 -4696.22 -349.622 -4340.71 3.56757 -3313.14 3.56757 c 0
 -3188.59 3.56757 -3054.16 -1.62162 -2908 -12 c 0
 -952 -168 -320 -1012 -320 -3460 c 0
 -320 -4360 -408 -5000 -536 -5000 c 0
 -656 -5000 -748 -4392 -748 -3540 c 0
 -748 -2168 -832 -2016 -1100 -1352 c 0
 -1376 -692 -2156 -452 -3152 -452 c 0
 -4588 -452 -5328 -1464 -5656 -2504 c 0
 -5735.42 -2749.75 -5780.59 -2927.57 -5780.59 -3095.3 c 0
 -5780.59 -3375.31 -5654.69 -3627.19 -5352 -4120 c 2
 -4812 -5000 l 1
 -5424 -5000 l 2
 -5836 -5000 -6192 -4836 -6480 -4520 c 0xf6
EndSplineSet
Validated: 1
LCarets2: 1 0 
EndChar

StartChar: uni1B29_conj
Encoding: 37 -1 37
Width: 0
VWidth: 0
GlyphClass: 4
Flags: W
HStem: -5044 532<-6876 -6424> -5033.73 709.73<-963.017 -563.531> -344.914 360.102<-8047.45 -7798.11 -5696.12 -4976.91 -3107.07 -1983.06>
VStem: -8608 328<-2155.29 -706.228> -7763.03 328.91<-3799.66 -374.742> -6925.71 287.19<-3599.18 -1579.25> -516 328<-4274.61 -1880.66>
LayerCount: 2
Fore
SplineSet
-7148 -4864 m 0xbe
 -7529.94 -4623.92 -7763.03 -3745.42 -7763.03 -2607.51 c 0
 -7763.03 -2494.13 -7760.71 -2378.16 -7756 -2260 c 0
 -7747.25 -2083.96 -7743.29 -1868.17 -7743.29 -1646.13 c 0
 -7743.29 -1055.87 -7771.31 -421.412 -7812 -372 c 0
 -7834.12 -348.214 -7856.71 -337.227 -7879.45 -337.227 c 0
 -8074.63 -337.227 -8280 -1147.08 -8280 -1620 c 0
 -8280 -1912 -8352 -2156 -8440 -2156 c 0
 -8528 -2156 -8608 -1788 -8608 -1348 c 0
 -8608 -507.014 -8312.9 -2.30054 -7833.94 -2.30054 c 0
 -7795.78 -2.30054 -7756.44 -5.50528 -7716 -12 c 0
 -7471.56 -50.753 -7398.18 -109.5 -7398.18 -787.582 c 0
 -7398.18 -1019.37 -7406.75 -1323.53 -7420 -1724 c 0
 -7429.29 -1990.82 -7434.12 -2225.01 -7434.12 -2432.54 c 0
 -7434.12 -3208.14 -7366.63 -3611.19 -7212 -3952 c 0
 -7068 -4256 -6912 -4512 -6876 -4512 c 0xbe
 -6858.18 -4512 -6850.2 -4420.84 -6850.2 -4266.66 c 0
 -6850.2 -4040.08 -6867.44 -3677.41 -6896 -3268 c 0
 -6916.27 -3032.35 -6925.71 -2796.7 -6925.71 -2572.37 c 0
 -6925.71 -2088.42 -6881.79 -1657.11 -6808 -1392 c 0
 -6533.39 -483.868 -5964.31 15.1882 -5398.64 15.1882 c 0
 -5024.98 15.1882 -4652.82 -202.563 -4368 -664 c 2
 -4004 -1268 l 1
 -3792 -848 l 2
 -3504 -240 -3140 12 -2556 16 c 0
 -2547.26 16.1304 -2538.56 16.1957 -2529.9 16.1957 c 0
 -1476.53 16.1957 -1023.87 -950.457 -1008 -3196 c 0
 -1008 -4080 -960 -4324 -764 -4324 c 0
 -568 -4324 -516 -4080 -516 -3160 c 0
 -516 -2516 -444 -1944 -352 -1880 c 0
 -344.238 -1875.01 -336.763 -1872.54 -329.575 -1872.54 c 0
 -233.042 -1872.54 -188 -2318.5 -188 -3104 c 0
 -188 -4378.39 -368.788 -5033.73 -719.031 -5033.73 c 0x7e
 -792.028 -5033.73 -872.385 -5005.26 -960 -4948 c 0
 -1188 -4784 -1276 -4428 -1348 -3264 c 0
 -1448 -1472 -1536 -292 -2632 -292 c 0
 -3200 -292 -3588 -1248 -3792 -1540 c 2
 -4088 -1920 l 1
 -4696 -780 l 1
 -4958.51 -528.662 -5133.5 -344.914 -5335.51 -344.914 c 0
 -5567.52 -344.914 -5835.17 -587.286 -6312 -1248 c 0
 -6551.56 -1580.41 -6638.52 -1939.55 -6638.52 -2367.44 c 0
 -6638.52 -2861.21 -6522.72 -3446.54 -6392 -4188 c 1
 -5988 -4928 -5956 -4736 -5736 -5004 c 1
 -6424 -5044 l 2
 -6668 -5044 -6992 -4960 -7148 -4864 c 0xbe
EndSplineSet
Validated: 1
LCarets2: 1 0 
EndChar

StartChar: uni1B27_conj
Encoding: 39 -1 39
Width: 5384
VWidth: 0
GlyphClass: 4
Flags: W
HStem: 124.382 521.066<1059.85 3401.7> 4728 480.75<3657.7 4112.81>
VStem: 3613 363.5<4485.74 5154.25> 4023.96 232.69<1367.57 3445.08> 4820 160<696.205 2340.59> 4980 32<-20 859.795>
LayerCount: 2
Fore
SplineSet
1204 288 m 0
 708 540 92 1300 92 1664 c 0
 92 1716.27 92.4065 1739.14 97.4334 1739.14 c 0
 119.721 1739.14 232.83 1289.65 804 960 c 0
 1185.75 747.063 1752.43 645.448 2293.12 645.448 c 0
 2879.83 645.448 3435.96 765.1 3692 992 c 0
 3920.75 1201.07 4023.96 1641.54 4023.96 2331.09 c 0
 4023.96 2762.92 3983.48 3292.45 3908 3924 c 0
 3834.43 4524.44 3613 4978.44 3613 5142.29 c 0
 3613 5185.71 3628.55 5208.75 3666.51 5208.75 c 0
 3726.75 5208.75 3843.43 5150.73 4044 5024 c 0
 4522.52 4721.98 5012.58 3627.66 5012.58 1861.73 c 0
 5012.58 1826.75 5012.39 1791.51 5012 1756 c 2
 4980 -20 l 1
 4820 1576 l 2
 4704 3284 4316 4728 4012 4728 c 0
 3986.95 4728 3976.5 4687.15 3976.5 4615.63 c 0
 3976.5 4287.4 4196.59 3313.16 4236 2676 c 0
 4249.55 2483.73 4256.65 2305.35 4256.65 2139.9 c 0
 4256.65 790.888 3784.5 301.647 2484 152 c 0
 2326.95 133.524 2178.91 124.382 2040.53 124.382 c 0
 1699.6 124.382 1417.39 179.881 1204 288 c 0
EndSplineSet
Validated: 1
LCarets2: 1 0 
EndChar

StartChar: uni1B2C_conj
Encoding: 41 -1 40
Width: 2180
VWidth: 0
GlyphClass: 4
Flags: W
HStem: -5365.63 444.16<-4455.05 -462.906>
VStem: -6189.49 357.49<-4009.5 -3034.09> -996 226.258<-713.028 -339.058> 420.357 296.712<4011.13 4703.41> 800 456.65<-1099.78 3580.09> 1742.52 295.14<-4174.56 4343.96>
LayerCount: 2
Fore
SplineSet
-4032 -5280 m 4
 -5240 -5084 -5792 -4772 -6096 -4100 c 4
 -6159.36 -3964.91 -6189.49 -3812.31 -6189.49 -3654.7 c 0
 -6189.49 -3284.96 -6023.67 -2887.62 -5732 -2624 c 4
 -5552 -2468 -4756 -2184 -3556 -1844 c 4
 -2088 -1436 -1580 -1240 -1324 -996 c 4
 -1144 -820 -996 -604 -996 -508 c 4
 -996 -416 -928 -332 -844 -332 c 4
 -792.532 -332 -769.742 -364.182 -769.742 -417.227 c 0
 -769.742 -590.921 -1014.09 -988.312 -1296 -1212 c 4
 -1464 -1340 -2280 -1644 -3120 -1892 c 4
 -5197.46 -2502.08 -5832.02 -2881.61 -5832.02 -3525.91 c 0
 -5832 -3532 l 4
 -5832 -4298.78 -4646.84 -4921.47 -2679.91 -4921.47 c 0
 -2574.18 -4921.47 -2466.19 -4919.67 -2356 -4916 c 4
 -728 -4860 -88 -4708 500 -4168 c 4
 872 -3828 720 -3384 800 -824 c 4
 793.907 -449.877 792.083 -87.5421 792.083 259.315 c 0
 792.083 776.495 796.137 1259.26 796.137 1695.39 c 0
 796.137 2886.91 765.876 3730.27 540 3976 c 4
 455.223 4069.25 420.357 4179.81 420.357 4295.66 c 0
 420.357 4671.74 787.822 5103.55 1008 5180 c 4
 1116.1 5216.41 1206.32 5232.58 1282.26 5232.58 c 0
 1748.64 5232.58 1676.41 4622.63 1900 4344 c 4
 2009.21 4215.63 2037.66 3486.15 2037.66 2432.93 c 0
 2037.66 1287.32 2004 -241.311 2004 -1796 c 4
 2004 -4076 1952 -5316 1836 -5316 c 4
 1736 -5316 1672 -4096 1672 -1852 c 4
 1672 -365.485 1742.52 1193.51 1742.52 2450.32 c 0
 1742.52 3733.32 1669.03 4701.4 1372 4956 c 5
 1150.09 4789.57 717.069 4782.78 717.069 4443.03 c 0
 717.069 4268.35 831.533 4005.66 1148 3588 c 5
 1224.46 3430.98 1256.65 2515.22 1256.65 1360.76 c 0
 1256.65 -866.88 1136.81 -3983.27 984 -4252 c 4
 744 -4672 224 -5016 -416 -5176 c 4
 -903.026 -5296.53 -1821.13 -5365.63 -2663.4 -5365.63 c 0
 -3190.83 -5365.63 -3688.52 -5338.53 -4032 -5280 c 4
EndSplineSet
Validated: 1
LCarets2: 1 0 
EndChar

StartChar: uni1B1C_conj
Encoding: 42 -1 41
Width: 1096
VWidth: 0
GlyphClass: 4
Flags: W
HStem: -4732.05 252.05<-111.587 1302.69> -4668 514.95<-9783 -9463.76 -3748.79 -3399.73> -392.64 452.64<-10903.9 -10574 -8312.36 -7363.53 -1109.51 817.137>
VStem: -11461.3 329.3<-2037.46 -798.74> -10428 213.3<-3533.9 -1018.15> -3828.65 502.42<-3632.2 -1285.01> 2453.03 327.42<-3371.98 -2157.16>
LayerCount: 2
Fore
SplineSet
272 -4708 m 0xbe
 -5.44027 -4663.05 -129.732 -4618.7 -129.732 -4581.24 c 0
 -129.732 -4522.02 180.839 -4480 688 -4480 c 0xbe
 1810.99 -4480 2453.03 -3685.68 2453.03 -2858.11 c 0
 2453.03 -2459.43 2304.02 -2053.02 1988 -1724 c 0
 1240.9 -899.227 876.808 -385.654 -141.416 -385.654 c 0
 -224.411 -385.654 -311.752 -389.066 -404 -396 c 0
 -1616 -496 -2064 -1652 -2492 -3012 c 0
 -2828 -4060 -3436 -4668 -4148 -4668 c 2
 -4572 -4668 l 1
 -4200 -4188 l 2
 -3938.26 -3851.06 -3828.65 -3325.39 -3828.65 -2767.48 c 0
 -3828.65 -1782.18 -4170.51 -696.345 -4620 -372 c 0
 -4689.71 -322.923 -4759.73 -301.138 -4829.9 -301.138 c 0
 -5263.03 -301.138 -5701.81 -1131.12 -6108 -1496 c 2
 -6524 -1856 l 1
 -7364 -592 l 1
 -7520.02 -452.845 -7674.27 -392.64 -7823.62 -392.64 c 0
 -8382.64 -392.64 -8873.16 -1236.07 -9132 -1940 c 0
 -9281.84 -2339.58 -9402.21 -2618.9 -9402.21 -2931.59 c 0
 -9402.21 -3194.85 -9316.89 -3481.76 -9092 -3884 c 2
 -8656 -4668 l 1
 -9108 -4668 l 2
 -9348 -4668 -9744 -4480 -9992 -4252 c 0
 -10380 -3884 -10428 -3696 -10428 -2492 c 0
 -10428 -1684 -10536 -468 -10652 -400 c 0
 -10669 -389.561 -10686 -384.612 -10702.8 -384.612 c 0
 -10930.8 -384.612 -11132 -1294.61 -11132 -1764 c 0
 -11135.2 -1957 -11183.4 -2062.41 -11264.8 -2062.41 c 0
 -11286.3 -2062.41 -11310.1 -2055.05 -11336 -2040 c 0
 -11423.1 -1988.04 -11461.3 -1788.14 -11461.3 -1535.53 c 0
 -11461.3 -1068.68 -11330.7 -421.813 -11136 -196 c 0
 -10993.2 -33.3687 -10807.2 45.181 -10633.6 45.181 c 0
 -10422.9 45.181 -10230.6 -70.5084 -10156 -292 c 0
 -10123.5 -389.631 -10107.4 -612.778 -10107.4 -899.617 c 0
 -10107.4 -1212.13 -10126.5 -1600.24 -10164 -1984 c 0
 -10196.8 -2360.3 -10214.7 -2644.38 -10214.7 -2868.91 c 0
 -10214.7 -3300.74 -10148.6 -3512.31 -9996 -3736 c 0
 -9804.06 -4015 -9636.6 -4153.05 -9542.99 -4153.05 c 0x7e
 -9492.71 -4153.05 -9463.74 -4113.21 -9463.74 -4033.99 c 0
 -9463.74 -3962.57 -9487.29 -3859.13 -9540 -3724 c 0
 -9654.14 -3445.78 -9709.44 -3015.68 -9709.44 -2565.59 c 0
 -9709.44 -2006.21 -9624.02 -1415.95 -9460 -1048 c 0
 -9188 -432 -8416 60 -7692 60 c 0
 -7212 60 -6976 -516 -6696 -956 c 0
 -6601.92 -1106.85 -6569.02 -1176.13 -6542.07 -1176.13 c 0
 -6502.56 -1176.13 -6475.86 -1027.2 -6288 -768 c 0
 -5915.5 -240.02 -5419.72 33.5278 -4877.12 33.5278 c 0
 -4749.67 33.5278 -4619.63 18.4344 -4488 -12 c 0
 -3806.02 -173.299 -3326.23 -1359.59 -3326.23 -2447.77 c 0
 -3326.23 -2897.77 -3408.28 -3330.98 -3592 -3668 c 0
 -3696.96 -3858.83 -3748.81 -3994.66 -3748.81 -4073.22 c 0
 -3748.81 -4126.39 -3725.05 -4153.33 -3677.93 -4153.33 c 0
 -3619.56 -4153.33 -3525.33 -4112 -3396 -4028 c 0
 -3088 -3844 -2856 -3324 -2612 -2304 c 0
 -2288 -996 -2004 -540 -1308 -220 c 0
 -867.003 -22.3118 -417.784 70.8017 13.999 70.8017 c 0
 1285.86 70.8017 2406.45 -737.107 2720 -2060 c 0
 2760.99 -2232.25 2780.45 -2402.91 2780.45 -2569.72 c 0
 2780.45 -3746.73 1811.59 -4732.05 601.007 -4732.05 c 0
 493.087 -4732.05 383.246 -4724.22 272 -4708 c 0xbe
EndSplineSet
Validated: 1
LCarets2: 1 0 
EndChar

StartChar: uni1B1A_conj
Encoding: 40 -1 42
Width: 0
VWidth: 0
GlyphClass: 4
Flags: W
HStem: -5143.32 381.26<-6474.74 -3973.34> -2532 372<-5196.67 -1992.47> -304 259.948<-4710.66 -3678.13>
VStem: -8508 362.1<-3338.09 -2571.46> -468 399.9<-5135.43 -4084.38>
LayerCount: 2
Fore
SplineSet
-6808 -4884 m 0
 -7708 -4544 -8508 -3640 -8508 -2960 c 0
 -8508 -1668 -6632 -288 -4644 -108 c 0
 -4146.44 -66.4215 -3789.11 -44.0516 -3588.81 -44.0516 c 0
 -3465.14 -44.0516 -3401.32 -52.5788 -3401.32 -70.3773 c 0
 -3401.32 -106.951 -3670.78 -182.673 -4244 -304 c 0
 -5468 -560 -6896 -1332 -7556 -1932 c 0
 -7786.42 -2139.38 -8145.9 -2778.16 -8145.9 -3165.11 c 0
 -8145.9 -3181.19 -8145.28 -3196.84 -8144 -3212 c 1
 -7588 -4096 -7100 -4620 -5428 -4740 c 0
 -5223.28 -4754.74 -5031.78 -4762.06 -4853.57 -4762.06 c 0
 -3677.3 -4762.06 -3080 -4442.85 -3080 -3828 c 0
 -3080 -3212 -3268 -2532 -4512 -2532 c 0
 -5013.62 -2532 -5826.41 -2723.49 -6036.92 -2723.49 c 0
 -6069.81 -2723.49 -6088 -2718.81 -6088 -2708 c 0
 -6088 -2468 -4612 -2160 -3456 -2160 c 0
 -1968 -2160 -1084 -2580 -516 -3552 c 0
 -227.405 -4057.66 -68.0999 -4542.02 -68.0999 -4839.07 c 0
 -68.0999 -5023.73 -129.663 -5136 -260 -5136 c 0
 -376 -5136 -468 -4940 -468 -4688 c 0
 -468 -3972 -1000 -3012 -1696 -2800 c 0
 -2145.79 -2664.42 -2271.22 -2593.09 -2306.11 -2593.09 c 0
 -2318.69 -2593.09 -2319.5 -2602.36 -2319.5 -2621.24 c 0
 -2319.48 -2630.24 l 0
 -2319.48 -2696.17 -2326.94 -2850.99 -2648 -3104 c 1
 -2661.82 -3094.69 -2674.6 -3090.32 -2686.43 -3090.32 c 0
 -2832.09 -3090.32 -2833.2 -3753.33 -2848 -4016 c 0
 -2895.77 -4693.15 -4056.68 -5143.32 -5286.8 -5143.32 c 0
 -5807.9 -5143.32 -6341.42 -5062.54 -6808 -4884 c 0
EndSplineSet
Validated: 1
LCarets2: 1 0 
EndChar

StartChar: uni1B44
Encoding: 43 6980 43
Width: 1796
VWidth: 0
GlyphClass: 4
Flags: W
HStem: 7418.38 321.74<-996.454 176.852>
VStem: -1957.16 143.16<5447.9 6213.39> 594.857 364.893<-618.955 2430.63> 1073.47 126.45<4333.39 6031.01>
LayerCount: 2
Fore
SplineSet
1584 -3084 m 1
 870 -2168 862 -1294 600 842 c 0
 596.492 871.098 594.857 906.031 594.857 946.089 c 0
 594.857 1294.24 718.318 2029.53 808 2686 c 0
 990.159 3999.79 1073.47 4791.32 1073.47 5341.72 c 0
 1073.47 5673.61 1043.18 5917.82 986 6136 c 0
 810.309 6809.81 314.052 7418.38 -396.62 7418.38 c 0
 -422.138 7418.38 -447.933 7417.59 -474 7416 c 0
 -878 7392 -1176 7180 -1456 6904 c 0
 -1712 6652 -1814 5958 -1814 5552 c 0
 -1814 5382 -1884 5360 -1928 5518 c 0
 -1947.91 5593.5 -1957.16 5754.03 -1957.16 5930.17 c 0
 -1957.16 6178.62 -1938.77 6458.14 -1906 6574 c 0
 -1818 6872 -1578 7246 -1356 7424 c 0
 -1087.36 7641.66 -768.737 7740.12 -339.812 7740.12 c 0
 -314 7740 l 0
 448 7734 882 7378 1122 6566 c 0
 1174.14 6391.29 1199.92 6042.54 1199.92 5574.86 c 0
 1199.92 5019.98 1163.63 4297.68 1092 3500 c 0
 1003.83 2513.88 959.75 1602.6 959.75 804.68 c 0
 959.75 -62.623 1011.83 -796 1116 -1346 c 0
 1214 -1858 1474 -2564 1698 -2920 c 0
 1783.53 -3055.49 1826.75 -3142.22 1826.75 -3181.7 c 0
 1826.75 -3198.31 1819.1 -3206.56 1803.73 -3206.56 c 0
 1769.36 -3206.56 1696.37 -3165.29 1584 -3084 c 1
EndSplineSet
Validated: 1
EndChar

StartChar: uni1B2C_doubleconj
Encoding: 45 -1 45
Width: 2208
VWidth: 0
GlyphClass: 4
Flags: W
HStem: -7424 390.94<-5085.33 -1748.79>
VStem: -5887.47 511.47<-6886.11 -6041.38> -456 346.934<-4918.39 -4620.12> 420.357 296.712<4011.13 4703.41> 515.777 459.334<-6331 -2040.17> 800 425.04<-271.853 3582.36> 1742.52 295.14<-4174.56 4343.96>
LayerCount: 2
Fore
SplineSet
-4224 -7424 m 0xea
 -4264 -7424 -5162 -7318 -5776 -6908 c 0
 -5867.65 -6847.65 -5887.47 -6739.82 -5887.47 -6601.98 c 0
 -5887.47 -6496.92 -5875.96 -6374.42 -5875.96 -6242.2 c 0
 -5876 -6228 l 0
 -5880 -5828 -5340 -5660 -4740 -5540 c 0
 -4506 -5494 -3998 -5378 -2760 -5220 c 0
 -2115.94 -5137.43 -1707.1 -5127.81 -1431.03 -5127.81 c 0
 -1347.18 -5127.81 -1275.58 -5128.7 -1213.35 -5128.7 c 0
 -984.211 -5128.7 -882.208 -5116.67 -764 -5004 c 0
 -584 -4828 -456 -4972 -456 -4876 c 0
 -456 -4784 -364 -4620 -280 -4620 c 0
 -174.909 -4620 -109.066 -4713.1 -109.066 -4842.18 c 0
 -109.066 -4983.32 -187.788 -5167.48 -380 -5320 c 0
 -548 -5448 -1706 -5514 -2580 -5580 c 0
 -4693.81 -5739.53 -5376.02 -5879.18 -5376.02 -6522.34 c 0
 -5376 -6528 l 0
 -5376 -6916.38 -4895.43 -7033.06 -4156.84 -7033.06 c 0
 -3358.85 -7033.06 -2259.67 -6896.86 -1140 -6820 c 0
 -696 -6790 58 -6690 252 -6412 c 0
 472.411 -6097.13 515.777 -5640.62 515.777 -5181.13 c 0xea
 515.777 -4883 497.521 -4583.62 497.521 -4320.85 c 0
 497.521 -4268.34 498.25 -4217.29 500 -4168 c 0
 518 -3664 720 -3384 800 -824 c 0
 793.907 -449.877 792.083 -87.5421 792.083 259.315 c 0
 792.083 776.495 796.137 1259.26 796.137 1695.39 c 0
 796.137 2886.91 765.876 3730.27 540 3976 c 0
 455.223 4069.25 420.357 4179.81 420.357 4295.66 c 0
 420.357 4671.74 787.822 5103.55 1008 5180 c 0
 1116.1 5216.41 1206.32 5232.58 1282.26 5232.58 c 0
 1748.64 5232.58 1676.41 4622.63 1900 4344 c 0
 2009.21 4215.63 2037.66 3486.15 2037.66 2432.93 c 0
 2037.66 1287.32 2004 -241.311 2004 -1796 c 0
 2004 -4076 1952 -5316 1836 -5316 c 0
 1736 -5316 1672 -4096 1672 -1852 c 0
 1672 -365.485 1742.52 1193.51 1742.52 2450.32 c 0
 1742.52 3733.32 1669.03 4701.4 1372 4956 c 1
 1150.09 4789.57 717.069 4782.78 717.069 4443.03 c 0
 717.069 4268.35 831.533 4005.66 1148 3588 c 1
 1203.56 3473.91 1225.04 2962.79 1225.04 2251.49 c 0xf6
 1225.04 94.955 1027.61 -3901.58 984 -4252 c 0
 974.526 -4327.79 972.033 -4437.88 972.033 -4571.07 c 0
 972.033 -4719.06 975.111 -4895.56 975.111 -5085.19 c 0
 975.111 -5805.78 930.667 -6716 504 -6972 c 0
 -196 -7392 -3320 -7424 -4224 -7424 c 0xea
EndSplineSet
Validated: 33
LCarets2: 1 0 
EndChar

StartChar: uni1B2F_doubleconj
Encoding: 46 -1 46
Width: 0
VWidth: 0
GlyphClass: 4
Flags: W
HStem: -8341.03 204.3<-3437.75 -1821.7>
VStem: -5408.26 360.26<-7354.37 -6598.53> -524 200<-6597.16 -5624.8> -324 28<-5521.2 -5134>
LayerCount: 2
Fore
SplineSet
-4736 -6214 m 24
 -4648 -6272 -4646 -6388 -4512 -6364 c 24
 -4300 -6324 -4400 -6156 -4192 -6114 c 24
 -4072 -6088 -4094 -6204 -4032 -6264 c 24
-3528 -8268 m 0
 -3876 -8214 -4168 -8142 -4416 -8048 c 0
 -4690 -7942 -4914 -7810 -5108 -7638 c 0
 -5226 -7536 -5310 -7418 -5358 -7294 c 0
 -5391.95 -7210.33 -5408.26 -7124.45 -5408.26 -7039.94 c 0
 -5408.26 -6985.06 -5401.39 -6930.75 -5388 -6878 c 0
 -5350 -6732 -5258 -6598 -5112 -6498 c 0
 -4748 -6242 -4344 -6136 -2976 -5920 c 0
 -2368 -5824 -1664 -5684 -1412 -5606 c 0
 -1203.86 -5544.92 -1084.02 -5515.82 -1019.17 -5515.82 c 0
 -969.361 -5515.82 -952 -5532.99 -952 -5566 c 0
 -952 -5704 -1420 -5722 -2880 -6040 c 0
 -4130 -6232 -4712 -6354 -4934 -6596 c 0
 -5016 -6684 -5048 -6788 -5048 -6916 c 0
 -5048 -7046 -5004 -7174 -4918 -7294 c 0
 -4774 -7500 -4516 -7686 -4160 -7830 c 0
 -3742 -8002 -3192 -8114 -2540 -8134 c 0
 -2465.26 -8135.83 -2396.3 -8136.73 -2332.55 -8136.73 c 0
 -1420.58 -8136.73 -1574.03 -7952.79 -1088 -7678 c 1
 -804 -7174 -636 -6950 -524 -6012 c 2
 -324 -5134 l 1
 -296 -6138 l 2
 -294.996 -6193.84 -294.475 -6247.88 -294.475 -6300.21 c 0
 -294.475 -7289.79 -480.541 -7664.27 -1096 -7972 c 0
 -1577.57 -8211.39 -2055.23 -8341.03 -2663.4 -8341.03 c 0
 -2924.09 -8341.03 -3208.76 -8317.21 -3528 -8268 c 0
EndSplineSet
Validated: 3
EndChar

StartChar: uni1B2D_doubleconj
Encoding: 47 -1 47
Width: 1152
VWidth: 0
GlyphClass: 4
Flags: HW
HStem: -7999.31 595.231<-6790.73 -2181.51>
VStem: -10970.6 721.759<-4838.25 -1079.22> 1762.62 360.787<-3088.7 994.754>
LayerCount: 2
Fore
SplineSet
-7164.28 -7309.41 m 0
 -8304.76 -6946.53 -9468.28 -5817.57 -9934.84 -4999.65 c 0
 -10187.9 -4534.57 -10315.9 -3871.38 -10315.9 -3135.13 c 0
 -10315.9 -2530.97 -10229.7 -1877.6 -10055.8 -1244.13 c 0
 -9865.39 -599.179 -9632.4 -252.266 -9500.9 -252.266 c 0
 -9437.44 -252.266 -9397.62 -333.06 -9397.62 -500.143 c 0
 -9397.62 -636.187 -9424.01 -829.435 -9485.56 -1082.85 c 0
 -9610.64 -1598.52 -9666.34 -2233.75 -9666.34 -2853.48 c 0
 -9666.34 -3860.49 -9519.29 -4826.59 -9283.96 -5172.45 c 0
 -8436.46 -6411.32 -6447.92 -6997.72 -4473.45 -6997.72 c 0
 -2583.11 -6997.72 -705.665 -6460.22 145.159 -5443.17 c 0
 761.738 -4689.04 1143.99 -3032.76 1143.99 -1532.34 c 0
 1143.99 -1210.59 1126.41 -895.991 1089.8 -599.006 c 0
 1038.26 -186.688 1012.34 119.945 1012.34 342.386 c 0
 1012.34 716.574 1085.69 852.514 1233.8 852.514 c 0
 1397.65 852.514 1468.7 124.657 1468.7 -826.973 c 0
 1468.7 -2417.83 1270.13 -4634.06 974.6 -5120.61 c 0
 104.839 -6572.12 -1369.72 -7401.57 -4393.72 -7516.77 c 0
 -4708.46 -7527.87 -4989.09 -7533.43 -5241.43 -7533.43 c 0
 -6166.68 -7533.43 -6711.7 -7458.75 -7164.28 -7309.41 c 0
EndSplineSet
Validated: 1
LCarets2: 1 0 
EndChar

StartChar: uni1B05
Encoding: 54 6917 54
Width: 8805
VWidth: 0
Flags: W
HStem: 134.353 401.942<1271.87 2522.23 4621.88 6179.3> 1869.11 454.11<7331.46 7565.71> 2182.32 362.51<1695.66 2624.85> 2488.71 217.03<6549.49 6786.27> 3536.26 644.41<1705.73 2885.38> 4494.32 533.93<6624.25 7307.31> 5131.25 184.4<1872.71 3068.43>
VStem: 73.5215 303.015<1806.58 3560.86> 2876.14 522.83<825.732 2072.76> 2908.74 347.06<2816.46 3424.28> 5802.1 190.45<1612.08 2179.22> 6510.21 519.58<3882.84 4983.61> 7703.46 326.66<2350.11 3722.54> 7726.62 94.3501<198.063 1226.83>
LayerCount: 2
Fore
SplineSet
1229.85 300.422 m 0xafb0
 491.759 643.496 73.8844 1446.99 73.5215 2522.78 c 0
 73.5215 4219.37 1054.53 5315.65 2432.25 5315.65 c 0
 2686.42 5315.65 2954.09 5278.34 3231.59 5200.6 c 0
 3892.36 5015.49 5004.02 4048.06 5004.02 3659.23 c 0
 5003.91 3639.92 4998.9 3625.03 4978.25 3625.03 c 0
 4910.14 3625.03 4714.81 3800.21 4486.79 4074.29 c 0
 3908.02 4769.99 3167.27 5131.25 2459.84 5131.25 c 0
 1945.15 5131.25 1448.09 4940.02 1043.9 4547.23 c 0
 574.209 4090.78 376.536 3406.97 376.536 2751.05 c 0
 376.536 2199.79 516.158 1668.23 751.269 1307.88 c 1
 860.661 920.21 1424.28 536.295 1953.73 536.295 c 0
 2339.19 536.295 2706.53 739.774 2867.31 1293.42 c 1
 2868.12 1405.79 2876.14 1513.35 2876.14 1612.52 c 0xafb0
 2876.14 1910.6 2803.67 2132.88 2245.03 2182.32 c 0
 1879.86 2214.63 1665.56 2330.83 1665.56 2423.07 c 0
 1665.56 2490.32 1779.45 2544.83 2031.81 2544.83 c 0
 2492.31 2544.83 2908.74 2852.45 2908.74 3154.39 c 0
 2908.74 3191.85 2902.33 3229.23 2888.8 3265.92 c 0
 2823.88 3441.91 2554.39 3536.26 2278.42 3536.26 c 0
 2054.02 3536.26 1825.33 3473.88 1698.84 3342.29 c 0
 1611.22 3251.14 1539.5 3211.23 1488.98 3211.23 c 0
 1435.83 3211.23 1406.15 3255.41 1406.15 3330.57 c 0
 1406.15 3417.22 1445.59 3545.03 1533.97 3693.78 c 0
 1732.12 4027.3 2071.39 4180.67 2396.66 4180.67 c 0
 2839.19 4180.67 3255.8 3896.78 3255.8 3396.46 c 0xaf70
 3255.8 3132.48 3145.99 2821.69 3011.78 2705.81 c 0
 2912.87 2620.41 2860.9 2560.82 2860.9 2491.05 c 0
 2860.9 2407.81 2934.87 2310.1 3091.36 2136.81 c 0
 3296.43 1909.71 3398.97 1675.88 3398.97 1435.1 c 0
 3398.97 1181.19 3284.94 919.558 3056.87 649.938 c 0
 2770.42 311.301 2374.96 134.353 1950.26 134.353 c 0
 1714.58 134.353 1469.9 188.84 1229.85 300.422 c 0xafb0
4926.81 174.512 m 0
 4590.17 264.048 3733.23 1030.12 3733.23 1241.5 c 0
 3733.23 1262.27 3751.26 1272.1 3783.09 1272.1 c 0
 3856.43 1272.1 4003.01 1219.86 4170.88 1128.77 c 1
 4648 629.776 5066.82 448.647 5425.55 448.647 c 0
 6094.81 448.647 6554.93 1079.1 6794.32 1452.08 c 0
 6888.38 1598.62 6933.76 1776.89 6933.76 1943.97 c 0
 6933.76 2233.07 6797.9 2488.71 6543.25 2488.71 c 0
 6251.49 2488.71 6220.39 2475.42 5995.39 2007.59 c 0
 5975.56 1966.36 5969.07 1917.06 5969.07 1866.35 c 0
 5969.07 1769.93 5992.55 1668.4 5992.55 1607.51 c 0
 5992.55 1572.94 5984.98 1551.47 5961.25 1551.47 c 0
 5873.72 1551.47 5802.1 1859 5802.1 2234.87 c 2
 5802.1 2918.28 l 1
 6440.92 2812 l 1
 7079.74 2705.74 l 1
 6975.79 3411.7 l 2
 6918.63 3799.99 6772.55 4322.55 6651.19 4572.96 c 0
 6557.98 4765.27 6510.21 4877.77 6510.21 4942.82 c 0
 6510.21 5013.78 6567.07 5028.25 6683.78 5028.25 c 0
 7488.04 5028.25 8030.12 4139.82 8030.12 2821.67 c 0xdf38
 8030.12 2224.96 8110.31 1853.9 8268.84 1717.03 c 0
 8426.75 1580.68 8501.48 1457.51 8501.48 1382.75 c 0
 8501.48 1335.78 8471.98 1307.92 8415.07 1307.92 c 0
 8362.57 1307.92 8286.76 1331.63 8189.27 1385.91 c 0
 8099.24 1436.03 8034.33 1466.98 7986.92 1466.98 c 0
 7879.54 1466.98 7862 1308.18 7845.98 853.661 c 2
 7820.97 144.197 l 1
 7726.62 970.563 l 2
 7659.11 1561.84 7509.44 1869.11 7343.63 1869.11 c 0xdf34
 7208.76 1869.11 7063.21 1665.81 6942.5 1246.69 c 0
 6839.66 889.57 6666.32 520.701 6557.31 426.993 c 0
 6365.79 262.353 5757.8 136.526 5295.15 136.526 c 0
 5153.31 136.526 5025.14 148.352 4926.81 174.512 c 0
7641.67 3475.42 m 0
 7589.39 3692.08 7231.58 4494.32 7121.52 4494.32 c 0
 7056.84 4494.32 7029.79 4364.04 7029.79 4167.41 c 0
 7029.79 3598.27 7256.37 2473.22 7452.68 2342.22 c 0
 7472.01 2329.32 7490.53 2323.22 7508.13 2323.22 c 0
 7626.61 2323.22 7703.46 2599.63 7703.46 2941.33 c 0
 7703.46 3111.85 7684.32 3298.62 7641.67 3475.42 c 0
EndSplineSet
Validated: 1
EndChar

StartChar: uni1B06
Encoding: 55 6918 55
Width: 11874
VWidth: 0
Flags: W
HStem: 59.3527 401.942<1208.1 2458.46 4642.21 5867 9122.09 10309.8> 2107.32 362.51<1631.89 2561.07> 2228.25 251.65<6118.55 6587.44> 3461.26 644.41<1641.96 2821.6> 4722.55 396.9<8292.04 9712.56> 5056.25 184.4<1808.94 3004.66>
VStem: 9.74705 303.015<1731.58 3485.86> 2812.37 522.83<750.732 1997.76> 2844.97 347.06<2741.46 3349.28> 6694.52 218.91<2484.24 3078.91> 11218.9 268.5<1628.91 2997.33>
LayerCount: 2
Fore
SplineSet
4732.54 118.819 m 0xba60
 4272.06 320.85 3676.1 904.598 3676.1 1153.61 c 0
 3676.1 1263.08 3690.64 1318.24 3751.43 1318.24 c 0
 3814.07 1318.24 3925.82 1259.68 4121.38 1141.61 c 1
 4522.78 639.845 4914.36 453.774 5260.92 453.774 c 0
 5934.63 453.774 6438.22 1156.94 6513.11 1611.04 c 0
 6517.77 1639.29 6520 1668.07 6520 1696.98 c 0
 6520 1957.16 6339.12 2228.25 6118.55 2228.25 c 0
 5978.76 2228.25 5823.04 2119.38 5687.3 1829.85 c 1
 5615.31 1714.89 5568.89 1650.68 5539.1 1650.68 c 0
 5494.35 1650.68 5487.15 1795.66 5487.15 2131.32 c 0
 5487.15 2660.9 5529.62 2882.04 5706.44 2882.04 c 0
 5798.09 2882.04 5925.84 2822.63 6102.47 2715.98 c 0
 6358.69 2561.27 6504.62 2479.9 6587.44 2479.9 c 0
 6682.94 2479.9 6694.52 2588.09 6694.52 2816.78 c 0
 6694.52 3492 7129.33 4389.5 7628.69 4744.98 c 0
 7980.59 4995.48 8499.81 5119.45 9019.52 5119.45 c 0
 9572.67 5119.45 10126.4 4979.01 10479.4 4701.22 c 0
 11060.9 4243.66 11487.4 3224.32 11487.4 2380.01 c 0
 11487.4 2261.18 11479 2145.81 11461.3 2035.97 c 0
 11290.5 972.37 10409.6 36.4549 9673.21 36.4549 c 0
 9578.57 36.4549 9486.32 51.913 9398.26 84.5449 c 0
 9207.15 155.368 9116.43 225.503 9116.43 284.535 c 0
 9116.43 375.584 9332.24 440.219 9728.39 440.219 c 0
 10649.6 440.219 11218.9 1314.1 11218.9 2251.16 c 0
 11218.9 2845.69 10989.7 3465.64 10475.8 3903.98 c 1
 9932.08 4504.24 9435.5 4722.55 8998.71 4722.55 c 0
 8186.66 4722.55 7581.31 3967.95 7264.03 3510.47 c 0
 7031.93 3175.79 6913.43 2912.91 6913.43 2623.63 c 0
 6913.43 2298.81 7062.83 1940.71 7368.54 1410.3 c 0
 7638.5 941.875 7833.28 514.867 7833.28 399.534 c 0
 7833.28 387.661 7831.22 379.091 7826.96 374.119 c 0
 7819.18 365.035 7808.89 360.705 7796.59 360.705 c 0
 7736.76 360.705 7629.47 463.13 7533.38 619.059 c 0
 7148.81 1243.07 6998.89 1507.47 6891.81 1507.47 c 0
 6808.15 1507.47 6750.64 1346.05 6627.78 1068.64 c 0
 6353.53 449.433 5721 34.6618 5149.92 34.6618 c 0
 5004.5 34.6618 4863.06 61.5566 4732.54 118.819 c 0xba60
1166.07 225.422 m 0
 427.986 568.496 9.74705 1371.99 9.74705 2447.78 c 0
 9.74705 4144.37 990.758 5240.65 2368.48 5240.65 c 0
 2622.65 5240.65 2890.32 5203.34 3167.82 5125.6 c 0
 3828.59 4940.49 4940.25 3973.06 4940.25 3584.23 c 0
 4940.14 3564.92 4935.13 3550.03 4914.48 3550.03 c 0
 4846.37 3550.03 4651.04 3725.21 4423.02 3999.29 c 0
 3844.25 4694.99 3103.5 5056.25 2396.07 5056.25 c 0
 1881.37 5056.25 1384.32 4865.02 980.129 4472.23 c 0
 510.436 4015.78 312.762 3331.97 312.762 2676.05 c 0
 312.762 2124.79 452.384 1593.23 687.495 1232.88 c 1
 796.886 845.21 1360.51 461.295 1889.96 461.295 c 0
 2275.42 461.295 2642.76 664.774 2803.54 1218.42 c 1
 2804.35 1330.79 2812.37 1438.35 2812.37 1537.51 c 0xd760
 2812.37 1835.6 2739.9 2057.88 2181.25 2107.32 c 0
 1816.09 2139.63 1601.79 2255.83 1601.79 2348.07 c 0
 1601.79 2415.32 1715.67 2469.83 1968.03 2469.83 c 0
 2428.54 2469.83 2844.97 2777.44 2844.97 3079.38 c 0
 2844.97 3116.85 2838.55 3154.23 2825.02 3190.92 c 0
 2760.1 3366.91 2490.62 3461.26 2214.64 3461.26 c 0
 1990.24 3461.26 1761.56 3398.88 1635.07 3267.29 c 0
 1547.45 3176.14 1475.73 3136.23 1425.21 3136.23 c 0
 1372.06 3136.23 1342.38 3180.41 1342.38 3255.57 c 0
 1342.38 3342.22 1381.82 3470.03 1470.2 3618.78 c 0
 1668.35 3952.3 2007.62 4105.67 2332.89 4105.67 c 0
 2775.42 4105.67 3192.03 3821.78 3192.03 3321.46 c 0xd6e0
 3192.03 3057.48 3082.22 2746.69 2948.01 2630.81 c 0
 2849.1 2545.41 2797.13 2485.82 2797.13 2416.05 c 0
 2797.13 2332.81 2871.1 2235.1 3027.58 2061.81 c 0
 3232.66 1834.71 3335.2 1600.88 3335.2 1360.1 c 0xd760
 3335.2 1106.19 3221.16 844.558 2993.09 574.938 c 0
 2706.65 236.301 2311.19 59.3527 1886.48 59.3527 c 0
 1650.81 59.3527 1406.13 113.84 1166.07 225.422 c 0
EndSplineSet
Validated: 1
EndChar

StartChar: uni1B07
Encoding: 56 6919 56
Width: 9465
VWidth: 0
Flags: W
HStem: -3099.87 336.54<5022.28 6099.78> -494.387 223.866<4727.03 5733.93> 258.877 576.735<1855.85 2994.09> 4679.37 426.61<619.064 1009.19> 4767.64 507.22<3222.54 4369.31> 4928.46 345.57<6945.57 7957.12>
VStem: 153.294 252.607<3023.76 3726.62> 1191.45 253.24<1648.98 4244.95> 4164.83 395.73<-1063.62 -591.647> 6194.39 387.15<-2700.07 -1994.71> 8872.56 119.011<699.952 2274.43> 8991.57 29.4697<329.393 1390.17>
LayerCount: 2
Fore
SplineSet
4402.74 -2766.51 m 0xe3f0
 4007.61 -2539.6 3813.06 -2368.52 3813.06 -2288.17 c 0
 3813.06 -2255.21 3845.81 -2237.52 3910.9 -2237.52 c 0
 4014.92 -2237.52 4201.53 -2282.7 4469.03 -2382.91 c 1
 5122.12 -2661.13 5516.54 -2763.33 5758.85 -2763.33 c 0
 6150.95 -2763.33 6144.71 -2495.71 6191.65 -2273.29 c 0
 6193.48 -2264.62 6194.39 -2255.8 6194.39 -2246.83 c 0
 6194.39 -2078.75 5873.96 -1858.05 5254.2 -1599.72 c 0
 4551.74 -1306.92 4164.83 -978.177 4164.83 -711.095 c 0
 4164.83 -596.472 4236.09 -493.206 4384.26 -409.012 c 0
 4547.86 -316.014 4808.06 -270.521 5073.28 -270.521 c 0
 5372.35 -270.521 5677.79 -328.366 5858.28 -441.174 c 0
 5935.23 -489.239 5975.5 -522.547 5975.5 -542.142 c 0
 5975.5 -556.547 5953.74 -563.542 5908.79 -563.542 c 0
 5845.44 -563.542 5736.03 -549.646 5576.56 -523.014 c 0
 5460.04 -503.553 5348.84 -494.387 5245.62 -494.387 c 0
 4842.07 -494.387 4560.56 -634.485 4560.56 -847.145 c 0
 4560.56 -878.486 4566.67 -911.403 4579.41 -945.68 c 0
 4624.3 -1066.42 5078.3 -1283.48 5588.32 -1428.29 c 0
 6357.77 -1646.53 6525.35 -1766.43 6572.76 -2133.19 c 0
 6578.66 -2178.82 6581.54 -2223.03 6581.54 -2265.79 c 0
 6581.54 -2794.12 6142.52 -3099.87 5549.48 -3099.87 c 0
 5201.12 -3099.87 4799.62 -2994.37 4402.74 -2766.51 c 0xe3f0
2356.41 361.725 m 0
 1509.83 510.246 1261.41 1011.72 1191.45 2713.5 c 0
 1136.97 4038.25 1062.99 4679.37 816.788 4679.37 c 0
 808.337 4679.37 799.684 4678.62 790.821 4677.11 c 0
 586.049 4642.25 471.729 3970.89 405.901 3527.35 c 0
 354.248 3179.32 323.105 3023.65 279.189 3023.65 c 0
 247.8 3023.65 209.886 3103.18 153.294 3248.82 c 0
 100.315 3385.2 76.1791 3554.98 76.1791 3735.05 c 0
 76.1791 4215.1 247.711 4768.34 501.573 4957.17 c 0
 622.603 5047.27 828.217 5105.98 1000.74 5105.98 c 0xf3f0
 1038.11 5105.98 1073.92 5103.23 1106.99 5097.44 c 0
 1405.21 5045.41 1444.69 4841.15 1444.69 3350.36 c 0
 1444.69 2010.46 1514.2 1566.91 1781.61 1201 c 0
 1963.14 952.438 2132.93 835.612 2243.15 835.612 c 0
 2322.29 835.612 2370.71 895.845 2370.71 1010.79 c 0
 2370.71 1096.47 2343.8 1212.56 2282.65 1356.76 c 0
 2164.81 1634.67 2108.27 2094.17 2108.27 2576.84 c 0
 2108.27 3185.03 2198.04 3830.02 2368.05 4194.86 c 0
 2672.48 4848.1 3309.53 5274.86 3955.02 5274.86 c 0xebf0
 4004.73 5274.86 4054.49 5272.33 4104.15 5267.18 c 0
 4485.26 5227.61 4737.76 5036.99 5030.52 4567.51 c 2
 5432.96 3922.23 l 1
 5848.95 4525.75 l 2
 6197.51 5031.41 6618.71 5274.03 7172.68 5274.03 c 0
 7363.83 5274.03 7570.78 5245.15 7796.02 5188.21 c 0
 8713.55 4956.15 9023.82 4282.28 9023.82 2416.98 c 0
 9023.82 2314.15 9022.88 2207.71 9021.04 2097.52 c 2
 8991.57 329.393 l 1
 8872.56 1760.73 l 2
 8807.11 2547.97 8649.53 3360.97 8522.38 3567.09 c 1
 8397.68 4261.46 8089.34 4928.46 7500.29 4928.46 c 0xe7f0
 7098.87 4928.46 6567.09 4618.71 5874.23 3796.77 c 1
 5601.89 3535.43 5472.1 3417.03 5373.13 3417.03 c 0
 5293.43 3417.03 5233.72 3493.83 5135.64 3634.61 c 0
 4790.61 4129.96 4305.64 4767.64 3774.1 4767.64 c 0xebf0
 3363.85 4767.64 2925.86 4387.77 2503.07 3269.37 c 1
 2464.66 2552.17 2406.38 2161 2406.38 1880.36 c 0
 2406.38 1562.86 2480.98 1386.82 2743.34 1040.18 c 0
 2968.32 742.963 3083.07 515.005 3083.07 384.032 c 0
 3083.07 302.801 3038.93 258.877 2949.57 258.877 c 0
 2925.88 258.877 2899 261.966 2868.93 268.266 c 0
 2808.68 280.727 2578.03 322.994 2356.41 361.725 c 0
EndSplineSet
Validated: 1
EndChar

StartChar: uni1B09
Encoding: 58 6921 58
Width: 8310
VWidth: 0
Flags: W
HStem: -4692.16 439.61<1386.34 2016.22> -2019.92 430.63<3455.5 5873.6> 3000.34 526.98<2264.13 2773.55> 5048.94 389.2<3337.69 4924.85>
VStem: 41.6315 326.759<-3270.02 -1965.45> 1554.9 383.84<3877.73 4704.56> 1722.8 325.75<-4249.94 -3043.86> 2394.38 369.75<3527.76 4462.2> 5779.82 295.62<2879.16 4130.24> 7598.88 334.49<-4987.9 -3646.14>
LayerCount: 2
Fore
SplineSet
7598.88 -4405.79 m 0xfbc0
 7598.3 -3102.5 6385.88 -2019.92 4562.6 -2019.92 c 0
 4390.79 -2019.92 4213.56 -2029.53 4031.41 -2049.48 c 0
 3455.01 -2112.6 3217.81 -2396.82 2499.36 -2752.37 c 1
 2133.56 -3019.48 2048.55 -3179.15 2048.55 -3470.08 c 0xfbc0
 2048.55 -3609.46 2068.06 -3778.96 2085.55 -4004.84 c 0
 2099.53 -4185.31 2108.54 -4321.41 2108.54 -4422.81 c 0
 2108.54 -4629.77 2070.99 -4692.16 1961.46 -4692.16 c 0
 1920.53 -4692.16 1869.56 -4683.45 1806.75 -4670.32 c 0
 676.124 -4434 41.6315 -3656.77 41.6315 -2720.71 c 0
 41.6315 -2243.15 206.782 -1724.24 555.456 -1214.74 c 0
 983.85 -588.738 1379.8 -275.744 2989.54 709.417 c 0
 5113.46 2009.25 5756.44 2549.47 5779.41 3488.73 c 0
 5779.68 3499.81 5779.82 3510.89 5779.82 3521.95 c 0
 5779.82 4318.47 5079.76 5048.94 4130.31 5048.94 c 0
 4005.78 5048.94 3876.96 5036.37 3744.86 5009.74 c 0
 3095.55 4878.83 2764.13 4376.03 2764.13 3803.37 c 0
 2764.13 3708.39 2773.25 3611.5 2791.54 3514.06 c 0
 2816.67 3380.19 2830.12 3273.24 2830.12 3192.32 c 0
 2830.12 3063.15 2795.84 3000.34 2720.06 3000.34 c 0
 2630.69 3000.34 2483.6 3087.69 2266.94 3256.58 c 0
 1846.51 3584.3 1554.9 4105.19 1554.9 4528.43 c 0
 1554.9 4703.82 1592.85 4781.63 1646 4781.63 c 0
 1737.15 4781.63 1872.99 4552.79 1938.74 4194.86 c 0
 2015.63 3776.24 2164.68 3527.32 2271.37 3527.32 c 0
 2342.21 3527.32 2394.38 3637.03 2394.38 3879.64 c 0
 2394.38 4466.68 2775.02 5130.79 3208.6 5300.23 c 0
 3449.07 5394.2 3712.26 5438.14 3978.73 5438.14 c 0
 4763.71 5438.14 5577.04 5056.83 5921.2 4450.12 c 0
 6025.7 4265.9 6075.44 4023.63 6075.44 3750.46 c 0
 6075.44 3164.39 5846.48 2436.1 5438.06 1833.74 c 0
 5037.84 1243.46 4117.92 1032.27 2544.83 -47.5742 c 0
 851.236 -1210.14 368.391 -1935.64 368.391 -2578.83 c 0
 368.391 -2818.81 435.607 -3047.33 532.231 -3282.82 c 0
 734.379 -3775.5 1237.48 -4252.55 1554.9 -4252.55 c 0xfdc0
 1647.24 -4252.55 1722.8 -4030.1 1722.8 -3758.22 c 0
 1722.8 -2749.08 2584.77 -1937.66 3939.81 -1671.24 c 0
 4219.55 -1616.23 4495.42 -1589.29 4764.07 -1589.29 c 0
 5844.62 -1589.29 6808.26 -2025.27 7436.51 -2825.11 c 0
 7839.16 -3337.74 7932.08 -3598.96 7933.36 -4221.9 c 0
 7933.37 -4229.67 l 0
 7933.37 -4655.81 7860.66 -4988.14 7767.04 -4988.14 c 0
 7674.69 -4988.14 7599.02 -4726.09 7598.88 -4405.79 c 0xfbc0
EndSplineSet
Validated: 1
EndChar

StartChar: uni1B10
Encoding: 60 6928 60
Width: 13257
VWidth: 0
Flags: W
HStem: -6887.97 448.67<8341.06 9938.19> -6721.77 633.67<1473.46 3622.86> -4422.21 414.37<5056.95 6281.35> 1256.86 310.17<1758.29 2143.57> 4938.66 347.38<589.359 981.381 3074.66 4139.03 6319.55 7253.87> 5142.07 1854.7<9498.92 10412.7>
VStem: 75.8704 321.726<3783.85 4722.68> 230.459 456.434<-5390.61 -2928.86> 1116.88 195.93<2155.31 4106.31> 1841.23 375.95<2148.63 3918.48> 8271.03 256.95<1897.41 3456.77> 10833.1 308.601<575.479 4828.17> 10945.7 240.8<-3517.26 1100.17>
LayerCount: 2
Fore
SplineSet
1906.91 -6597.18 m 0x70e8
 794.378 -6337.05 243.172 -5608.58 230.769 -3973.82 c 0
 230.564 -3946.8 230.459 -3920.05 230.459 -3893.57 c 0x71e8
 230.459 -1921.05 814.133 -1441.98 4200.24 -533.228 c 0
 6174.71 -3.3291 6810.11 233.812 7289.17 619.596 c 0
 7921.01 1128.4 8271.03 1916.42 8271.03 2688.18 c 0
 8271.03 3063.02 8188.46 3434.02 8015.52 3767.33 c 0
 7727.8 4321.84 7362.29 4918.61 6805.74 4918.61 c 0
 6478.21 4918.61 6084.52 4711.94 5601.58 4168.37 c 1
 5107.6 3770.58 l 1
 4819.38 4078.28 l 1
 4535.55 4508.01 4077.38 4938.66 3581.63 4938.66 c 0
 3177.29 4938.66 2747.95 4652.18 2367.81 3845.07 c 1
 2264.55 3644.33 2217.18 3353.87 2217.18 3048.69 c 0
 2217.18 2511.82 2363.78 1929.41 2610.55 1709.83 c 0
 2790.43 1549.77 2883.69 1442.46 2883.69 1372.65 c 0
 2883.69 1285.6 2738.68 1256.86 2435.77 1256.86 c 0
 2428.32 1256.86 2420.77 1256.88 2413.13 1256.91 c 0
 1414.79 1261.38 1116.88 1720 1116.88 3252.41 c 0
 1116.88 3913.57 1035.56 4820.66 926.195 4875.09 c 0
 893.973 4891.13 860.654 4898.85 827.145 4898.85 c 0
 616.148 4898.85 397.596 4592.85 397.596 4131.25 c 0
 397.596 4076.78 400.64 4020.13 407.1 3961.57 c 1
 275.145 3486.34 l 1
 133.959 3902.49 l 2
 94.0304 4020.17 75.8704 4139.07 75.8704 4254.96 c 0
 75.8704 4784.9 455.621 5251.88 870.061 5251.88 c 0
 978.935 5251.88 1090.2 5219.65 1197.61 5147.87 c 0
 1357.38 5041.09 1424.31 4904.07 1424.31 4499.61 c 0
 1424.31 4281.1 1404.77 3984.52 1369.79 3572.47 c 0
 1334.05 3151.54 1312.81 2853.85 1312.81 2631.77 c 0
 1312.81 2191.15 1396.42 2048.13 1616.27 1830.6 c 0
 1797.3 1651.49 1940.4 1567.03 2031.59 1567.03 c 0
 2103.93 1567.03 2143.6 1620.19 2143.6 1721.42 c 0
 2143.6 1817.04 2108.2 1955.56 2031.52 2132.7 c 0
 1904.64 2425.79 1841.23 2752.5 1841.23 3092.56 c 0
 1841.23 3438.2 1906.73 3797.62 2037.67 4149.56 c 0
 2337.41 4955.2 2792.01 5286.04 3599.23 5286.04 c 0
 4328 5286.04 4734.46 5031.84 4961.27 4434.19 c 2
 5093.31 4086.25 l 1
 5325.45 4530.84 l 2
 5600.31 5057.24 6060.24 5283.86 6855.43 5283.86 c 0
 6871.18 5283.83 l 0
 7616.85 5281.06 7782.9 5190.57 8188.08 4566.16 c 0
 8415.71 4215.34 8527.98 3569.89 8527.98 2896.59 c 0
 8527.98 2176.27 8399.48 1424.09 8146.27 966.748 c 0
 7561.91 -88.7334 6572.55 -241.691 4242.88 -971.488 c 0
 1646.15 -1784.94 1443.69 -2062.4 917.312 -2884.73 c 1
 768.264 -3672.97 686.893 -4271.21 686.893 -4723.97 c 0
 686.893 -5881.21 1218.47 -6088.1 2510.26 -6088.1 c 0x7ae0
 3611.09 -6088.1 4060.06 -5819.95 4419.88 -4947.59 c 0
 4653.65 -4380.82 4822.02 -4208.28 5261.8 -4084.83 c 0
 5444.68 -4033.49 5616.23 -4007.84 5776.37 -4007.84 c 0
 6333.05 -4007.84 6751.9 -4317.81 7029.9 -4936.29 c 0
 7359.89 -5670.44 8318.83 -6439.3 9214.51 -6439.3 c 0
 9274.52 -6439.3 9334.24 -6435.85 9393.47 -6428.71 c 0
 10247.7 -6325.67 10540.2 -5454.65 10761.5 -4623.86 c 0
 10882.6 -4169.21 10945.7 -2839.09 10945.7 -1178.4 c 0xb2e8
 10945.7 89.0991 10908.9 1549.16 10833.1 2959.53 c 0
 10717.9 5104.03 10708.8 5142.07 10310.5 5142.07 c 0
 9686.66 5142.07 8804.95 5813.8 8804.95 6289.05 c 0
 8804.95 6745.43 9106.77 6996.77 9643.02 6996.77 c 0
 9700.11 6996.77 9759.86 6993.92 9822.19 6988.17 c 0
 10205.6 6952.77 10409.4 6803.66 10682.3 6359.04 c 0
 10878.9 6038.54 11281.2 5648.65 11576.2 5492.61 c 0
 12066.2 5233.43 12449.1 4619.09 12449.1 4155.87 c 0
 12449.1 4081.31 12439.2 4010.66 12418.2 3946.04 c 0
 12392.3 3866.17 12364 3823.08 12324.9 3823.08 c 0
 12253.8 3823.08 12146.6 3965.63 11951.8 4288.69 c 0
 11697.5 4710.35 11518.9 4978.83 11395.4 4978.83 c 0
 11198.3 4978.83 11141.7 4294.68 11141.7 2457.38 c 0xb4f0
 11141.7 1765.54 11149.7 910.201 11161.3 -133.686 c 0
 11176.2 -1474.92 11186.5 -2469.23 11186.5 -3218.62 c 0
 11186.5 -5276.75 11108.8 -5487.51 10835.3 -5963.92 c 0
 10479.2 -6584.11 9980.51 -6887.97 9303.5 -6887.97 c 0xb4e8
 9065.03 -6887.97 8804.44 -6850.27 8520.16 -6775.41 c 0
 7951.74 -6625.74 7726.68 -6448.91 7312.19 -5826.28 c 0
 6788.36 -5039.41 6330.4 -4422.21 5644.56 -4422.21 c 0
 5556.05 -4422.21 5463.75 -4432.49 5367.02 -4454.01 c 0
 4896.64 -4558.65 4688.37 -5164.05 4303.3 -5800.4 c 0
 3982.09 -6331.22 3658.41 -6448.83 3319.94 -6565.33 c 0
 3013.35 -6670.85 2842.27 -6721.77 2643.71 -6721.77 c 0
 2462.39 -6721.77 2258.16 -6679.31 1906.91 -6597.18 c 0x70e8
EndSplineSet
Validated: 1
EndChar

StartChar: uni1B0B
Encoding: 61 6923 61
Width: 10131
VWidth: 0
Flags: W
HStem: -3736.35 574.41<3542.17 5689.57> -849.927 246.799<3780.3 5073.49> -309.707 551.762<2879.54 6253.62> 4777 587.26<8019.73 8361.77> 4930.27 433.91<821.323 1559.24>
VStem: 27.1149 247.85<3004.46 3900.79> 141.819 257.242<3022.73 3132.61> 1273.41 611.92<1051.02 4923.65> 3189.3 398.89<-1538.28 -970.556> 5711.43 483.59<-3063.81 -2544.81> 7460.08 575.9<1414.19 4745.96> 8792.12 505.77<-298.546 3905.62>
LayerCount: 2
Fore
SplineSet
3012.67 -3167.25 m 4xe1f0
 2677.29 -2921.2 2512.75 -2775.85 2512.75 -2721.97 c 4
 2512.75 -2705.85 2527.47 -2697.92 2556.73 -2697.92 c 4
 2589.31 -2697.92 2639.92 -2707.76 2708.34 -2727.09 c 4
 3704.13 -3008.5 4525.04 -3161.94 5005.42 -3161.94 c 4
 5134.99 -3161.94 5239.79 -3150.78 5316.57 -3127.95 c 4
 5583.01 -3048.73 5711.43 -2946.1 5711.43 -2831.04 c 4
 5711.43 -2618.03 5271.22 -2362.45 4451.68 -2134.15 c 4
 3311.58 -1816.62 3189.3 -1728.54 3189.3 -1225.79 c 4
 3189.3 -734.648 3280.76 -662.217 3965.46 -610.979 c 4
 4036.54 -605.664 4110.76 -603.128 4186.2 -603.128 c 4
 4564.11 -603.128 4972.49 -666.74 5167.88 -763.122 c 4
 5312.56 -834.546 5390.13 -880.111 5390.13 -903.8 c 4
 5390.13 -917.329 5364.83 -923.722 5312.28 -923.722 c 4
 5230.44 -923.722 5082.53 -908.218 4861.18 -880.012 c 4
 4699.33 -859.393 4552.67 -849.927 4421.34 -849.927 c 4
 3869.43 -849.927 3588.19 -1017.1 3588.19 -1226.35 c 4
 3588.19 -1472.4 3977.05 -1776.63 4771.93 -1935.65 c 4
 5796.36 -2140.6 6195.02 -2388.62 6195.02 -2821.26 c 4
 6195.02 -3413.26 5558.12 -3736.35 4782.61 -3736.35 c 4
 4200.47 -3736.35 3540.23 -3554.29 3012.67 -3167.25 c 4xe1f0
2774.9 -1.35742 m 0
 1647.42 459.068 1318.06 1041.87 1281.18 2641.82 c 0
 1273.87 2958.79 1272.2 3241.34 1272.2 3490.4 c 0
 1272.2 3701.95 1273.41 3889.33 1273.41 4053.11 c 0
 1273.41 4646.79 1257.5 4930.27 1110.36 4930.27 c 0
 1068.69 4930.27 1016.5 4907.54 951.168 4862.68 c 0
 747.859 4723.09 285.664 3822.06 274.965 3415.32 c 1
 399.061 2437.95 l 1
 141.819 3022.73 l 2xebf0
 62.887 3202.16 27.1149 3411.12 27.1149 3628.43 c 0
 27.1149 4347.3 418.579 5157.59 934.063 5292.94 c 0
 1107.82 5338.56 1253.97 5364.18 1375.5 5364.18 c 0xedf0
 1742.98 5364.18 1885.33 5129.91 1885.33 4506.08 c 0
 1885.33 4268.75 1864.73 3975.03 1828.08 3616.38 c 0
 1817.18 3509.75 1812.26 3391.68 1812.26 3266.22 c 0
 1812.26 2376.35 2059.88 1115.02 2179.49 930.133 c 0
 2483.91 459.562 3428.14 242.055 4420.51 242.055 c 0
 5566.84 242.055 6777.42 532.285 7140.29 1057.94 c 0
 7304.57 1295.91 7459.41 2760.56 7460.08 3657.41 c 0
 7461.11 5020.96 7528.66 5295.49 7877.01 5351.78 c 0
 7928.37 5360.08 7978.21 5364.26 8026.55 5364.26 c 0
 8796.73 5364.26 9185.53 4304.33 9274.39 1988.41 c 0
 9289.98 1582.21 9297.89 1233.42 9297.89 939.19 c 0
 9297.89 79.7394 9230.41 -314.258 9089.72 -314.258 c 0
 8914.02 -314.258 8807.93 285.292 8792.12 1367.65 c 0
 8766.36 3131.84 8477.37 4777 8133.59 4777 c 0xf5f0
 8118.15 4777 8102.6 4773.69 8086.96 4766.91 c 0
 8014.41 4735.49 7991.03 4346.31 7991.03 3935.2 c 0
 7991.03 3612.86 8005.4 3277.05 8021.73 3089.62 c 0
 8031.28 2980.04 8035.98 2871.08 8035.98 2763.12 c 0
 8035.98 1704.66 7584.29 741.164 6821.66 210.293 c 0
 6231.67 -200.404 5822.03 -309.707 4843.29 -309.707 c 0
 4826.78 -309.707 4810.1 -309.676 4793.25 -309.615 c 0
 4092.07 -307.062 3183.81 -168.348 2774.9 -1.35742 c 0
EndSplineSet
Validated: 1
EndChar

StartChar: uni1B0D
Encoding: 63 6925 63
Width: 10548
VWidth: 0
Flags: W
HStem: -1842.98 469.94<8955.04 9745.35> -555.259 466.58<2433.37 4618.77> 862.873 362.347<1837.82 2691.14> 4698.48 710.19<2899.45 4278.6> 4788.64 471.57<497.665 917.115> 4868.65 531.29<6394.49 7568.84>
VStem: 31.9844 101.275<3425.09 3809.15> 836.938 319.322<-2429.69 -1394.02> 944.395 278.905<1890.03 3633.36> 974.171 477.809<2641.36 4779.3> 1880.81 494.16<1641.49 4005.47> 7769.47 2200.34<-2575.59 -1415.63> 8624.28 122.06<963.262 2789.9>
LayerCount: 2
Fore
SplineSet
4694.48 -7447.16 m 0xe630
 4946.49 -7180.91 5076.52 -6787.32 5076.52 -6406.5 c 0
 5076.52 -6090.12 4986.77 -5782.55 4802.68 -5564.1 c 0
 4647.97 -5380.54 3860.29 -4845.35 3052.29 -4374.8 c 0
 1455.88 -3445.11 1037.86 -3033.63 863.302 -2220.08 c 0
 845.62 -2137.67 836.938 -2055.55 836.938 -1974.13 c 0
 836.938 -1311.28 1412.32 -694.169 2391.83 -334.066 c 0
 2830.21 -172.903 3224.94 -88.6792 3632.57 -88.6792 c 0
 4299.42 -88.6792 5000.78 -314.084 5984.25 -796.783 c 0
 7042.14 -1316 7581.79 -1540.94 7872.71 -1540.94 c 0
 8028.31 -1540.94 8112.76 -1476.59 8167.29 -1358.5 c 1
 8335.29 -544.101 8624.28 755.289 8624.28 1964.02 c 0
 8624.28 3308.17 8266.91 4540.21 6988.36 4868.52 c 1
 6984.69 4868.61 6981.01 4868.65 6977.33 4868.65 c 0xe728
 6539.16 4868.65 6015.17 4261.27 5677.43 4053.75 c 2
 5138.45 3722.56 l 1
 4758.34 4038.47 l 1
 4265.64 4504.88 3847.13 4698.48 3504.87 4698.48 c 0
 2758.72 4698.48 2374.97 3778.32 2374.97 2758.63 c 0
 2374.97 2151.42 2511.05 1508.91 2787.71 1004.38 c 1
 2801.78 981.667 2808.38 961.932 2808.38 945.003 c 0
 2808.38 888.065 2733.66 862.873 2616.88 862.873 c 0
 2301.96 862.873 1681.2 1046.05 1395.03 1283.88 c 0
 1031.13 1586.32 944.395 1731.68 944.395 2409.96 c 0xf2a8
 944.395 2545.19 947.843 2701.62 953.23 2884.7 c 0
 966.588 3338.75 974.171 3777.48 974.171 4043.1 c 0
 974.171 4164.93 972.576 4250.34 969.211 4284.1 c 0
 930.269 4656.1 845.787 4788.64 749.064 4788.64 c 0
 575.926 4788.64 363.564 4363.97 302.957 4127.92 c 0
 253.33 3934.65 176.964 3635.97 133.259 3464.17 c 0
 122.556 3422.11 111.742 3402.21 101.336 3402.21 c 0
 69.2414 3402.21 41.0376 3591.55 31.9844 3903.93 c 0
 30.785 3945.31 30.1862 3985.77 30.1862 4025.3 c 0
 30.1862 4838.16 283.31 5260.21 772.496 5260.21 c 0
 1217.29 5260.21 1451.98 4932.74 1451.98 4349.45 c 0xea60
 1451.98 4128.2 1418.22 3870.15 1349.34 3579.19 c 0
 1265.3 3224.16 1223.3 2907.13 1223.3 2628.26 c 0
 1223.3 2072.17 1390.33 1667.87 1724.16 1416.78 c 0
 1895.51 1287.9 2023.01 1225.22 2102.68 1225.22 c 0
 2166.9 1225.22 2200.05 1265.94 2200.05 1345.54 c 0
 2200.05 1431.1 2161.74 1561.6 2082.54 1734.73 c 0
 1943.68 2038.27 1880.81 2395.6 1880.81 2765.49 c 0
 1880.81 3876.03 2447.47 5099.85 3225.37 5321.52 c 0
 3430.55 5379.99 3626.12 5408.67 3808.96 5408.67 c 0xf2a0
 4349.39 5408.67 4778.62 5158.11 5016.19 4685.58 c 2
 5299.5 4122.07 l 1
 5661.61 4616.94 l 2
 6040.12 5134.22 6610.49 5399.94 7153.83 5399.94 c 0
 7624.83 5399.94 8075.53 5200.26 8363.33 4791.67 c 0
 8700.08 4313.59 8746.39 3996.81 8746.39 1949.93 c 0
 8746.34 1824.31 l 0xe6a8
 8745.25 492.898 8683.93 -824.844 8610.1 -1104.01 c 0
 8570.77 -1252.71 8548.2 -1358.76 8548.2 -1434.05 c 0
 8548.2 -1583.19 8636.8 -1611.59 8859.36 -1611.59 c 0
 9070.28 -1611.59 9406.42 -1538.83 9606.34 -1449.91 c 0
 9721.3 -1398.78 9815.59 -1373.04 9879.31 -1373.04 c 0
 9937.17 -1373.04 9969.81 -1394.27 9969.81 -1436.99 c 0
 9969.81 -1518.81 9605.12 -1701.51 9159.38 -1842.98 c 0
 8365.92 -2094.82 8332.23 -2135.47 7550.38 -3784.17 c 0
 6659.51 -5662.78 5073.2 -7858.67 4606.97 -7858.67 c 0
 4490.45 -7858.67 4429.96 -7845.38 4429.96 -7797.83 c 0
 4429.96 -7741.24 4515.62 -7636.13 4694.48 -7447.16 c 0xe630
7091.11 -4059.49 m 0
 7539.99 -3216.48 7769.47 -2728.95 7769.47 -2422.24 c 0xe330
 7769.47 -2092.88 7504.85 -1972.04 6963.14 -1843.45 c 0
 6498.04 -1733.05 5547.21 -1088.16 4697.39 -807.6 c 0
 4131.39 -620.737 3742.46 -555.259 3435.08 -555.259 c 0
 2967.37 -555.259 2688.44 -706.858 2261.75 -813.101 c 0
 1520.14 -997.765 1156.26 -1382.96 1156.26 -1861.2 c 0
 1156.26 -2423.14 1658.67 -3113.53 2641.03 -3757.96 c 0
 5015.76 -5315.81 5070.31 -5362.42 5281.4 -6013.92 c 2
 5490.17 -6658.29 l 1
 5965.23 -5970.02 l 2
 6226.51 -5591.47 6733.16 -4731.73 7091.11 -4059.49 c 0
EndSplineSet
Validated: 1
EndChar

StartChar: uni1B0E
Encoding: 64 6926 64
Width: 11280
VWidth: 0
Flags: HW
HStem: -4099.63 450.42<9254.85 10279> -2644 211.46<9145.76 9958.68> -1842.98 469.94<9753.36 10110.4> -555.259 466.58<2433.37 4618.77> 862.873 362.347<1837.82 2691.14> 4698.48 710.19<2899.45 4278.6> 4788.64 471.57<497.665 917.115> 4868.65 531.29<6394.49 7568.84>
VStem: 31.9844 101.275<3425.09 3809.15> 836.938 319.322<-2429.69 -1394.02> 944.395 278.905<1890.03 3633.36> 974.171 477.809<2641.36 4779.3> 1880.81 494.16<1641.49 4005.47> 8624.28 122.06<963.262 2789.9> 10119.3 474<-2356.65 -1810.03> 10417.2 363.2<-3475.3 -2914.15>
LayerCount: 2
Fore
SplineSet
4694.48 -7447.16 m 0xf9ac
 4946.49 -7180.91 5076.52 -6787.32 5076.52 -6406.5 c 0
 5076.52 -6090.12 4986.77 -5782.55 4802.68 -5564.1 c 0
 4647.97 -5380.54 3860.29 -4845.35 3052.29 -4374.8 c 0
 1455.88 -3445.11 1037.86 -3033.63 863.302 -2220.08 c 0
 845.62 -2137.67 836.938 -2055.55 836.938 -1974.13 c 0
 836.938 -1311.28 1412.32 -694.169 2391.83 -334.066 c 0
 2830.21 -172.903 3224.94 -88.6792 3632.57 -88.6792 c 0
 4299.42 -88.6792 5000.78 -314.084 5984.25 -796.783 c 0
 7042.14 -1316 7581.79 -1540.94 7872.71 -1540.94 c 0
 8028.31 -1540.94 8112.76 -1476.59 8167.29 -1358.5 c 1
 8335.29 -544.101 8624.28 755.289 8624.28 1964.02 c 0
 8624.28 3308.17 8266.91 4540.21 6988.36 4868.52 c 1
 6984.69 4868.61 6981.01 4868.65 6977.33 4868.65 c 0xf9cc
 6539.16 4868.65 6015.17 4261.27 5677.43 4053.75 c 2
 5138.45 3722.56 l 1
 4758.34 4038.47 l 1
 4265.64 4504.88 3847.13 4698.48 3504.87 4698.48 c 0
 2758.72 4698.48 2374.97 3778.32 2374.97 2758.63 c 0
 2374.97 2151.42 2511.05 1508.91 2787.71 1004.38 c 1
 2801.78 981.667 2808.38 961.932 2808.38 945.003 c 0
 2808.38 888.065 2733.66 862.873 2616.88 862.873 c 0
 2301.96 862.873 1681.2 1046.05 1395.03 1283.88 c 0
 1031.13 1586.32 944.395 1731.68 944.395 2409.96 c 0xfcac
 944.395 2545.19 947.843 2701.62 953.23 2884.7 c 0
 966.588 3338.75 974.171 3777.48 974.171 4043.1 c 0
 974.171 4164.93 972.576 4250.34 969.211 4284.1 c 0
 930.269 4656.1 845.787 4788.64 749.064 4788.64 c 0
 575.926 4788.64 363.564 4363.97 302.957 4127.92 c 0
 253.33 3934.65 176.964 3635.97 133.259 3464.17 c 0
 122.556 3422.11 111.742 3402.21 101.336 3402.21 c 0
 69.2414 3402.21 41.0376 3591.55 31.9844 3903.93 c 0
 30.785 3945.31 30.1862 3985.77 30.1862 4025.3 c 0
 30.1862 4838.16 283.31 5260.21 772.496 5260.21 c 0
 1217.29 5260.21 1451.98 4932.74 1451.98 4349.45 c 0xfa9c
 1451.98 4128.2 1418.22 3870.15 1349.34 3579.19 c 0
 1265.3 3224.16 1223.3 2907.13 1223.3 2628.26 c 0
 1223.3 2072.17 1390.33 1667.87 1724.16 1416.78 c 0
 1895.51 1287.9 2023.01 1225.22 2102.68 1225.22 c 0
 2166.9 1225.22 2200.05 1265.94 2200.05 1345.54 c 0
 2200.05 1431.1 2161.74 1561.6 2082.54 1734.73 c 0
 1943.68 2038.27 1880.81 2395.6 1880.81 2765.49 c 0
 1880.81 3876.03 2447.47 5099.85 3225.37 5321.52 c 0
 3430.55 5379.99 3626.12 5408.67 3808.96 5408.67 c 0xfcac
 4349.39 5408.67 4778.62 5158.11 5016.19 4685.58 c 2
 5299.5 4122.07 l 1
 5661.61 4616.94 l 2
 6040.12 5134.22 6610.49 5399.94 7153.83 5399.94 c 0
 7624.83 5399.94 8075.53 5200.26 8363.33 4791.67 c 0
 8700.08 4313.59 8746.39 3996.81 8746.39 1949.93 c 0
 8746.34 1824.31 l 0
 8745.25 492.898 8683.93 -824.844 8610.1 -1104.01 c 0
 8570.77 -1252.71 8548.2 -1358.76 8548.2 -1434.05 c 0
 8548.2 -1583.19 8636.8 -1611.59 8859.36 -1611.59 c 0
 9070.28 -1611.59 9406.42 -1538.83 9606.34 -1449.91 c 0
 9721.3 -1398.78 9815.59 -1373.04 9879.31 -1373.04 c 0
 9937.17 -1373.04 9969.81 -1394.27 9969.81 -1436.99 c 0
 9969.81 -1518.81 9605.12 -1701.51 9159.38 -1842.98 c 0
 8365.92 -2094.82 8332.23 -2135.47 7550.38 -3784.17 c 0
 6659.51 -5662.78 5073.2 -7858.67 4606.97 -7858.67 c 0
 4490.45 -7858.67 4429.96 -7845.38 4429.96 -7797.83 c 0
 4429.96 -7741.24 4515.62 -7636.13 4694.48 -7447.16 c 0xf9ac
7091.11 -4059.49 m 0
 7539.99 -3216.48 7769.47 -2728.95 7769.47 -2422.24 c 0
 7769.47 -2092.88 7504.85 -1972.04 6963.14 -1843.45 c 0
 6498.04 -1733.05 5547.21 -1088.16 4697.39 -807.6 c 0
 4131.39 -620.737 3742.46 -555.259 3435.08 -555.259 c 0
 2967.37 -555.259 2688.44 -706.858 2261.75 -813.101 c 0
 1520.14 -997.765 1156.26 -1382.96 1156.26 -1861.2 c 0
 1156.26 -2423.14 1658.67 -3113.53 2641.03 -3757.96 c 0
 5015.76 -5315.81 5070.31 -5362.42 5281.4 -6013.92 c 2
 5490.17 -6658.29 l 1
 5965.23 -5970.02 l 2
 6226.51 -5591.47 6733.16 -4731.73 7091.11 -4059.49 c 0
9526.34 -4063.09 m 0
 9269.17 -4007.66 9042.62 -3847.32 8939.82 -3647.99 c 0
 8892.31 -3555.86 8869.6 -3433.17 8869.6 -3326.58 c 0
 8869.6 -3198.11 8902.59 -3093.02 8964.86 -3093.02 c 0
 9003.9 -3093.02 9099.16 -3194.26 9176.57 -3318 c 0
 9322.54 -3551.35 9490.28 -3649.21 9744.29 -3649.21 c 0
 10012.6 -3649.21 10182.6 -3570.37 10320.8 -3381.88 c 0
 10385.2 -3293.95 10417.2 -3244.6 10417.2 -3195.59 c 0xf88d
 10417.2 -3147.41 10386.3 -3099.55 10324.8 -3015.67 c 0
 10155.6 -2784.76 9985.29 -2706.82 9512.83 -2644 c 0
 9268.01 -2611.46 9145.67 -2575.29 9145.67 -2539.05 c 0
 9145.67 -2502.39 9270.88 -2465.66 9521.17 -2432.54 c 0
 9988.88 -2370.65 10119.3 -2289.49 10119.3 -2060.22 c 0
 10119.3 -1840.83 9970.72 -1775 9475.25 -1774.81 c 0
 9098.72 -1774.66 9091.96 -1772.65 9091.78 -1645.82 c 0
 9091.78 -1537.01 9142.85 -1504.12 9436.66 -1422.9 c 0
 9618.49 -1372.63 9713.65 -1350.32 9807.21 -1350.32 c 0
 9874.65 -1350.32 9941.26 -1361.91 10038.9 -1382.99 c 0
 10435.3 -1468.56 10593 -1640.38 10593.3 -1987.29 c 0
 10593.3 -1996.01 l 0xf88e
 10593.3 -2267.29 10578.3 -2289.04 10348.1 -2389.98 c 0
 10113.7 -2492.75 10108.4 -2501.82 10230.3 -2589.34 c 0
 10743.9 -2957.87 10780.4 -2990.03 10780.4 -3315.39 c 0xf88d
 10780.4 -3334.19 10780.3 -3353.97 10780.1 -3374.85 c 0
 10778.6 -3575.18 10742.3 -3751.3 10699.5 -3766.24 c 0
 10656.6 -3781.18 10598.7 -3825.74 10570.7 -3865.27 c 0
 10507 -3955.26 10060.7 -4099.68 9849.45 -4099.68 c 0
 9842.56 -4099.63 l 0
 9755.61 -4098.28 9613.3 -4081.83 9526.34 -4063.09 c 0
EndSplineSet
Validated: 5
EndChar

StartChar: uni1B11
Encoding: 66 6929 66
Width: 9828
VWidth: 0
Flags: W
HStem: -7186.28 557.29<1513.77 2246.55> -3790.84 498.16<4158.09 6171.3> 1023.11 415.49<2152.82 3010.53> 3821.37 462.41<5571.1 5903.22> 4990.16 377.9<887.558 1232.61 3453.19 4547.4 6817.97 8075.32>
VStem: -190.115 231.89<-5065.49 -3758.07> 236.439 1442.63<4307.52 4996.61> 311.163 268.457<3482.2 4193.17> 2253.57 167.37<2165.24 3260.58> 2479.9 625.41<1068.03 1585.26> 8567.68 378.82<-6941.52 -5185.45> 9069.69 295.439<1920.45 3520.33>
LayerCount: 2
Fore
SplineSet
8542.21 -6461.04 m 0xfef0
 8558.84 -6299.12 8567.68 -6150.7 8567.68 -6014.2 c 0
 8567.68 -5142.05 8206.84 -4756.77 7213.29 -4446.16 c 0
 6531.06 -4232.87 5902.18 -3790.84 5117.9 -3790.84 c 0
 4614.87 -3790.84 4047.9 -3972.7 3361.92 -4513.4 c 1
 2635.43 -4859.47 2211.17 -5508.35 2211.17 -6232.48 c 0
 2211.17 -6351.32 2222.6 -6472.18 2245.99 -6594.07 c 0
 2285.25 -6798.65 2308.15 -6939.23 2308.15 -7031.9 c 0
 2308.15 -7144.41 2274.4 -7186.28 2195.2 -7186.28 c 0
 2151.18 -7186.28 2093.11 -7173.34 2019 -7152.41 c 0
 590.657 -6748.94 -190.115 -5532.44 -190.115 -4304.47 c 0
 -190.115 -3396.66 236.6 -2482.59 1143.85 -1886.12 c 0
 1752.42 -1486.02 2179.8 -1357.02 5289.93 -634.681 c 0
 8160.31 31.9805 9043.28 786.521 9069.41 2595.09 c 0
 9069.6 2608.08 9069.69 2621.08 9069.69 2634.09 c 0
 9069.69 3702.48 8439.44 4845.27 7581.88 5024.47 c 0
 7542.63 5032.67 7502.03 5036.56 7460.38 5036.56 c 0
 6877.73 5036.56 6090.85 4276.43 5931.54 3952.04 c 0
 5889.78 3867.01 5847.57 3821.37 5779.94 3821.37 c 0
 5683.27 3821.37 5534.65 3914.64 5261.14 4119.38 c 0
 4828.59 4443.17 4598.26 4972.93 4078.83 4972.93 c 0
 4045.6 4972.93 4011.18 4970.76 3975.45 4966.23 c 0
 3042.55 4847.94 2785.1 4120.68 2533.55 3390.77 c 0
 2457.96 3171.41 2420.94 2945.38 2420.94 2721.93 c 0
 2420.94 2273.23 2570.19 1834.95 2856.03 1482.1 c 0
 3017.96 1282.2 3105.31 1158.19 3105.31 1090.23 c 0
 3105.31 1043.31 3063.66 1023.11 2976.17 1023.11 c 0
 2892.04 1023.11 2765.52 1041.79 2592.87 1073.34 c 0
 1622.5 1250.68 1477.83 1488.97 1372.88 3082.88 c 0
 1295.05 4264.89 1315.97 4990.16 1082.49 4990.16 c 0
 889.358 4990.16 652.221 4357.48 579.62 3955.1 c 0
 520.753 3628.81 492.446 3479.45 453.672 3479.45 c 0
 421.356 3479.45 381.77 3583.2 311.163 3774.73 c 0xfdf0
 259.676 3914.4 236.439 4058.3 236.439 4199.8 c 0
 236.439 4805.8 662.584 5368.06 1121.17 5368.06 c 0
 1229.01 5368.06 1338.65 5336.97 1444.96 5268.03 c 0
 1609.66 5161.22 1679.07 4996.61 1679.07 4538.67 c 0
 1679.07 4307.52 1661.39 4001.63 1629.35 3590.72 c 0
 1605.82 3289.01 1593.68 3023.21 1593.68 2790.79 c 0
 1593.68 1829.08 1801.58 1438.6 2271.3 1438.6 c 0
 2413.56 1438.6 2479.9 1470.86 2479.9 1558.94 c 0
 2479.9 1611.59 2456.2 1684.19 2410.83 1781.76 c 0
 2323.85 1968.83 2253.57 2594.14 2253.57 3176.92 c 0
 2253.59 3192.52 l 0
 2256.77 4657.14 2729.74 5312.12 3822.5 5365.18 c 0
 3901.2 5369 3975.89 5371.01 4047.01 5371.01 c 0
 4760.75 5371.01 5113.92 5168.63 5530.77 4565.16 c 0
 5656.96 4382.47 5758.28 4283.78 5812.21 4283.78 c 0
 5838.16 4283.78 5853.14 4306.62 5854.64 4353.95 c 0
 5858.94 4489.43 6044.51 4781.12 6267.02 5002.14 c 0
 6541.63 5274.91 7002.2 5415.48 7465.62 5415.48 c 0
 7859.12 5415.48 8254.67 5314.13 8540.2 5106.29 c 0
 9106.1 4694.36 9365.13 3910.76 9365.13 3042.98 c 0
 9365.13 1663.65 8710.71 71.6356 7594.03 -578.531 c 0
 7230.8 -790.014 5668.01 -1015.78 4321.06 -1328.96 c 0
 2979.07 -1640.99 1740.41 -2255.66 1354.59 -2450.44 c 0
 486.912 -2888.5 41.7751 -3627.33 41.7751 -4402.42 c 0
 41.7751 -5063.02 365.13 -5749.96 1025.83 -6299.46 c 0
 1285.4 -6515.34 1475.82 -6628.99 1617.01 -6628.99 c 0
 1838.66 -6628.99 1938.94 -6348.87 1994.89 -5744.52 c 0
 2135.22 -4228.79 3359.47 -3292.68 5198.94 -3292.68 c 0
 5218.36 -3292.71 l 0
 6942.9 -3298.88 8583.17 -4187.55 8890.96 -5282.48 c 0
 8929.14 -5418.3 8946.5 -5593.89 8946.5 -5785.18 c 0
 8946.5 -6324.76 8808.37 -6989.21 8609.81 -7238.13 c 0
 8595.12 -7256.54 8581.99 -7265.48 8570.47 -7265.48 c 0
 8531.15 -7265.48 8510.55 -7161.38 8510.55 -6974.63 c 0
 8510.55 -6842.35 8520.88 -6668.61 8542.21 -6461.04 c 0xfef0
EndSplineSet
Validated: 1
EndChar

StartChar: uni1B14
Encoding: 68 6932 68
Width: 13260
VWidth: 0
Flags: W
HStem: 244.417 267.987<4217.17 5294.85> 620.544 365.812<10441.7 11946.7> 2106.63 907.65<2131.54 2434.19> 4691.03 640.68<707.368 1365.8> 4911.57 453.3<4390.02 6333.02>
VStem: 16.6611 279.611<3364.22 3534.54> 390.447 1513.76<578.925 1774.48> 5704.09 268.21<1006.08 1920.05> 7580.82 5052.58<7.13096 2361.5>
LayerCount: 2
Fore
SplineSet
12091.5 334.742 m 0xef80
 11831.3 528.504 11698.4 620.544 11444.2 620.544 c 0
 11216 620.544 10890.1 546.376 10286.7 405.045 c 0
 9774.8 285.135 9351.67 220.535 9004.44 220.535 c 0
 7927.61 220.535 7580.82 841.826 7580.82 2361.5 c 1
 7549.52 3971.23 6592.97 4911.57 5394.29 4911.57 c 0xef80
 4683.82 4911.57 3888.3 4581.22 3149.96 3864.1 c 1
 2900.52 3641.97 2756.95 3496.81 2756.95 3391.91 c 0
 2756.95 3256.53 2996.09 3188.21 3555.44 3108.03 c 1
 4839.26 2863.5 5972.3 2589.57 5972.3 1370.64 c 0
 5972.3 1287.76 5967.07 1200.51 5956.28 1108.6 c 1
 5956.28 517.332 5511.75 244.417 4941.25 244.417 c 0
 4187.42 244.417 3213.64 720.907 2754.78 1569.06 c 0
 2560.25 1928.62 2353.56 2106.63 2192.64 2106.63 c 0
 2022.99 2106.63 1904.21 1908.76 1904.21 1517.17 c 0
 1904.21 929.482 1467.39 120.435 1150.11 120.435 c 0
 825.219 120.435 390.447 696.871 390.447 1127.6 c 0
 390.447 1374.96 679.312 1871.96 1052.72 2267 c 1
 1392.15 2630.14 1526.35 3160.29 1526.35 3632.26 c 0
 1526.35 4204.4 1329.15 4691.03 1061.33 4691.03 c 0
 831.646 4691.03 550.013 4333.11 296.272 3364.22 c 1
 16.6611 2562.12 l 1
 102.87 3534.54 l 2
 207.898 4719.43 626.728 5331.71 1054.36 5331.71 c 0xf780
 1443.22 5331.71 1839.37 4825.4 2013.43 3782.96 c 0
 2084.03 3360.19 2198.39 3014.28 2267.59 3014.28 c 0
 2336.77 3014.28 2496.19 3381.75 2621.87 3830.86 c 0
 2932 4939.18 3662.45 5363.95 5259.88 5364.87 c 0
 5272.86 5364.87 l 0
 6282.54 5364.87 6519.86 5296.66 7019.65 4868.16 c 0
 7515.11 4443.39 7629.62 4172.77 7804.2 3014.28 c 0
 7916.63 2268.21 8081.46 1569.46 8170.49 1461.48 c 0
 8268.75 1342.31 8823.41 819.02 9696.89 819.02 c 0
 9736.93 819.02 9777.64 820.119 9819.01 822.408 c 0
 10669.4 869.472 11210.7 986.356 11594.3 986.356 c 0
 11969.2 986.356 12193.6 874.652 12408.8 476.813 c 0
 12551 214.075 12633.4 60.8889 12633.4 7.13096 c 0
 12633.4 -7.60749 12627.2 -14.8724 12614.3 -14.8724 c 0
 12561.8 -14.8724 12398.1 106.409 12091.5 334.742 c 0xef80
5368.74 706.826 m 0
 5534.51 872.41 5704.09 1208.59 5704.09 1523.87 c 0
 5704.09 1757.59 5610.91 1979.82 5353.9 2112.58 c 0
 4963.31 2314.34 4146.72 2738.83 3517.85 2738.83 c 0
 3133.83 2738.83 2819.81 2580.54 2715.55 2116.57 c 0
 2707.43 2080.43 2703.47 2044.16 2703.47 2007.76 c 0
 2703.47 1663.19 3058.19 1307.72 3591.09 945.989 c 0
 4009.87 661.743 4451.33 512.404 4808.23 512.404 c 0
 5040.91 512.404 5237.65 575.878 5368.74 706.826 c 0
EndSplineSet
Validated: 1
EndChar

StartChar: uni1B16
Encoding: 69 6934 69
Width: 9894
VWidth: 0
Flags: W
HStem: 94.1592 858.312<1183.25 1547.23> 105.083 549.041<3243.23 4165.7> 153.09 677.123<6581.82 7551.36> 1641.39 974.81<4884.47 5764.44> 4721.02 665.86<486.072 903.82> 4854.75 532.09<6924.8 7594.42>
VStem: 998.053 891.157<311.622 1772.52> 1037.19 245.83<2203.73 4385.14> 2564.57 182.07<1752.6 3650.72> 6307.19 615.19<4449.26 4851.73> 7830.97 292.73<1261.07 3042.56> 8959.25 97.7598<161.219 2161.89> 9057.01 25.3105<5.94922 1438.49>
LayerCount: 2
Fore
SplineSet
1160.15 305.862 m 4x92f8
 1055.83 423.51 998.053 876.945 998.053 1556.95 c 0
 998.053 1650.32 999.142 1747.95 1001.35 1849.58 c 4
 1017.53 2594.01 1028.2 3055.75 1046.4 3055.75 c 0
 1056.1 3055.75 1067.93 2924.92 1083.86 2636.25 c 4
 1113.32 2102.55 1171.53 1132.74 1213.22 1000.52 c 4
 1223.58 967.655 1236.21 952.471 1250.66 952.471 c 0
 1396.53 952.471 1728.69 2499.08 1800.14 3025.77 c 4
 1803.59 3051.19 1806.99 3062.97 1810.34 3062.97 c 0
 1845.38 3062.97 1874.45 1772.52 1887.65 1320.3 c 4
 1888.69 1284.55 1889.21 1249.29 1889.21 1214.57 c 0
 1889.21 560.023 1706.46 94.1592 1441.75 94.1592 c 4
 1390.13 94.1592 1263.4 189.426 1160.15 305.862 c 4x92f8
3366.41 272.659 m 4
 2817.71 521.848 2564.57 1172.07 2564.57 2375.42 c 0
 2564.57 2587.19 2572.41 2816.08 2587.86 3062.94 c 5
 2681.02 3977.58 2741.9 4493.57 2741.9 4722.65 c 0
 2741.9 4822.58 2730.31 4867.92 2704.76 4867.92 c 0
 2653.95 4867.92 2547.91 4688.58 2367.97 4402.92 c 5
 2209.71 4241.4 2048.33 3625.5 1978.79 3217.57 c 6
 1852.36 2475.88 l 5
 1715.57 2093.37 l 5
 1706.05 2188.5 1701.49 2294.33 1701.49 2407.9 c 0
 1701.49 3394.79 2045.49 4966.06 2464.58 5181.39 c 4
 2738.74 5322.26 2933.63 5394.05 3056.46 5394.05 c 0
 3166.06 5394.05 3218.3 5336.9 3218.3 5220.67 c 0
 3218.3 5145.93 3196.7 5046.75 3154.85 4922.63 c 4
 2883.22 4116.96 2746.64 3316.95 2746.64 2631.03 c 0
 2746.64 1482.69 3129.45 654.124 3902.29 654.124 c 4
 4143.16 654.124 4427.9 1452.6 4483.71 1650.87 c 4
 4533.51 1827.83 4717.63 2146.16 4892.85 2358.25 c 4
 5035.67 2531.13 5182.9 2616.2 5327.87 2616.2 c 0
 5572.76 2616.2 5811.2 2373.44 6011.03 1901.08 c 4
 6212.15 1425.68 6702.77 830.213 7146.9 830.213 c 0
 7263.54 830.213 7376.96 871.279 7481.1 966.369 c 4
 7725.35 1189.41 7830.97 1602.54 7830.97 2064.8 c 0
 7830.97 3078.44 7323.11 4328.33 6655.44 4328.33 c 4
 6423.32 4328.33 6307.19 4393.22 6307.19 4520.95 c 0
 6307.19 4638.92 6406.25 4810.48 6604.48 5034.03 c 4
 6818.52 5275.4 7091.29 5386.84 7375.43 5386.84 c 0
 7954.46 5386.84 8580.73 4924.07 8853.56 4155.12 c 4
 9015.99 3697.35 9085.24 3096.23 9085.24 2097.35 c 0
 9085.24 1978.21 9084.25 1853.41 9082.32 1722.51 c 6
 9057.01 5.94922 l 5
 8959.25 1593.76 l 6
 8905.48 2467.05 8775.52 3356.13 8670.45 3569.49 c 4
 8427.6 4062.61 7371.64 4854.75 6994.44 4854.75 c 4
 6944.23 4854.75 6922.38 4839.9 6922.38 4812.55 c 0
 6922.38 4697.16 7311.04 4359.23 7598 3974.66 c 4
 7951.75 3500.56 8123.7 2815.51 8123.7 2155.48 c 0
 8123.7 1390.19 7892.54 658.528 7445.61 328.29 c 4
 7289.2 212.719 7144.45 153.09 7003.69 153.09 c 0x34f8
 6708.07 153.09 6430.06 416.098 6098.62 976.281 c 4
 5836.92 1418.6 5573.58 1641.39 5325.29 1641.39 c 0
 5131.88 1641.39 4947.61 1506.21 4780.36 1234.29 c 4
 4383.17 588.572 3977.09 105.083 3833.22 105.083 c 0x50f8
 3831.28 105.083 3829.4 105.17 3827.56 105.345 c 4
 3763.03 111.482 3555.51 186.781 3366.41 272.659 c 4
39.8594 3980.34 m 6
 39.7979 3986.59 39.7673 3992.84 39.7673 3999.09 c 0
 39.7673 4675.5 397.584 5386.88 741.111 5386.88 c 4
 1042.13 5386.88 1283.02 4827.44 1283.02 4131.33 c 0
 1283.02 4127.36 1283.02 4123.38 1283 4119.4 c 4
 1281.49 3736.64 1170.08 1871.71 1097.78 1871.71 c 0
 1062.95 1871.71 1037.19 2304.71 1037.19 3545.17 c 0
 1037.19 3614.74 1037.28 3686.84 1037.44 3761.56 c 5
 942.34 4472.31 831.999 4721.02 716.804 4721.02 c 0x19f8
 569.471 4721.02 414.198 4314.18 272.713 3946.77 c 6
 45.9824 3358 l 5
 39.8594 3980.34 l 6
EndSplineSet
Validated: 5
EndChar

StartChar: uni1B19
Encoding: 70 6937 70
Width: 9960
VWidth: 0
Flags: W
HStem: 32.9349 598.855<505.065 1606.2> 40.4189 433.356<5370.31 6759.23> 4684.82 707.24<7705.54 8402.19> 4892.55 469.52<1276.54 3216.86>
VStem: -53.6884 370.983<927.294 3711.12> 1879.61 71.1901<1641.42 2716.23> 1950.8 34.0699<1830.95 2716.23> 7594.03 456.13<1821.71 4658.88> 8902.03 301.66<202.988 3190.95>
LayerCount: 2
Fore
SplineSet
213.117 680.367 m 0x9f80
 37.7679 1089.98 -53.6884 1849.26 -53.6884 2551.51 c 0
 -53.6884 3152.28 13.2474 3711.33 151.855 3974 c 0
 635.025 4889.65 1366.01 5362.07 2274.37 5362.07 c 0x9f80
 2556.07 5362.07 2854.83 5316.64 3168.54 5224.9 c 0
 4060.96 4963.93 4287.81 4591.28 4287.81 3386.27 c 0
 4287.81 2396.57 4625.55 2068.27 4914.12 1292.63 c 1
 5121.18 725.151 5593.45 473.775 6055.63 473.775 c 0
 6531.02 473.775 6995.75 739.734 7150.22 1201.21 c 1
 7460.72 2194.75 7594.03 1989.71 7594.03 3580.86 c 0
 7594 3623.4 l 0
 7593.98 3652.31 l 0
 7593.98 4611.88 7662.85 5392.06 7748.24 5392.06 c 0
 7834.48 5392.06 8076.82 5302.33 8286.75 5192.66 c 0
 8939.99 4851.45 9203.69 3893.29 9203.69 1860.98 c 0
 9203.69 719.312 9151.89 142.204 9087.61 142.204 c 0
 9025.6 142.204 8951.98 679.27 8902.03 1764.67 c 0
 8823.68 3467.48 8497.19 4684.82 8103.68 4684.82 c 0
 8005 4684.82 7972.48 4509.5 7972.48 4227.03 c 0
 7972.48 3960.2 8001.5 3597.74 8031.19 3197.13 c 0
 8043.86 3026.17 8050.16 2861.74 8050.16 2703.95 c 0
 8050.16 973.345 7292.38 40.4189 5869.42 40.4189 c 0x6f80
 4670.87 40.4189 4366.59 420.713 4203.15 2123.02 c 0
 4031.6 3910 3754.22 4892.55 2171.46 4892.55 c 0
 666.18 4892.55 317.295 3811 317.295 2164.77 c 0
 317.295 1105.81 492.527 631.79 923.694 631.79 c 0
 1045.47 631.79 1187.65 669.6 1352.07 742.721 c 0
 1723.84 908.033 1821.63 1109.78 1879.61 1830.95 c 2
 1950.8 2716.23 l 1
 1984.87 1683.73 l 2
 1988.18 1583.47 1989.93 1490.96 1989.93 1405.36 c 0
 1989.93 812.275 1905.84 551.317 1673.19 345.829 c 0
 1435.63 135.994 1200.92 32.9349 985.275 32.9349 c 0
 670.441 32.9349 396.237 252.601 213.117 680.367 c 0x9f80
EndSplineSet
Validated: 1
EndChar

StartChar: uni1B1D
Encoding: 72 6941 72
Width: 9927
VWidth: 0
Flags: W
HStem: -748.681 574.357<2407.17 4197.94> 2882.79 303.82<2472.88 3240.75> 4090.51 379.31<5531.91 5974.85> 4947.5 451.32<649.008 1271.06 7169.82 8280.56> 4966.52 451.48<3657.77 4841.1>
VStem: 110.451 356.8<2366.49 3269.35> 1189.11 481.47<4416.79 5000.07> 2702.14 252.3<3980.01 4320.46> 3249.83 370.38<2438.16 2869.49> 9010.05 117.311<1889.15 2976.58>
LayerCount: 2
Fore
SplineSet
2663.75 -688.965 m 0xf7c0
 2004.41 -551.355 1617.27 -28.6289 1554.85 808.295 c 0
 1516.57 1321.46 1441.59 1432.09 1019.45 1598.13 c 0
 409.512 1838.05 110.451 2147.36 110.451 2591.38 c 0
 110.451 2925.08 279.374 3334.87 612.203 3848.47 c 0
 888.252 4274.44 1189.11 4853.97 1189.11 4891.86 c 0
 1189.11 4930.77 1159.07 4947.5 1109.68 4947.5 c 0
 910.918 4947.5 398.777 4676.48 269.919 4488.93 c 0
 167.212 4339.44 46.085 4246.01 0.746094 4281.32 c 0
 -18.4929 4296.31 -27.36 4319.16 -27.36 4348.12 c 0
 -27.36 4576.63 524.741 5185.64 889.523 5315.1 c 0
 1043.51 5369.76 1150.23 5398.82 1236.45 5398.82 c 0
 1353.03 5398.82 1432.14 5345.68 1539.96 5230.81 c 0
 1624.21 5141.05 1670.58 5052.65 1670.58 4944.33 c 0
 1670.58 4714.38 1461.62 4394.68 962.651 3781.79 c 0
 627.125 3369.66 467.251 3110.84 467.251 2909.85 c 0
 467.251 2753.28 564.27 2631.8 750.847 2500.27 c 1
 1037.38 2183.58 1216.51 2067.64 1337.68 2067.64 c 0
 1578.85 2067.64 1590.36 2526.96 1762.02 2776.81 c 0
 1940.69 3036.87 2643.19 3186.61 3101.06 3186.61 c 0
 3251.75 3186.61 3375.94 3170.39 3446.24 3136.55 c 0
 3564.74 3079.5 3620.21 2939.59 3620.21 2769.04 c 0
 3620.21 2515.95 3498.07 2195.4 3278.5 1977.96 c 0
 3088.68 1789.97 2693.43 1588.09 2400.17 1529.32 c 0
 1968.22 1442.76 1857.47 1348.33 1817 1032.06 c 0
 1813.21 1002.42 1811.35 972.915 1811.35 943.604 c 0
 1811.35 344.594 2585.36 -174.324 3382.7 -174.324 c 0
 3521.21 -174.324 3660.43 -158.663 3796.42 -125.042 c 0
 3987.61 -77.7734 4365.73 199.307 4636.7 490.684 c 0
 4866.42 737.715 5016.09 855.142 5080.38 855.142 c 0
 5104.32 855.142 5116.43 838.865 5116.43 806.939 c 0
 5116.43 712.72 5010.99 482.212 4793.09 131.564 c 0
 4432.13 -449.271 3889.64 -748.681 3212.3 -748.681 c 0
 3038.1 -748.681 2854.99 -728.878 2663.75 -688.965 c 0xf7c0
3127.61 2485.6 m 0
 3209.29 2562.26 3249.83 2627.43 3249.83 2686.36 c 0
 3249.83 2735.36 3221.79 2780.06 3166.06 2823.47 c 0
 3113.49 2864.43 3039.07 2882.79 2954.51 2882.79 c 0
 2694 2882.79 2337.25 2708.5 2226.5 2483.69 c 0
 2215.68 2461.72 2210.62 2441.53 2210.62 2423.14 c 0
 2210.62 2328.35 2344.92 2281.06 2516.45 2281.06 c 0
 2722.58 2281.06 2982.47 2349.36 3127.61 2485.6 c 0
9010.05 2284.59 m 0
 8966.9 3340.97 8737.97 4451.57 8310.61 4752.84 c 0
 8203.83 4828.11 8059.64 4859.71 7894.1 4859.71 c 0
 7359.61 4859.71 6602.51 4530.37 6163.3 4278.42 c 0
 5942.76 4151.91 5826.29 4090.51 5725.16 4090.51 c 0
 5631.04 4090.51 5550.22 4143.7 5411.17 4247.11 c 0
 5244.12 4371.35 4742.69 4926.66 4449.66 4961.68 c 0
 4422.32 4964.95 4394.23 4966.52 4365.53 4966.52 c 0
 3785.35 4966.52 2954.44 4325.4 2954.44 4115.76 c 0
 2954.44 4040.43 2889.59 3978.79 2810.32 3978.79 c 0
 2735.47 3978.79 2702.14 4025.67 2702.14 4101.69 c 0
 2702.14 4311.73 2956.61 4744.17 3292.77 5024.49 c 0
 3607.42 5286.88 3935.71 5418 4257.53 5418 c 0xefc0
 4584.79 5418 4905.37 5282.41 5198.15 5011.38 c 0
 5436.37 4790.85 5631.28 4553.79 5631.28 4484.6 c 0
 5631.28 4474.6 5637.32 4469.82 5648.73 4469.82 c 0
 5716.27 4469.82 5971.88 4637.69 6274.57 4885.57 c 0
 6713.42 5244.93 7113.82 5423.68 7501.86 5423.68 c 0
 7829.47 5423.68 8148.27 5296.27 8473.95 5042.57 c 0
 8941.94 4678.02 9127.36 4186.11 9127.36 3172.17 c 0
 9127.36 2964.5 9119.58 2734.93 9104.86 2480.07 c 0
 9073.53 1937.5 9058.38 1679.98 9046.08 1679.98 c 0
 9035.01 1679.98 9026.24 1888.19 9010.05 2284.59 c 0
EndSplineSet
Validated: 1
EndChar

StartChar: uni1B1E
Encoding: 73 6942 73
Width: 9828
VWidth: 0
Flags: W
HStem: -67.2987 604.34<1858.81 3295.62> 3959.25 361.51<5402.04 5713.92> 4933.53 482.8<488.51 1015.81 3310.29 4528.65 6876.33 8239.97>
VStem: 49.1508 279.705<3360.75 4650.85> 744.508 526.792<1361.63 4164.95> 1030.93 240.37<3551.36 4666.63> 2374 246.83<3830.25 4225.7> 8905.65 120.199<1266.17 2547.86>
LayerCount: 2
Fore
SplineSet
1998.95 15.2275 m 0xfb
 1800.15 87.834 1421.25 381.902 1156.9 668.713 c 1
 879.333 1193.01 744.508 1255.25 744.508 1771.47 c 0xfb
 744.508 1911.21 754.387 2084.2 773.986 2308.62 c 0
 827.709 2923.76 922.148 3694.56 983.876 4021.52 c 0
 1014.42 4183.32 1030.93 4344.38 1030.93 4486.47 c 0xf7
 1030.93 4761.88 968.915 4966 826.91 4966 c 0
 457.798 4966 328.856 4379.46 328.856 3702.36 c 0
 328.856 3408.07 316.662 3277.04 272.517 3277.04 c 0
 245.732 3277.04 207.184 3325.28 152.461 3414.55 c 0
 81.2209 3530.77 49.1508 3731.59 49.1508 3959.26 c 0
 49.1508 4408.52 174.027 4962.34 369.227 5177.08 c 0
 485.006 5304.44 774.837 5408.64 1013.31 5408.64 c 2
 1446.87 5408.64 l 1
 1324.62 3771.11 l 2
 1289.92 3306.28 1271.3 2949.77 1271.3 2662.45 c 0
 1271.3 2143.48 1332.04 1850.22 1468.49 1552.08 c 1
 1667.02 836.181 2056.25 537.041 2502.76 537.041 c 0
 2995.72 537.041 3558.49 901.657 4011.51 1472.61 c 0
 4254.53 1778.91 4412.66 1924.77 4480.1 1924.77 c 0
 4504.87 1924.77 4517.41 1905.08 4517.41 1866.43 c 0
 4517.41 1752.23 4408.02 1472.49 4181.81 1045.85 c 0
 3818.45 360.562 3129.48 -67.2987 2475.89 -67.2987 c 0
 2312.84 -67.2987 2151.99 -40.6719 1998.95 15.2275 c 0xfb
8905.65 1762.49 m 0
 8860.87 3047.51 8598.27 4426.07 8154.74 4792.54 c 0
 8047.23 4881.37 7904.49 4918.74 7741.14 4918.74 c 0
 7192.46 4918.74 6411.21 4497.15 5951.15 4187.85 c 0
 5722.26 4033.95 5601.38 3959.25 5496.43 3959.25 c 0
 5398.75 3959.25 5314.87 4023.96 5170.56 4149.76 c 0
 4997.18 4300.9 4406.51 4884.39 4102.38 4926.99 c 0
 4070.78 4931.42 4038.42 4933.53 4005.46 4933.53 c 0
 3410.46 4933.53 2620.83 4243.57 2620.83 3989.99 c 0
 2620.83 3898.35 2544.63 3823.36 2451.49 3823.36 c 0
 2399.79 3823.36 2374 3860.54 2374 3930 c 0
 2374 4004.58 2403.74 4116.38 2463.05 4259.31 c 0
 2780.57 5024.48 3339.45 5416.33 3927.67 5416.33 c 0
 4439.24 5416.33 4973 5119.95 5389.48 4515 c 0
 5479.71 4383.93 5537.79 4320.76 5585.48 4320.76 c 0
 5625.05 4320.76 5657.46 4364.23 5695.16 4448.47 c 0
 5969.64 5061.79 6675.89 5417.3 7355.99 5417.3 c 0
 7754.1 5417.3 8143.25 5295.48 8431.58 5032.23 c 0
 8845.59 4654.25 9025.85 4005.59 9025.85 2802.87 c 0
 9025.85 2558.92 9018.44 2292.19 9004.05 2000.29 c 0
 8971.53 1340.29 8955.82 1027.04 8943.04 1027.04 c 0
 8931.56 1027.04 8922.45 1280.31 8905.65 1762.49 c 0
EndSplineSet
Validated: 1
EndChar

StartChar: uni1B1F
Encoding: 74 6943 74
Width: 10068
VWidth: 0
Flags: W
HStem: 26.8028 498.273<1319.65 2485.81 5912 6858.93> 1672.83 1089.4<3662.09 4693.25> 4874.76 493.97<7177.79 7895.01> 5085.69 280.61<1249.55 1704.26>
VStem: 484.935 449.988<953.913 2445.39> 1728.32 466.08<4236.31 5060.94> 7399.91 266.79<1919.93 4431.63> 8770.15 455.96<350.357 3711.63>
LayerCount: 2
Fore
SplineSet
1016.25 459.953 m 0xef
 662.277 750.39 484.935 1067.94 484.935 1487.97 c 0
 484.935 1917.43 670.32 2454.01 1041.85 3178.29 c 0
 1368.13 3814.36 1728.32 4648.35 1728.32 4941.5 c 0
 1728.32 4988.16 1719.2 5021.11 1699.36 5037.39 c 0
 1659.07 5070.45 1612.27 5085.69 1560.5 5085.69 c 0
 1215.78 5085.69 650.865 4409.88 321.506 3819.27 c 2
 -1.10645 3240.77 l 1
 140.602 3887.67 l 2
 348.083 4834.84 832.834 5366.3 1489.27 5366.3 c 0xdf
 1960.01 5366.3 2194.4 5225.01 2194.4 4918.97 c 0
 2194.4 4644.47 2005.83 4237.43 1630.11 3680.92 c 0
 1166.39 2994.06 934.923 2304.35 934.923 1745.66 c 0
 934.923 1026.95 1317.98 525.076 2082.38 525.076 c 0
 2569.96 525.076 2837.4 1465.3 3279.08 2039.39 c 0
 3649.08 2520.3 3888.69 2762.23 4151.03 2762.23 c 0
 4373.7 2762.23 4612.74 2587.94 4961.78 2237.57 c 1
 5359.89 1448.95 5857.71 525.311 6426.23 525.311 c 0
 6489.39 525.311 6553.43 536.711 6618.29 560.961 c 0
 7036.73 717.395 7226 1662.68 7343.73 2306.84 c 0
 7382.15 2517.06 7399.91 2774.65 7399.91 3050.45 c 0
 7399.91 3797.39 7269.6 4677.9 7066.26 5112.69 c 0
 7047.67 5152.45 7039.01 5187.33 7039.01 5217.5 c 0
 7039.01 5320.58 7140.03 5368.73 7291.2 5368.73 c 0
 7559.85 5368.73 7986.86 5216.63 8286.55 4950.43 c 0
 8886.75 4417.3 9226.11 3380.1 9226.11 2090.01 c 0
 9226.11 2042.66 9225.65 1994.98 9224.73 1946.97 c 0
 9204.58 892.989 9110.04 346.76 9008.92 346.76 c 0
 8918.36 346.76 8822.52 784.994 8770.15 1689.11 c 0
 8695.75 2973.74 8755.9 3678.89 8464.11 4044.29 c 0
 8252.17 4309.7 7682.85 4874.76 7572.44 4874.76 c 0
 7567.32 4874.76 7563.18 4873.54 7560.12 4871.03 c 0
 7546.53 4859.88 7540.95 4800.89 7540.95 4706.35 c 0
 7540.95 4319.66 7634.24 3338.1 7653.97 2601.8 c 0
 7661.6 2316.98 7666.7 2079.61 7666.7 1879.19 c 0
 7666.7 983.615 7564.88 826.026 7132.21 471.02 c 0
 6820.69 215.409 6424.87 6.27344 6252.6 6.27344 c 0
 5871.82 6.27344 5374.21 473.799 5010.18 1173.58 c 0
 4835.09 1510.15 4540.23 1672.83 4224.56 1672.83 c 0
 3838.39 1672.83 3421.07 1429.39 3153.73 963.041 c 0
 2794.68 336.719 2413.12 26.8028 1981.46 26.8028 c 0
 1686.13 26.8028 1367.34 171.879 1016.25 459.953 c 0xef
EndSplineSet
Validated: 1
EndChar

StartChar: uni1B20
Encoding: 75 6944 75
Width: 8475
VWidth: 0
Flags: W
HStem: -27.8706 631.951<1215.29 2506.62 5988.68 7027.27> 2131.89 607.43<3761.16 4651.62> 5103.48 349.39<1213.99 1785.2>
VStem: 437.104 440.196<1004.54 2422.58> 1799.22 388.77<4411.42 5070.38> 7336.79 423.92<1035.05 4992.85>
LayerCount: 2
Fore
SplineSet
981.293 416.734 m 0
 618.742 714.855 437.104 1040.81 437.104 1471.96 c 0
 437.104 1912.77 626.977 2463.55 1007.5 3206.99 c 0
 1349.16 3874.45 1799.22 4704.02 1799.22 4974.06 c 0
 1799.22 5010.21 1791.16 5036.33 1773.69 5050.7 c 0
 1729.74 5086.84 1676.44 5103.48 1616.2 5103.48 c 0
 1243.15 5103.48 603.762 4465.25 269.711 3864.93 c 2
 -60.7168 3271.11 l 1
 84.4268 3935.13 l 2
 296.941 4907.35 793.436 5452.87 1465.78 5452.87 c 0
 1947.92 5452.87 2187.99 5307.84 2187.99 4993.71 c 0
 2187.99 4711.95 1994.85 4294.14 1610.02 3722.91 c 0
 1124.23 3001.8 877.3 2301.75 877.3 1748.2 c 0
 877.3 1064.32 1254.21 604.08 2023.25 604.08 c 0
 2524.31 604.08 2847.08 1449.36 3308.15 2049.95 c 0
 3660.75 2509.24 3961.21 2739.32 4241.47 2739.32 c 0
 4530.85 2739.32 4798.7 2494.01 5080.17 2002.46 c 0
 5480.4 1303.5 6041.19 638.206 6549.58 638.206 c 0
 6704.41 638.206 6854.37 699.908 6993.46 841.153 c 0
 7254.96 1106.7 7336.79 1631.04 7336.79 2419.25 c 0
 7336.79 2787.23 7318.96 3212.73 7293.24 3696.25 c 0
 7275.07 4037.82 7265.95 4323.24 7265.95 4553.35 c 0
 7265.95 5039.85 7306.72 5279.11 7388.98 5279.11 c 0
 7402.59 5279.11 7417.33 5272.57 7433.21 5259.51 c 0
 7634.92 5093.64 7760.71 3727.84 7760.71 2542.7 c 0
 7760.71 1782.93 7709.01 1097.4 7592.48 849.888 c 0
 7456.79 561.662 7084.54 227.963 6765.27 108.342 c 0
 6616.36 52.5511 6471.88 24.7588 6332.18 24.7588 c 0
 5825.18 24.7588 5381.2 390.811 5017.39 1113.06 c 1
 4760.07 1826.6 4498.97 2131.89 4228.09 2131.89 c 0
 3894.19 2131.89 3545.43 1668.03 3170.55 933.139 c 1
 2802.81 290.243 2412.01 -27.8706 1969.89 -27.8706 c 0
 1667.4 -27.8706 1340.89 121.043 981.293 416.734 c 0
EndSplineSet
Validated: 1
EndChar

StartChar: uni1B21
Encoding: 76 6945 76
Width: 10125
VWidth: 0
Flags: W
HStem: 226.542 559.997<7863.81 8270.53> 2565.82 545.74<654.348 1501.81> 2864.81 1023.85<4375.04 5172.3> 4596.8 763.11<2471.39 3721.4> 4794.9 658.34<5936.91 7172.18 8391.03 8618.68>
VStem: 7566.04 269.5<844.191 3941> 8381.7 212.92<1082.94 3510.76> 9170.42 145.25<-24.138 2758.8>
LayerCount: 2
Fore
SplineSet
9170.42 1759.02 m 2xaf
 9110.28 2975 9000.09 3727.56 8835.58 4045.7 c 1
 8643.61 4538.22 8523.89 4732.55 8457.6 4732.55 c 0
 8410.63 4732.55 8390.49 4634.97 8390.49 4476.75 c 0
 8390.49 4290.57 8418.38 4020.45 8463.24 3726.56 c 0
 8552.51 3141.84 8594.62 2582.71 8594.62 2089.67 c 0
 8594.62 995.274 8387.14 226.542 8027.36 226.542 c 0
 7642.68 226.542 7566.04 570.221 7566.04 2295.15 c 0
 7566.04 4030.49 7374.28 4794.9 6517.04 4794.9 c 0
 5971.2 4794.9 5794.74 4397.65 5343.94 3434.2 c 0
 5165.92 3053.75 4968.57 2864.81 4772.49 2864.81 c 0xaf
 4550.84 2864.81 4330.82 3106.21 4142.17 3585.27 c 1
 3899.64 4297.49 3513.95 4596.8 3120.68 4596.8 c 0
 2648.53 4596.8 2165.47 4165.36 1906.16 3499.12 c 1
 1702.71 2882.06 1412.42 2565.82 1056.78 2565.82 c 0
 951.185 2565.82 839.833 2593.7 723.281 2649.85 c 0
 350.949 2829.24 134.333 3289.7 134.333 3860.2 c 0
 134.333 3977.69 143.521 4099.85 162.428 4225.18 c 2
 241.837 4751.58 l 1
 435.119 4169.07 l 2
 599.67 3673.15 580.672 3111.56 1023.24 3111.56 c 0
 1498.29 3111.56 1696.89 3662.98 2002.37 4473.23 c 0
 2335.17 5355.98 2339.9 5359.91 3071.8 5359.91 c 0xd7
 3764.93 5359.91 3820.62 5323.21 4046.18 4717.88 c 0
 4252.34 4164.59 4503.7 3888.66 4770.95 3888.66 c 0
 5050.85 3888.66 5348.18 4191.35 5629.28 4795.08 c 0
 5888.01 5350.76 6016.79 5453.24 6456.27 5453.24 c 0
 6775.7 5453.24 7087.63 5312.81 7263.66 5089.76 c 0
 7607.62 4653.88 7857.41 3551.25 7857.41 2518.53 c 0
 7857.41 2444.4 7856.12 2370.64 7853.49 2297.51 c 0
 7842.1 1980.9 7835.54 1728.41 7835.54 1527.71 c 0
 7835.54 918.734 7895.92 786.539 8064.89 786.539 c 0
 8270.13 786.539 8381.7 1328.69 8381.7 2096.62 c 0
 8381.7 2596.2 8334.48 3191.35 8235.11 3794.94 c 0
 8100.12 4614.88 8029.2 5029.85 8029.2 5239.67 c 0
 8029.2 5441.4 8094.76 5453.46 8231.96 5453.46 c 0
 8250.6 5453.46 8270.57 5453.24 8291.88 5453.24 c 0
 8654.7 5453.24 9153.86 4652.8 9264.05 3894.29 c 0
 9296.84 3668.51 9315.67 3102.6 9315.67 2467 c 0
 9315.67 2192.58 9312.16 1905.18 9304.75 1626.55 c 2
 9260.07 -53.4609 l 1
 9170.42 1759.02 l 2xaf
EndSplineSet
Validated: 1
EndChar

StartChar: uni1B25
Encoding: 78 6949 78
Width: 10068
VWidth: 0
Flags: W
HStem: 26.8028 498.273<1319.65 2485.81 5912 6858.93> 1672.83 1089.4<3662.09 4693.25> 4874.76 533.02<7045.51 7742.48> 5085.69 280.61<1249.55 1704.26>
VStem: 484.935 449.988<953.913 2445.39> 1728.32 466.08<4236.31 5060.94> 7372.23 294.47<1758.02 3813.75> 8770.15 455.359<350.357 3414.67>
LayerCount: 2
Fore
SplineSet
1016.25 459.953 m 0xef
 662.277 750.39 484.935 1067.94 484.935 1487.97 c 0
 484.935 1917.43 670.32 2454.01 1041.85 3178.29 c 0
 1368.13 3814.36 1728.32 4648.35 1728.32 4941.5 c 0
 1728.32 4988.16 1719.2 5021.11 1699.36 5037.39 c 0
 1659.07 5070.45 1612.27 5085.69 1560.5 5085.69 c 0
 1215.78 5085.69 650.865 4409.88 321.506 3819.27 c 2
 -1.10645 3240.77 l 1
 140.602 3887.67 l 2
 348.083 4834.84 832.834 5366.3 1489.27 5366.3 c 0xdf
 1960.01 5366.3 2194.4 5225.01 2194.4 4918.97 c 0
 2194.4 4644.47 2005.83 4237.43 1630.11 3680.92 c 0
 1166.39 2994.06 934.923 2304.35 934.923 1745.66 c 0
 934.923 1026.95 1317.98 525.076 2082.38 525.076 c 0
 2569.96 525.076 2837.4 1465.3 3279.08 2039.39 c 0
 3649.08 2520.3 3888.69 2762.23 4151.03 2762.23 c 0
 4373.7 2762.23 4612.74 2587.94 4961.78 2237.57 c 1
 5359.89 1448.95 5857.71 525.311 6426.23 525.311 c 0
 6489.39 525.311 6553.43 536.711 6618.29 560.961 c 0
 7036.73 717.395 7226 1662.68 7343.73 2306.84 c 0
 7363.35 2414.19 7372.23 2536.46 7372.23 2669.07 c 0
 7372.23 3256.35 7198.05 4046.26 7011.13 4640 c 0
 7000.06 4675.16 6971.25 4689.97 6929.79 4689.97 c 0
 6708.43 4689.97 6126.64 4267.87 5960.66 4267.87 c 0
 5940.53 4267.87 5926.51 4274.08 5920 4288 c 0
 5912.77 4303.46 5909.31 4320.71 5909.31 4339.48 c 0
 5909.31 4655.95 6892.73 5407.78 7388.43 5407.78 c 0
 7437.55 5407.78 7481.89 5400.39 7520 5384.47 c 0
 7689.73 5313.55 7861.47 5212.6 8004.29 5085.74 c 0
 8613.98 4544.19 9225.51 3352.58 9225.51 2028.79 c 0
 9225.51 2001.57 9225.25 1974.3 9224.73 1946.97 c 0
 9204.58 892.989 9110.04 346.76 9008.92 346.76 c 0
 8918.36 346.76 8822.52 784.994 8770.15 1689.11 c 0
 8695.75 2973.74 8755.9 3678.89 8464.11 4044.29 c 0
 8252.17 4309.7 7682.85 4874.76 7572.44 4874.76 c 0
 7567.32 4874.76 7563.18 4873.54 7560.12 4871.03 c 0
 7546.53 4859.88 7540.95 4800.89 7540.95 4706.35 c 0
 7540.95 4319.66 7634.24 3338.1 7653.97 2601.8 c 0
 7661.6 2316.98 7666.7 2079.61 7666.7 1879.19 c 0
 7666.7 983.615 7564.88 826.026 7132.21 471.02 c 0
 6820.69 215.409 6424.87 6.27344 6252.6 6.27344 c 0
 5871.82 6.27344 5374.21 473.799 5010.18 1173.58 c 0
 4835.09 1510.15 4540.23 1672.83 4224.56 1672.83 c 0
 3838.39 1672.83 3421.07 1429.39 3153.73 963.041 c 0
 2794.68 336.719 2413.12 26.8028 1981.46 26.8028 c 0
 1686.13 26.8028 1367.34 171.879 1016.25 459.953 c 0xef
EndSplineSet
Validated: 1
EndChar

StartChar: uni1B28
Encoding: 79 6952 79
Width: 8508
VWidth: 0
Flags: W
HStem: -554.636 24.607<4340.2 4352.76> -15.5864 669.154<2645.81 6011.66> 720.364 24.607<5090.2 5102.76> 4793.79 315.56<872.723 1237.5> 4817.78 519.12<5100.54 5875.44> 6207.78 232.73<4596.71 5655.99>
VStem: 49.7685 438.716<2708.63 4328.31> 1266.11 394.98<1870.73 3940.92> 1412.43 495.25<2491.02 4752.2> 4300.31 3.69971<-581.598 -563.514> 4367.88 4.47998<-588.834 -559.328> 5050.31 3.69971<693.402 711.486> 5117.88 4.47998<691.223 715.672> 7137.26 479.43<2029.62 4329.31> 7908.22 306.52<6290.79 6643.62>
LayerCount: 2
Fore
SplineSet
4332 -615 m 0xe67e
 4326.25 -613.553 4323 -611.569 4318.86 -606.983 c 0
 4311.98 -599.366 4310.38 -591.944 4312.23 -576.099 c 0
 4312.87 -570.534 4313.12 -565.093 4312.77 -564.005 c 0
 4312.03 -561.661 4308.54 -561.39 4305.72 -563.456 c 0
 4304.03 -564.703 4303.81 -565.97 4304.01 -573.456 c 0
 4304.2 -580.226 4303.95 -582.029 4302.86 -582.029 c 0
 4300.51 -582.029 4298.87 -569.351 4300.31 -562.395 c 0
 4302.28 -552.909 4309.01 -548.349 4314.93 -552.493 c 0
 4317.93 -554.595 4318.45 -558.972 4316.76 -567.8 c 0
 4315.02 -576.887 4314.85 -585.767 4316.35 -589.714 c 0
 4318.02 -594.147 4322.18 -597.835 4327.5 -599.603 c 0
 4333.04 -601.442 4346.83 -601.726 4352.18 -600.109 c 0
 4360.26 -597.672 4366.66 -590.398 4367.88 -582.263 c 0
 4368.8 -576.089 4367.81 -562.236 4366.15 -558.214 c 0
 4364.84 -555.032 4364.54 -554.888 4358.78 -554.636 c 0
 4347.93 -554.159 4340.52 -548.34 4339.53 -539.515 c 0
 4339.11 -535.829 4339.42 -534.796 4341.62 -532.605 c 0
 4343.64 -530.577 4345.18 -530.029 4348.84 -530.029 c 0
 4352.76 -530.029 4353.98 -530.536 4356.67 -533.279 c 0
 4358.42 -535.067 4360.79 -537.843 4361.93 -539.448 c 2
 4364 -542.366 l 1
 4367.41 -540.261 l 2
 4371.1 -537.976 4374.75 -533.557 4376.3 -529.483 c 0
 4377.74 -525.702 4379.29 -527.456 4379.26 -532.839 c 0
 4379.23 -538.935 4376.54 -544.719 4371.79 -548.89 c 2
 4367.98 -552.233 l 1
 4369.66 -557.554 l 2
 4372.49 -566.531 4373.6 -579.157 4372.36 -588.365 c 0
 4370.48 -602.399 4365.36 -609.974 4355.39 -613.493 c 0
 4351.73 -614.784 4344.58 -615.586 4338.81 -615.586 c 0
 4336.04 -615.586 4333.6 -615.402 4332 -615 c 0xe67e
4358.84 -541.148 m 2
 4360.33 -544.029 l 1
 4355.56 -543.99 l 2
 4350.02 -543.944 4344.86 -541.983 4343.94 -539.568 c 0
 4342.75 -536.485 4345.84 -533.029 4349.79 -533.029 c 0
 4351.77 -533.029 4357.13 -537.839 4358.84 -541.148 c 2
5082 660 m 0
 5076.25 661.447 5073 663.431 5068.86 668.017 c 0
 5061.98 675.634 5060.38 683.056 5062.23 698.901 c 0
 5062.87 704.466 5063.12 709.907 5062.77 710.995 c 0
 5062.03 713.339 5058.54 713.61 5055.72 711.544 c 0
 5054.03 710.297 5053.81 709.03 5054.01 701.544 c 0
 5054.2 694.774 5053.95 692.971 5052.86 692.971 c 0
 5050.51 692.971 5048.87 705.649 5050.31 712.605 c 0
 5052.28 722.091 5059.01 726.651 5064.93 722.507 c 0
 5067.93 720.405 5068.45 716.028 5066.76 707.2 c 0
 5065.02 698.113 5064.85 689.233 5066.35 685.286 c 0
 5068.02 680.853 5072.18 677.165 5077.5 675.397 c 0
 5083.04 673.558 5096.83 673.274 5102.18 674.891 c 0
 5110.26 677.328 5116.66 684.602 5117.88 692.737 c 0
 5118.8 698.911 5117.81 712.764 5116.15 716.786 c 0
 5114.84 719.968 5114.54 720.112 5108.78 720.364 c 0
 5097.93 720.841 5090.52 726.66 5089.53 735.485 c 0
 5089.11 739.171 5089.42 740.204 5091.62 742.395 c 0
 5093.64 744.423 5095.18 744.971 5098.84 744.971 c 0
 5102.76 744.971 5103.98 744.464 5106.67 741.721 c 0
 5108.42 739.933 5110.79 737.157 5111.93 735.552 c 2
 5114 732.634 l 1
 5117.41 734.739 l 2
 5121.1 737.024 5124.75 741.443 5126.3 745.517 c 0
 5127.74 749.298 5129.29 747.544 5129.26 742.161 c 0
 5129.23 736.065 5126.54 730.281 5121.79 726.11 c 2
 5117.98 722.767 l 1
 5119.66 717.446 l 2
 5122.49 708.469 5123.6 695.843 5122.36 686.635 c 0
 5120.48 672.601 5115.36 665.026 5105.39 661.507 c 0
 5099.98 659.598 5086.93 658.757 5082 660 c 0
5108.84 733.852 m 2
 5110.33 730.971 l 1
 5105.56 731.01 l 2
 5100.02 731.056 5094.86 733.017 5093.94 735.432 c 0
 5092.75 738.515 5095.84 741.971 5099.79 741.971 c 0
 5101.77 741.971 5107.13 737.161 5108.84 733.852 c 2
3386.57 30.8994 m 0
 2791.76 145.677 2455.09 303.015 2026.27 666.592 c 0
 1492.66 1119.01 1266.11 1562.7 1266.11 2284.83 c 0xef7e
 1266.11 2526.89 1291.57 2800.25 1339.45 3115.71 c 0
 1385.89 3421.69 1412.43 3723 1412.43 3907.74 c 0
 1412.43 3989.41 1407.24 4048.3 1396.29 4074.72 c 0
 1327.52 4240.68 1290.76 4793.79 1076.51 4793.79 c 0
 1050.79 4793.79 1022.5 4785.81 991.3 4768.24 c 0
 820.896 4672.27 488.485 3962.18 488.485 3377.52 c 0
 488.485 3359.98 488.784 3342.55 489.396 3325.25 c 0
 493.11 3220.3 495.132 3130.41 495.132 3053.69 c 0
 495.132 2738 460.887 2645.44 369.348 2645.44 c 0
 189.646 2645.44 49.7685 3196 49.7685 3705.82 c 0
 49.7685 3884.94 67.0349 4059.04 105.907 4202.46 c 0
 258.429 4765.24 686.913 5109.35 1149.57 5109.35 c 0
 1305.31 5109.35 1464.91 5070.36 1619.17 4987.6 c 0
 1813.72 4883.22 1907.68 4707.93 1907.68 4419.31 c 0xf6fe
 1907.68 4247.35 1874.33 4035.17 1809.03 3773.79 c 0
 1710.9 3380.98 1661.09 2993.04 1661.09 2670.69 c 0
 1661.09 2401.73 1695.77 2178.42 1766 2036.04 c 0
 1939.38 1684.52 2395.22 892.034 2946.03 751.897 c 0
 3213.36 683.884 3693.43 653.568 4185.93 653.568 c 0
 4749.78 653.568 5329.93 693.304 5625.8 761.7 c 0
 6462.05 955.023 6974.22 1981.8 7100.51 2626.92 c 0
 7125.81 2756.14 7137.26 2927.77 7137.26 3116.28 c 0
 7137.26 3642.06 7048.16 4299.19 6921.85 4533.98 c 0
 6786.07 4786.34 6755.41 4797.75 6159.24 4817.78 c 0xef7e
 5036.04 4855.51 4268.89 5316.99 4165.9 6016.86 c 0
 4122.91 6309.03 4090.72 6062.52 4317.52 6236.23 c 0
 4527.53 6397.1 4686.39 6440.51 5065.11 6440.51 c 0
 5471.06 6440.51 5597.45 6400.32 5875.73 6182.79 c 0
 6057.05 6041.04 6366.61 6149.42 6484.79 6022.14 c 2
 6699.66 5790.75 l 1
 7052.13 5957.61 l 2
 7434.91 6138.81 7747.91 6160.81 7908.22 6483.78 c 0
 7962.47 6593.08 8018.23 6644.06 8067.07 6644.06 c 0
 8151.17 6644.06 8214.74 6492.92 8214.74 6228 c 0
 8214.71 6217.75 l 1
 7611.76 5209.37 7997.53 5604.14 7505.73 5273.38 c 2
 7111.55 5008.29 l 1
 7285.21 4586.31 l 2
 7498 4069.23 7616.69 3399.45 7616.69 2791.79 c 0
 7616.69 2562.89 7599.85 2342.8 7564.85 2143.01 c 0
 7369.92 1030.15 6840.19 429.472 5807.61 150.419 c 0
 5428.8 48.0394 4688.71 -15.5864 4091.28 -15.5864 c 0
 3805.24 -15.5864 3551.9 -1.00107 3386.57 30.8994 c 0
6165.62 5887.24 m 2
 5988.44 6149.69 5368.53 6202.61 5163.52 6202.61 c 0
 5037.71 6202.61 4926.4 6207.78 4836.18 6207.78 c 0
 4683.65 6207.78 4591.42 6192.99 4591.42 6113.39 c 0
 4591.42 6087.32 4601.32 6054.3 4622.22 6012.57 c 0
 4718.16 5821.07 5301.94 5340.5 5875.44 5336.9 c 1
 6319.85 5658.8 l 1
 6165.62 5887.24 l 2
EndSplineSet
Validated: 5
EndChar

StartChar: uni1B2A
Encoding: 80 6954 80
Width: 9828
VWidth: 0
Flags: W
HStem: -14.3788 574.66<440.8 1881.73> 88.332 278.262<4638.67 5505.86> 4609.13 670.63<358.539 1010.82> 4914.28 500.1<5271.9 7308.86>
VStem: 2.44668 422.573<588.335 1334.03> 36.667 197.629<3524.12 4258.85> 3802.44 230<2538.51 3147.27> 5592.2 371.55<435.204 1190.11> 8542.93 429.62<162.27 3756>
LayerCount: 2
Fore
SplineSet
173.206 101.756 m 0x8b80
 54.0477 216.729 2.44668 398.345 2.44668 598.425 c 0
 2.44668 1089.97 313.896 1692.96 700.19 1692.96 c 0
 810.678 1692.96 792.999 1592.28 660.418 1466.42 c 0
 500.643 1314.76 425.02 1121.74 425.02 952.86 c 0
 425.02 736.827 548.763 560.281 778.402 560.281 c 0
 778.961 560.281 l 0
 976.272 560.281 1889.8 560.527 2535.97 1079.18 c 1
 3128.94 1587.08 3660.99 2134.44 3802.44 2926.1 c 1
 3802.44 3577.05 4255.84 4544.37 4761.23 4971.73 c 0
 5104.38 5261.88 5695.85 5414.38 6299.03 5414.38 c 0
 6753.36 5414.38 7214.33 5327.86 7580.82 5148.48 c 0
 8642.08 4629.06 8972.55 3811.51 8972.55 1698.64 c 0
 8972.55 637.064 8894.35 115.992 8802.6 115.992 c 0
 8705.84 115.992 8594.02 695.429 8542.93 1831.52 c 0
 8480.87 3211.95 8639.51 3516.49 8175.06 3957.38 c 0
 7758.29 4353.02 7230.64 4905.93 6459.93 4914.06 c 0
 6446.31 4914.2 6432.78 4914.28 6419.34 4914.28 c 0
 5071.59 4914.28 4598.79 4195.25 4281.44 3474.24 c 0
 4122.72 3113.64 4032.44 2886.35 4032.44 2734.36 c 0
 4032.44 2509.05 4230.84 2449.22 4698.83 2365.88 c 0
 5487.29 2225.46 5963.75 1667.35 5963.75 907.806 c 0
 5963.75 844.953 5960.49 780.72 5953.87 715.23 c 0
 5895.46 137.549 5836.46 88.332 5202.11 88.332 c 0x5b80
 4637.78 88.332 4458.58 190.406 4207.8 654.672 c 0
 4039.54 966.156 3879.36 1256.56 3851.84 1299.99 c 0
 3849.71 1303.34 3845.16 1304.98 3838.34 1304.98 c 0
 3756.84 1304.98 3351.41 1071.93 2887.29 755.518 c 0
 2221.35 301.531 1218.73 -14.3788 617.637 -14.3788 c 0
 413.616 -14.3788 255.85 22.015 173.206 101.756 c 0x8b80
5592.2 711.305 m 0
 5592.2 1176.55 5205.99 1504.18 4657.54 1504.18 c 0
 4358.35 1504.18 4213.93 1430.21 4213.93 1250.63 c 0
 4213.93 1130.09 4279.01 961.953 4406.02 736.657 c 0
 4544.27 491.44 4851.71 366.594 5118.94 366.594 c 0
 5373.86 366.594 5592.2 480.203 5592.2 711.305 c 0
1614.96 3443.26 m 0
 1376.77 3929.93 956.706 4609.13 636.752 4609.13 c 0
 449.416 4609.13 296.398 4376.29 234.296 3735.62 c 1
 163.165 3567.21 118.756 3476.1 90.3433 3476.1 c 0
 52.6272 3476.1 43.0978 3636.65 36.667 3990.06 c 0
 36.0101 4026.17 35.6825 4061.56 35.6825 4096.22 c 0
 35.6825 4868.44 198.319 5279.76 505.285 5279.76 c 0x2780
 953.222 5279.76 1828.25 4208.97 1946.74 3515.83 c 0
 1989.95 3263.06 2012.46 3083.96 2012.46 2978.13 c 0
 2012.46 2901.55 2000.68 2863.33 1976.42 2863.33 c 0
 1921.79 2863.33 1803.91 3057.21 1614.96 3443.26 c 0
EndSplineSet
Validated: 1
EndChar

StartChar: uni1B16_conj
Encoding: 84 -1 84
Width: 0
VWidth: 0
Flags: W
HStem: -5316.28 549.03<-6151.86 -5229.4> -5268.28 677.12<-2813.27 -1843.74> -3779.98 974.81<-4510.62 -3630.65> -566.615 532.084<-2470.29 -1800.67>
VStem: -6830.52 182.06<-3668.78 -1761.34> -3087.91 615.2<-972.116 -569.638> -1564.12 292.72<-4160.3 -2378.81> -435.848 97.764<-5260.09 -3259.48> -338.084 25.306<-5415.42 -3982.94>
LayerCount: 2
Fore
SplineSet
-6930.52 -239.975 m 1xbf80
 -6656.36 -99.1045 -6461.47 -27.3177 -6338.64 -27.3177 c 0
 -6229.04 -27.3177 -6176.8 -84.4702 -6176.8 -200.695 c 0
 -6176.8 -275.441 -6198.4 -374.618 -6240.25 -498.738 c 0
 -6511.88 -1304.41 -6648.46 -2104.42 -6648.46 -2790.34 c 0
 -6648.46 -3938.68 -6265.65 -4767.25 -5492.81 -4767.25 c 0xbf80
 -5251.94 -4767.25 -4967.2 -3968.77 -4911.39 -3770.5 c 0
 -4861.59 -3593.54 -4677.47 -3275.21 -4502.25 -3063.12 c 0
 -4359.43 -2890.24 -4212.19 -2805.17 -4067.22 -2805.17 c 0
 -3822.33 -2805.17 -3583.89 -3047.93 -3384.06 -3520.29 c 0
 -3182.95 -3995.69 -2692.32 -4591.16 -2248.19 -4591.16 c 0
 -2131.56 -4591.16 -2018.13 -4550.09 -1914 -4455 c 0
 -1669.75 -4231.96 -1564.12 -3818.83 -1564.12 -3356.57 c 0
 -1564.12 -2342.93 -2071.98 -1093.04 -2739.66 -1093.04 c 0
 -2971.77 -1093.04 -3087.91 -1028.15 -3087.91 -900.421 c 0
 -3087.91 -782.455 -2988.85 -610.887 -2790.61 -387.336 c 0
 -2576.57 -145.966 -2303.81 -34.5314 -2019.67 -34.5314 c 0
 -1440.64 -34.5314 -814.365 -497.297 -541.531 -1266.25 c 0
 -379.112 -1724.01 -309.863 -2325.13 -309.863 -3324.01 c 0
 -309.863 -3443.16 -310.848 -3567.96 -312.778 -3698.86 c 2
 -338.084 -5415.42 l 1
 -435.848 -3827.61 l 2
 -489.616 -2954.31 -619.574 -2065.24 -724.644 -1851.88 c 0
 -967.493 -1358.76 -2023.45 -566.615 -2400.65 -566.615 c 0
 -2450.87 -566.615 -2472.71 -581.465 -2472.71 -608.82 c 0
 -2472.71 -724.214 -2084.05 -1062.14 -1797.09 -1446.71 c 0
 -1443.34 -1920.81 -1271.4 -2605.86 -1271.4 -3265.89 c 0
 -1271.4 -4031.18 -1502.55 -4762.84 -1949.49 -5093.08 c 0
 -2105.9 -5208.65 -2250.65 -5268.28 -2391.4 -5268.28 c 0x7f80
 -2687.02 -5268.28 -2965.04 -5005.27 -3296.48 -4445.09 c 0
 -3558.18 -4002.77 -3821.52 -3779.98 -4069.81 -3779.98 c 0
 -4263.21 -3779.98 -4447.49 -3915.16 -4614.74 -4187.07 c 0
 -5011.92 -4832.79 -5418 -5316.28 -5561.88 -5316.28 c 0
 -5563.81 -5316.28 -5565.7 -5316.2 -5567.54 -5316.02 c 0
 -5632.07 -5309.89 -5839.59 -5234.59 -6028.68 -5148.71 c 0
 -6577.39 -4899.52 -6830.52 -4249.3 -6830.52 -3045.96 c 0
 -6830.52 -2834.19 -6822.68 -2605.29 -6807.23 -2358.43 c 1
 -6715.79 -1460.67 -6668.85 -985.353 -6668.85 -717.581 c 0
 -6668.85 -356.81 -6754.07 -372.791 -6930.52 -239.975 c 1xbf80
EndSplineSet
Validated: 1
EndChar

StartChar: uni1B19_conj
Encoding: 85 -1 85
Width: 0
VWidth: 0
Flags: W
HStem: -5456.08 598.85<-7625.09 -6523.95> -5448.6 433.36<-2759.85 -1370.92> -596.468 469.518<-6853.61 -4913.3>
VStem: -8183.85 370.99<-4561.73 -1777.89> -6250.54 71.1802<-3847.59 -2772.78> -6179.36 34.0801<-3658.06 -2772.78> -536.121 425.746<-3606.03 -1056.63>
LayerCount: 2
Fore
SplineSet
-26.4756 -804.2 m 16x7e
 -14.9559 -893.563 -10.2245 -971.156 -10.2245 -1041.56 c 0
 -10.2245 -1365.45 -110.375 -1537.12 -110.375 -2002.51 c 0
 -110.375 -2088.11 -106.987 -2183.64 -98.9658 -2291.88 c 0
 -86.2955 -2462.84 -79.9955 -2627.27 -79.9955 -2785.06 c 0
 -79.9955 -4515.67 -837.774 -5448.6 -2260.73 -5448.6 c 0x7e
 -3459.29 -5448.6 -3763.56 -5068.3 -3927 -3366 c 0
 -4098.55 -1579.01 -4375.93 -596.468 -5958.69 -596.468 c 0
 -7463.97 -596.468 -7812.86 -1678.02 -7812.86 -3324.25 c 0
 -7812.86 -4383.21 -7637.63 -4857.23 -7206.46 -4857.23 c 0
 -7084.68 -4857.23 -6942.5 -4819.42 -6778.08 -4746.3 c 0
 -6406.32 -4580.98 -6308.53 -4379.24 -6250.54 -3658.06 c 2
 -6179.36 -2772.78 l 1
 -6145.28 -3805.29 l 2
 -6141.97 -3905.52 -6140.22 -3998.01 -6140.22 -4083.58 c 0
 -6140.22 -4676.72 -6224.31 -4937.69 -6456.96 -5143.19 c 0
 -6694.52 -5353.02 -6929.23 -5456.08 -7144.88 -5456.08 c 0xbe
 -7459.71 -5456.08 -7733.92 -5236.42 -7917.04 -4808.65 c 0
 -8092.39 -4399.04 -8183.85 -3639.76 -8183.85 -2937.51 c 0
 -8183.85 -2336.73 -8116.91 -1777.68 -7978.3 -1515.01 c 0
 -7495.13 -599.369 -6764.15 -126.95 -5855.78 -126.95 c 0
 -5574.09 -126.95 -5275.33 -172.383 -4961.62 -264.118 c 0
 -4069.19 -525.091 -3842.34 -897.738 -3842.34 -2102.75 c 0
 -3842.34 -3092.45 -3504.6 -3420.74 -3216.03 -4196.39 c 1
 -3008.97 -4763.87 -2536.71 -5015.24 -2074.53 -5015.24 c 0
 -1599.13 -5015.24 -1134.41 -4749.28 -979.938 -4287.81 c 1
 -669.435 -3294.27 -536.121 -3499.31 -536.121 -1908.17 c 0
 -536.121 -1894.12 -536.131 -1879.94 -536.152 -1865.61 c 0
 -536.166 -1855.92 -536.173 -1846.25 -536.173 -1836.6 c 0
 -536.173 -877.078 -467.304 -96.952 -381.91 -96.9521 c 0
 -295.674 -96.9521 -65.9434 -498.033 -26.4756 -804.2 c 16x7e
EndSplineSet
Validated: 1
EndChar

StartChar: uni1B1B_conj
Encoding: 86 -1 86
Width: 4476
VWidth: 0
Flags: HW
HStem: -6887.97 448.67<8341.06 9938.19> -6721.77 633.66<1340.5 3617.8> -4422.21 414.37<5056.95 6281.35> 5142.07 1854.7<9498.92 10412.7>
VStem: 230.631 523.844<-5822.82 -3655> 10833.1 308.601<575.479 4828.17> 10945.7 240.8<-3517.26 1100.17>
LayerCount: 2
Fore
SplineSet
-4960.5 -1072.07 m 4x7a
 -5602.31 -1658.55 -6857.06 -2243.18 -7552.5 -2656.07 c 4
 -8340.58 -3123.97 -8545.87 -3953.48 -8545.87 -4757.6 c 4
 -8545.87 -4769.7 -8545.82 -4781.8 -8545.73 -4793.89 c 4
 -8533.33 -6428.65 -7982.12 -6617.12 -6869.59 -6877.25 c 4
 -6518.34 -6959.38 -6314.11 -7001.84 -6132.79 -7001.84 c 4x7a
 -5934.23 -7001.84 -5763.15 -6950.92 -5456.56 -6845.4 c 4
 -5118.09 -6728.9 -4794.41 -6611.29 -4473.2 -6080.47 c 4
 -4088.13 -5444.12 -3879.86 -4838.72 -3409.48 -4734.08 c 4
 -3312.75 -4712.56 -3220.45 -4702.28 -3131.94 -4702.28 c 4
 -2446.1 -4702.28 -1988.14 -5319.48 -1464.31 -6106.35 c 4
 -1049.82 -6728.98 -824.76 -6905.81 -256.34 -7055.48 c 4
 27.9395 -7130.34 288.529 -7168.04 527 -7168.04 c 4
 1204.01 -7168.04 1702.7 -6864.18 2058.8 -6243.99 c 4
 2332.3 -5767.58 2410 -5556.82 2410 -3498.69 c 4xba
 2410 -2749.3 2399.7 -1754.99 2384.8 -413.756 c 4
 2373.2 630.134 2365.2 1485.48 2365.2 2177.31 c 4
 2365.2 4014.61 2421.8 4698.76 2618.9 4698.76 c 4
 2742.4 4698.76 2921 4430.28 3175.3 4008.62 c 4
 3370.1 3685.56 3477.3 3543.01 3548.4 3543.01 c 4
 3587.5 3543.01 3615.8 3586.1 3641.7 3665.97 c 4
 3662.7 3730.59 3672.6 3801.24 3672.6 3875.8 c 4
 3672.6 4339.02 3289.7 4953.36 2799.7 5212.54 c 4
 2504.7 5368.58 2102.4 5758.47 1905.8 6078.97 c 4
 1632.9 6523.59 1429.1 6672.7 1045.69 6708.1 c 4
 983.359 6713.85 923.609 6716.7 866.52 6716.7 c 4
 330.27 6716.7 28.4492 6465.36 28.4492 6008.98 c 4
 28.4492 5533.73 910.16 4862 1534 4862 c 4
 1932.3 4862 1941.4 4823.96 2056.6 2679.46 c 4xbc
 2132.4 1269.09 2169.2 -190.971 2169.2 -1458.47 c 4
 2169.2 -3119.16 2106.1 -4449.28 1985 -4903.93 c 4
 1763.7 -5734.72 1471.2 -6605.74 616.969 -6708.78 c 4
 557.74 -6715.92 498.02 -6719.37 438.01 -6719.37 c 4xba
 -457.67 -6719.37 -1416.61 -5950.51 -1746.6 -5216.36 c 4
 -2024.6 -4597.88 -2443.46 -4287.91 -3000.13 -4287.91 c 4
 -3160.27 -4287.91 -3331.82 -4313.56 -3514.7 -4364.9 c 4
 -3954.48 -4488.35 -4122.85 -4660.89 -4356.62 -5227.66 c 4
 -4716.44 -6100.02 -5165.41 -6368.17 -6266.24 -6368.17 c 4
 -6376.82 -6368.18 l 4
 -7602.5 -6368.18 -8022.03 -6352.17 -8022.03 -5234.08 c 4
 -8022.03 -5035.53 -8008.79 -4802.22 -7984.5 -4528.07 c 4
 -7956.58 -4213.06 -7660.94 -3844.14 -7624.5 -3412.07 c 5
 -7560.86 -3312.64 -7309.61 -3180.96 -7012.5 -2982.28 c 4
 -5932.5 -2260.07 -5973.07 -2387.89 -5572.5 -2044.07 c 4
 -4997.72 -1550.72 -4666.46 -1062.32 -4666.46 -929.564 c 4
 -4666.46 -906.726 -4676.27 -894.413 -4696.33 -894.413 c 4
 -4738.24 -894.413 -4824.94 -948.197 -4960.5 -1072.07 c 4x7a
EndSplineSet
Validated: 9
EndChar

StartChar: uni1B1D_conj
Encoding: 87 -1 87
Width: 0
VWidth: 0
Flags: W
HStem: -2785.56 356.59<-5602.4 -3759.34> -2518.71 414.82<-2693.29 -1578.84> -2362.7 264.6<-2773.83 -2413.79> -1268.85 501.117<-3411.88 -2595.39>
VStem: -7072.32 165.03<-1209.71 -369.613> -3675.84 259.16<-1617.7 -1121.15> -2589.45 237.95<-1635.43 -1123.38>
LayerCount: 2
Fore
SplineSet
-5423.01 -2724.05 m 0xbe
 -6351.04 -2550.52 -7072.32 -1637.9 -7072.32 -819.856 c 0
 -7072.32 -624.846 -7031.33 -435.21 -6942.38 -262.242 c 0
 -6916.77 -212.441 -6897.89 -187.047 -6885.55 -187.047 c 0
 -6873.79 -187.047 -6867.98 -210.138 -6867.98 -257.175 c 0
 -6867.98 -314.67 -6876.66 -407.94 -6893.73 -538.549 c 0
 -6902.82 -608.054 -6907.29 -676.564 -6907.29 -743.812 c 0
 -6907.29 -1299.92 -6601.65 -1769.78 -6074.61 -2002.79 c 1
 -5615.72 -2323.44 -5105.94 -2428.97 -4654.93 -2428.97 c 0
 -4004.39 -2428.97 -3476.12 -2209.42 -3399.21 -2099.28 c 0
 -3391.46 -2088.18 -3387.78 -2070.78 -3387.78 -2048.49 c 0
 -3387.78 -1963.55 -3441.16 -1807.48 -3525.87 -1657.18 c 0
 -3625.41 -1480.57 -3675.84 -1334.75 -3675.84 -1214.94 c 0
 -3675.84 -1027.35 -3552.23 -903.507 -3300 -825 c 0
 -3173.73 -785.696 -3056.2 -767.733 -2949.86 -767.733 c 0
 -2584.52 -767.733 -2351.5 -979.804 -2351.5 -1266.96 c 0
 -2351.5 -1427.39 -2424.22 -1611.24 -2587.22 -1794.65 c 0
 -2712.83 -1935.98 -2773.87 -2009.24 -2773.87 -2048.63 c 0
 -2773.87 -2085.24 -2721.12 -2092.58 -2618.44 -2098.1 c 0xbe
 -2546.67 -2101.96 -2477.44 -2103.89 -2410.66 -2103.89 c 0
 -2019.82 -2103.89 -1713.05 -2037.58 -1474.69 -1902.26 c 0
 -1327.97 -1818.98 -1226.77 -1781.01 -1172.25 -1781.01 c 0
 -1140.62 -1781.01 -1124.69 -1793.79 -1124.69 -1817.9 c 0
 -1124.69 -1878.46 -1225.1 -2010.53 -1429.48 -2191.42 c 0
 -1682.96 -2415.76 -1884.25 -2518.71 -2134.12 -2518.71 c 0x5e
 -2281.81 -2518.71 -2446.48 -2482.75 -2648.94 -2414.62 c 0
 -2749.87 -2380.66 -2838.74 -2362.7 -2932.46 -2362.7 c 0
 -3084.67 -2362.7 -3249.68 -2410.07 -3499.96 -2513.2 c 0
 -3944.52 -2696.4 -4359.05 -2785.56 -4788.05 -2785.56 c 0
 -4994.69 -2785.56 -5204.68 -2764.87 -5423.01 -2724.05 c 0xbe
-2774.4 -1801.65 m 0
 -2651.44 -1692.83 -2589.45 -1608.68 -2589.45 -1535.76 c 0
 -2589.45 -1456.46 -2662.75 -1390.43 -2810.66 -1320.37 c 0
 -2882.95 -1286.13 -2949.32 -1268.85 -3014.26 -1268.85 c 0
 -3096.6 -1268.85 -3176.64 -1296.64 -3263.52 -1352.87 c 0
 -3367.89 -1420.41 -3416.68 -1471.23 -3416.68 -1539.72 c 0
 -3416.68 -1590.54 -3389.81 -1651.09 -3338.82 -1735.41 c 0
 -3245.88 -1889.12 -3165.87 -1964.31 -3070.46 -1964.31 c 0
 -2988.92 -1964.31 -2896.13 -1909.4 -2774.4 -1801.65 c 0
EndSplineSet
Validated: 1
EndChar

StartChar: uni1B1E_conj
Encoding: 88 -1 88
Width: 0
VWidth: 0
Flags: W
HStem: -2785.56 356.59<-5602.4 -3759.34>
VStem: -7072.32 165.03<-1209.71 -369.613>
LayerCount: 2
Fore
SplineSet
-2618.44 -2098.1 m 24
 -2515.28 -2028.91 -2584 -2159 -2465 -1819 c 0
 -2393.79 -1615.55 -2354.56 -1446.51 -2354.56 -1303.42 c 0
 -2354.56 -1180.15 -2383.68 -1076.15 -2446.55 -986 c 0
 -2541.29 -850.151 -2714.24 -766.088 -2943.08 -766.088 c 0
 -3050.51 -766.088 -3170.25 -784.612 -3300 -825 c 0
 -3552.23 -903.507 -3675.84 -1027.35 -3675.84 -1214.94 c 0
 -3675.84 -1334.75 -3625.41 -1480.57 -3525.87 -1657.18 c 0
 -3441.16 -1807.48 -3387.78 -1963.55 -3387.78 -2048.49 c 0
 -3387.78 -2070.78 -3391.46 -2088.18 -3399.21 -2099.28 c 0
 -3476.12 -2209.42 -4004.39 -2428.97 -4654.93 -2428.97 c 0
 -5105.94 -2428.97 -5615.72 -2323.44 -6074.61 -2002.79 c 1
 -6601.65 -1769.78 -6907.29 -1299.92 -6907.29 -743.812 c 0
 -6907.29 -676.564 -6902.82 -608.054 -6893.73 -538.549 c 0
 -6876.66 -407.94 -6867.98 -314.669 -6867.98 -257.175 c 0
 -6867.98 -210.138 -6873.79 -187.047 -6885.55 -187.047 c 0
 -6897.89 -187.047 -6916.77 -212.441 -6942.38 -262.242 c 0
 -7031.33 -435.21 -7072.32 -624.846 -7072.32 -819.856 c 0
 -7072.32 -1637.9 -6351.04 -2550.52 -5423.01 -2724.05 c 0
 -5204.68 -2764.87 -4994.69 -2785.56 -4788.05 -2785.56 c 0
 -4359.05 -2785.56 -3944.52 -2696.4 -3499.96 -2513.2 c 0
 -3095.57 -2346.56 -2934.03 -2309.78 -2618.44 -2098.1 c 24
-2774.4 -1801.65 m 0
 -2651.44 -1692.83 -2589.45 -1608.68 -2589.45 -1535.76 c 0
 -2589.45 -1456.46 -2662.75 -1390.43 -2810.66 -1320.37 c 0
 -2882.95 -1286.13 -2949.32 -1268.85 -3014.26 -1268.85 c 0
 -3096.6 -1268.85 -3176.64 -1296.64 -3263.52 -1352.87 c 0
 -3367.89 -1420.41 -3416.68 -1471.23 -3416.68 -1539.72 c 0
 -3416.68 -1590.54 -3389.81 -1651.09 -3338.82 -1735.41 c 0
 -3245.88 -1889.12 -3165.87 -1964.31 -3070.46 -1964.31 c 0
 -2988.92 -1964.31 -2896.13 -1909.4 -2774.4 -1801.65 c 0
EndSplineSet
Validated: 9
EndChar

StartChar: uni1B1F_conj
Encoding: 89 -1 89
Width: 0
VWidth: 0
Flags: W
HStem: -5667.12 498.27<-8098.46 -6932.3 -3506.11 -2559.18> -4021.1 1089.41<-5756.02 -4724.86> -819.166 493.969<-2240.32 -1523.1>
VStem: -8933.17 449.979<-4740.01 -3248.53> -7636.11 305.19<-838.832 -206.897> -2018.2 266.79<-3773.99 -1262.27> -647.955 455.952<-5343.56 -1982.29>
LayerCount: 2
Fore
SplineSet
-7636.11 -380.924 m 0
 -7999.11 -1469.92 -7998.05 -1778.32 -8376.26 -2515.63 c 0
 -8747.79 -3239.91 -8933.17 -3776.49 -8933.17 -4205.95 c 0
 -8933.17 -4625.98 -8755.83 -4943.53 -8401.86 -5233.97 c 0
 -8050.77 -5522.04 -7731.98 -5667.12 -7436.64 -5667.12 c 0
 -7004.99 -5667.12 -6623.43 -5357.2 -6264.38 -4730.88 c 0
 -5997.04 -4264.54 -5579.72 -4021.1 -5193.55 -4021.1 c 0
 -4877.88 -4021.1 -4583.02 -4183.77 -4407.93 -4520.34 c 0
 -4043.9 -5220.12 -3546.29 -5687.65 -3165.51 -5687.65 c 0
 -2993.24 -5687.65 -2597.42 -5478.51 -2285.9 -5222.9 c 0
 -1853.23 -4867.9 -1751.41 -4710.31 -1751.41 -3814.73 c 0
 -1751.41 -3614.32 -1756.51 -3376.94 -1764.14 -3092.13 c 0
 -1783.86 -2355.81 -1877.16 -1374.24 -1877.16 -987.556 c 0
 -1877.16 -893.023 -1871.58 -834.045 -1857.99 -822.896 c 0
 -1854.93 -820.381 -1850.79 -819.166 -1845.67 -819.166 c 0
 -1735.26 -819.166 -1165.94 -1384.22 -953.998 -1649.63 c 0
 -662.21 -2015.03 -722.361 -2720.19 -647.955 -4004.81 c 0
 -595.589 -4908.93 -499.751 -5347.16 -409.182 -5347.16 c 0
 -308.069 -5347.16 -213.524 -4800.93 -193.378 -3746.95 c 0
 -192.46 -3698.94 -192.003 -3651.26 -192.003 -3603.92 c 0
 -192.003 -2313.82 -531.35 -1276.62 -1131.56 -743.494 c 0
 -1431.25 -477.291 -1858.26 -325.197 -2126.91 -325.197 c 0
 -2278.08 -325.197 -2379.1 -373.349 -2379.1 -476.421 c 0
 -2379.1 -506.596 -2370.44 -541.477 -2351.85 -581.234 c 0
 -2148.5 -1016.02 -2018.2 -1896.53 -2018.2 -2643.47 c 0
 -2018.2 -2919.27 -2035.96 -3176.86 -2074.38 -3387.08 c 0
 -2192.11 -4031.24 -2381.38 -4976.53 -2799.82 -5132.96 c 0
 -2864.69 -5157.21 -2928.72 -5168.61 -2991.88 -5168.61 c 0
 -3560.4 -5168.61 -4058.22 -4244.97 -4456.33 -3456.35 c 1
 -4805.37 -3105.98 -5044.41 -2931.69 -5267.08 -2931.69 c 0
 -5529.42 -2931.69 -5769.03 -3173.62 -6139.03 -3654.53 c 0
 -6580.71 -4228.62 -6848.15 -5168.85 -7335.73 -5168.85 c 0
 -8100.13 -5168.85 -8483.19 -4666.97 -8483.19 -3948.26 c 0
 -8483.19 -3389.57 -8251.72 -2699.86 -7788 -2013 c 0
 -7443.12 -1502.17 -7330.92 -1013.07 -7330.92 -672.655 c 0
 -7330.92 -386.012 -7410.47 -204.792 -7497.64 -204.792 c 0
 -7545.46 -204.792 -7595.58 -259.332 -7636.11 -380.924 c 0
EndSplineSet
Validated: 9
EndChar

StartChar: uni1B20_conj
Encoding: 90 -1 90
Width: 0
VWidth: 0
Flags: W
HStem: -5330.32 631.94<-7164.88 -5873.55 -2391.49 -1352.91> -3170.57 607.43<-4619.02 -3728.55>
VStem: -7943.07 440.2<-4297.91 -2879.87> -6606.48 320.28<-568.794 -96.7002> -1043.38 423.922<-4267.41 -309.603>
LayerCount: 2
Fore
SplineSet
-60.7168 3271.11 m 1,0,-1
-6606.48 -251.751 m 0,1,-1
 -6994.17 -979.455 -6985.28 -1338.65 -7372.67 -2095.47 c 0,4,-1
 -7753.2 -2838.9 -7943.07 -3389.68 -7943.07 -3830.49 c 0,7,-1
 -7943.07 -4261.64 -7761.43 -4587.6 -7398.88 -4885.72 c 0,10,-1
 -7039.29 -5181.41 -6712.77 -5330.32 -6410.28 -5330.32 c 0,13,-1
 -5968.17 -5330.32 -5577.37 -5012.21 -5209.62 -4369.32 c 1,16,-1
 -4834.74 -3634.43 -4485.98 -3170.57 -4152.08 -3170.57 c 0,19,-1
 -3881.2 -3170.57 -3620.1 -3475.86 -3362.78 -4189.39 c 1,22,-1
 -2998.97 -4911.64 -2554.99 -5277.7 -2048 -5277.7 c 0,25,-1
 -1908.3 -5277.7 -1763.82 -5249.9 -1614.91 -5194.11 c 0,28,-1
 -1295.64 -5074.49 -923.385 -4740.79 -787.691 -4452.57 c 0,31,-1
 -671.156 -4205.05 -619.458 -3519.52 -619.458 -2759.75 c 0,34,-1
 -619.458 -1574.61 -745.246 -208.818 -946.959 -42.9473 c 0,37,-1
 -962.84 -29.8896 -977.583 -23.3428 -991.19 -23.3428 c 0,40,-1
 -1073.45 -23.3428 -1114.22 -262.6 -1114.22 -749.069 c 0,43,-1
 -1114.22 -979.183 -1105.1 -1264.61 -1086.93 -1606.2 c 0,46,-1
 -1061.21 -2089.73 -1043.38 -2515.22 -1043.38 -2883.2 c 0,49,-1
 -1043.38 -3671.42 -1125.21 -4195.75 -1386.71 -4461.3 c 0,52,-1
 -1525.8 -4602.54 -1675.76 -4664.25 -1830.59 -4664.25 c 0,55,-1
 -2338.98 -4664.25 -2899.77 -3998.95 -3300 -3300 c 0,58,-1
 -3581.47 -2808.45 -3849.32 -2563.14 -4138.71 -2563.14 c 0,61,-1
 -4418.97 -2563.14 -4719.43 -2793.22 -5072.02 -3252.51 c 0,64,-1
 -5533.09 -3853.1 -5855.86 -4698.38 -6356.92 -4698.38 c 0,67,-1
 -7125.96 -4698.38 -7502.87 -4238.14 -7502.87 -3554.26 c 0,70,-1
 -7502.87 -3000.71 -7255.94 -2300.66 -6770.15 -1579.55 c 0,73,-1
 -6406.55 -1039.82 -6286.2 -625.422 -6286.2 -373.153 c 0,76,-1
 -6286.2 -191.709 -6348.46 -94.1388 -6427.25 -94.1388 c 0,79,-1
 -6484.11 -94.1388 -6549.59 -144.96 -6606.48 -251.751 c 0,1,-1
EndSplineSet
Validated: 9
EndChar

StartChar: uni1B25_conj
Encoding: 93 -1 93
Width: 0
VWidth: 0
Flags: W
HStem: -5643.99 498.27<-7918.32 -6752.16 -3325.97 -2379.04> -3997.97 1089.4<-5575.89 -4544.73> -796.04 533.02<-2192.47 -1495.5>
VStem: -8753.04 449.99<-4716.88 -3225.4> -7538.61 364.05<-1042.22 -476.44> -1865.75 294.48<-3912.74 -1857.03> -467.817 455.358<-5320.43 -2256.12>
LayerCount: 2
Fore
SplineSet
-7538.61 -633.41 m 0
 -7965 -1530 -7817.91 -1755.2 -8196.12 -2492.5 c 0
 -8567.65 -3216.78 -8753.04 -3753.37 -8753.04 -4182.82 c 0
 -8753.04 -4602.85 -8575.7 -4920.4 -8221.72 -5210.84 c 0
 -7870.63 -5498.92 -7551.84 -5643.99 -7256.5 -5643.99 c 0
 -6824.85 -5643.99 -6443.29 -5334.08 -6084.25 -4707.76 c 0
 -5816.91 -4241.41 -5399.59 -3997.97 -5013.42 -3997.97 c 0
 -4697.74 -3997.97 -4402.89 -4160.65 -4227.8 -4497.22 c 0
 -3863.76 -5197 -3366.15 -5664.52 -2985.37 -5664.52 c 0
 -2813.1 -5664.52 -2417.28 -5455.39 -2105.76 -5199.78 c 0
 -1673.08 -4844.77 -1571.27 -4687.17 -1571.27 -3791.56 c 0
 -1571.27 -3591.16 -1576.37 -3353.8 -1584 -3069 c 0
 -1603.73 -2332.68 -1697.02 -1351.08 -1697.02 -964.411 c 0
 -1697.02 -869.89 -1691.45 -810.918 -1677.86 -799.77 c 0
 -1674.79 -797.255 -1670.66 -796.04 -1665.54 -796.04 c 0
 -1555.12 -796.04 -985.805 -1361.1 -773.86 -1626.5 c 0
 -482.072 -1991.9 -542.224 -2697.06 -467.817 -3981.68 c 0
 -415.451 -4885.8 -319.613 -5324.03 -229.044 -5324.03 c 0
 -127.931 -5324.03 -33.3865 -4777.81 -13.2402 -3723.83 c 0
 -12.7179 -3696.51 -12.4594 -3669.23 -12.4594 -3642.02 c 0
 -12.4594 -2318.23 -623.984 -1126.61 -1233.68 -585.057 c 0
 -1376.5 -458.196 -1548.24 -357.25 -1717.97 -286.33 c 0
 -1756.08 -270.405 -1800.42 -263.02 -1849.55 -263.02 c 0
 -2345.24 -263.02 -3328.67 -1014.85 -3328.67 -1331.31 c 0
 -3328.67 -1350.09 -3325.2 -1367.34 -3317.97 -1382.8 c 0
 -3311.46 -1396.73 -3297.44 -1402.93 -3277.31 -1402.93 c 0
 -3111.34 -1402.93 -2529.54 -980.827 -2308.19 -980.827 c 0
 -2266.73 -980.827 -2237.91 -995.636 -2226.84 -1030.8 c 0
 -2039.93 -1624.52 -1865.75 -2414.42 -1865.75 -3001.69 c 0
 -1865.75 -3134.31 -1874.63 -3256.59 -1894.25 -3363.95 c 0
 -2011.98 -4008.12 -2201.24 -4953.4 -2619.68 -5109.84 c 0
 -2684.54 -5134.09 -2748.57 -5145.49 -2811.73 -5145.49 c 0
 -3380.26 -5145.49 -3878.08 -4221.85 -4276.2 -3433.22 c 1
 -4625.23 -3082.85 -4864.27 -2908.57 -5086.94 -2908.57 c 0
 -5349.28 -2908.57 -5588.89 -3150.49 -5958.89 -3631.41 c 0
 -6400.57 -4205.5 -6668.01 -5145.72 -7155.59 -5145.72 c 0
 -7920 -5145.72 -8303.05 -4643.85 -8303.05 -3925.13 c 0
 -8303.05 -3366.44 -8071.59 -2676.73 -7607.86 -1989.87 c 0
 -7283.59 -1509.57 -7174.56 -1115.72 -7174.56 -850.255 c 0
 -7174.56 -611.015 -7263.11 -476.046 -7362.48 -476.046 c 0
 -7423.04 -476.046 -7487.62 -526.184 -7538.61 -633.41 c 0
EndSplineSet
Validated: 9
EndChar

StartChar: uni1B28_conj
Encoding: 94 -1 94
Width: 7650
VWidth: 0
Flags: HW
HStem: -283 11<3179.22 3189.52> 246 669<1475.02 4840.87> 992 11<3929.22 3939.52> 5079 519<3929.74 4704.65> 6469 233<3425.91 4485.2>
VStem: 95 395<2132.03 4220.05> 183 545<2752.31 5256.7> 3130 4<-320.298 -302.215> 3197 4<-327.535 -298.029> 3880 4<954.702 972.786> 3947 4<952.523 976.971> 5966 479<2290.92 4590.61> 6737 307<6552.09 6904.92>
LayerCount: 2
Fore
SplineSet
3161 -354 m 0xf9f8
 3155 -353 3152 -351 3148 -346 c 0
 3141 -338 3139 -331 3141 -315 c 0
 3142 -309 3142 -304 3142 -303 c 0
 3141 -301 3138 -300 3135 -302 c 0
 3133 -303 3134 -305 3134 -312 c 0
 3134 -319 3133 -321 3132 -321 c 0
 3130 -321 3129 -308 3130 -301 c 0
 3132 -292 3138 -287 3144 -291 c 0
 3147 -293 3148 -297 3146 -306 c 0
 3144 -315 3145 -324 3146 -328 c 0
 3148 -332 3152 -336 3157 -338 c 0
 3163 -340 3176 -341 3181 -339 c 0
 3189 -337 3196 -329 3197 -321 c 0
 3198 -315 3197 -301 3195 -297 c 0
 3194 -294 3194 -293 3188 -293 c 0
 3177 -293 3170 -287 3169 -278 c 0
 3169 -274 3169 -273 3171 -271 c 0
 3173 -269 3174 -269 3178 -269 c 0
 3182 -269 3183 -269 3186 -272 c 0
 3188 -274 3190 -276 3191 -278 c 2
 3193 -281 l 1
 3197 -279 l 2
 3201 -277 3204 -272 3206 -268 c 0
 3207 -264 3208 -267 3208 -272 c 0
 3208 -278 3206 -284 3201 -288 c 2
 3197 -291 l 1
 3199 -296 l 2
 3202 -305 3202 -318 3201 -327 c 0
 3199 -341 3195 -348 3185 -352 c 0
 3181 -353 3174 -354 3168 -354 c 0
 3165 -354 3163 -354 3161 -354 c 0xf9f8
3188 -280 m 2
 3190 -283 l 1
 3185 -283 l 2
 3179 -283 3174 -280 3173 -278 c 0
 3172 -275 3175 -272 3179 -272 c 0
 3181 -272 3186 -277 3188 -280 c 2
3911 921 m 0
 3905 922 3902 924 3898 929 c 0
 3891 937 3889 944 3891 960 c 0
 3892 966 3892 971 3892 972 c 0
 3891 974 3888 975 3885 973 c 0
 3883 972 3884 970 3884 963 c 0
 3884 956 3883 954 3882 954 c 0
 3880 954 3879 967 3880 974 c 0
 3882 983 3888 988 3894 984 c 0
 3897 982 3898 977 3896 968 c 0
 3894 959 3895 951 3896 947 c 0
 3898 943 3902 939 3907 937 c 0
 3913 935 3926 934 3931 936 c 0
 3939 938 3946 946 3947 954 c 0
 3948 960 3947 974 3945 978 c 0
 3944 981 3944 982 3938 982 c 0
 3927 982 3920 988 3919 997 c 0
 3919 1001 3919 1002 3921 1004 c 0
 3923 1006 3924 1006 3928 1006 c 0
 3932 1006 3933 1006 3936 1003 c 0
 3938 1001 3940 999 3941 997 c 2
 3943 994 l 1
 3947 996 l 2
 3951 998 3954 1003 3956 1007 c 0
 3957 1011 3958 1008 3958 1003 c 0
 3958 997 3956 991 3951 987 c 2
 3947 984 l 1
 3949 979 l 2
 3952 970 3952 957 3951 948 c 0
 3949 934 3945 927 3935 923 c 0
 3930 921 3916 920 3911 921 c 0
3938 995 m 2
 3940 992 l 1
 3935 992 l 2
 3929 992 3924 995 3923 997 c 0
 3922 1000 3925 1003 3929 1003 c 0
 3931 1003 3936 998 3938 995 c 2
448 5249 m 0
 494 5315 535 5345 570 5345 c 0
 672 5345 728 5097 728 4775 c 0
 728 4545 699 4278 638 4035 c 0
 540 3642 490 3254 490 2932 c 0
 490 2663 525 2439 595 2297 c 0
 768 1945 1224 1153 1775 1013 c 0
 2042 945 2522 915 3015 915 c 0
 3579 915 4159 955 4455 1023 c 0
 5291 1216 5804 2243 5930 2888 c 0
 5955 3017 5966 3189 5966 3378 c 0
 5966 3904 5877 4560 5751 4795 c 0
 5615 5047 5584 5059 4988 5079 c 0
 3865 5117 3098 5578 2995 6278 c 0
 2952 6570 2920 6324 3147 6498 c 0
 3357 6659 3515 6702 3894 6702 c 0
 4300 6702 4427 6662 4705 6444 c 0
 4886 6302 5196 6410 5314 6283 c 2
 5529 6052 l 1
 5881 6219 l 2
 6264 6400 6577 6422 6737 6745 c 0
 6791 6854 6847 6905 6896 6905 c 0
 6980 6905 7044 6754 7044 6489 c 0
 7044 6479 l 1
 6441 5471 6827 5866 6335 5535 c 2
 5941 5270 l 1
 6114 4848 l 2
 6327 4331 6445 3661 6445 3053 c 0
 6445 2824 6429 2604 6394 2404 c 0
 6199 1291 5670 691 4637 412 c 0
 4258 310 3517 246 2920 246 c 0
 2634 246 2381 260 2216 292 c 0
 1621 407 1284 564 855 928 c 0
 321 1380 95 1824 95 2546 c 0xfdf8
 95 2788 121 3062 169 3377 c 0
 215 3683 242 3984 242 4169 c 0
 242 4251 236 4310 225 4336 c 0
 199 4398 183 4473 183 4561 c 0xfbf8
 183 4735 249 4961 448 5249 c 0
4995 6149 m 2
 4818 6411 4198 6464 3993 6464 c 0
 3867 6464 3755 6469 3665 6469 c 0
 3512 6469 3421 6455 3421 6375 c 0
 3421 6349 3430 6316 3451 6274 c 0
 3547 6082 4131 5602 4705 5598 c 1
 5149 5920 l 1
 4995 6149 l 2
EndSplineSet
Validated: 5
EndChar

StartChar: uni1B2A_conj
Encoding: 95 -1 95
Width: 0
VWidth: 0
Flags: W
HStem: -5263.22 189.92<-3796.81 -3154.32> -5236.07 511.01<-8140.19 -6595.15> -3768 376.7<-4518.36 -3252.48> -444.598 409.897<-3374.24 -1581.03> -209.441 206.605<-7875.58 -6200.21>
VStem: -9470.99 240.04<-3027.88 -1810.11> -2708.66 169.39<-4624.22 -4141.64> -457.262 131.053<-5540.43 -3053.5>
LayerCount: 2
Fore
SplineSet
-457.262 -3994.09 m 2x6f
 -504.142 -2246.51 -806.826 -957.967 -1615.55 -617.769 c 0
 -1898.65 -498.677 -2185.35 -444.598 -2465.82 -444.598 c 0
 -3796.73 -444.598 -4987.34 -1662.32 -4987.34 -2929.29 c 0
 -4987.34 -3338.2 -4898.76 -3391.3 -4216.71 -3391.3 c 0
 -3274.22 -3391.3 -2539.27 -3833.36 -2539.27 -4400.23 c 0
 -2539.27 -4962.26 -2893.51 -5263.22 -3345.44 -5263.22 c 0xb7
 -3696.93 -5263.22 -4107.52 -5081.16 -4456.48 -4698.26 c 2
 -4981.94 -4121.72 l 1
 -5679.7 -4613.09 l 2
 -6248.11 -5013.38 -6945.59 -5236.07 -7530.79 -5236.07 c 0
 -7798.71 -5236.07 -8043.1 -5189.39 -8240.79 -5091.71 c 0
 -8827.78 -4801.68 -9465.28 -3496.02 -9470.99 -2572.2 c 0
 -9471.03 -2558.48 l 0
 -9471.03 -1700.93 -8975.59 -659.91 -8383.46 -277.005 c 0
 -8113.81 -102.628 -7452.72 -2.83613 -6912.35 -2.83613 c 0
 -6525.15 -2.83613 -6199.93 -54.0732 -6125.13 -165.821 c 0
 -6120.51 -172.717 -6118.27 -179.277 -6118.27 -185.491 c 0
 -6118.27 -234.891 -6260.35 -262.401 -6484.58 -262.401 c 0
 -6603.04 -262.401 -6744.41 -254.725 -6899.88 -238.544 c 0
 -7075.88 -220.231 -7222.58 -209.441 -7351.12 -209.441 c 0
 -7780.37 -209.441 -8007.18 -329.75 -8446.27 -691.978 c 0
 -8964.69 -1119.63 -9131.22 -1431.18 -9217.03 -2133.97 c 0
 -9226.47 -2211.34 -9230.95 -2288.55 -9230.95 -2365.22 c 0
 -9230.95 -3036.16 -8888.58 -3666.39 -8540.34 -4008.63 c 1
 -8221.61 -4478.31 -7921.09 -4725.06 -7491.22 -4725.06 c 0
 -7167.79 -4725.06 -6771.12 -4585.37 -6238.38 -4295.83 c 1
 -5293.35 -3649.73 l 1
 -5154.04 -2495.84 l 2
 -5077.41 -1861.2 -4914.04 -1168.24 -4790.99 -955.95 c 0
 -4469.63 -401.588 -3623.83 -34.7012 -2729.02 -34.7012 c 0
 -2618.19 -34.7012 -2506.61 -40.3294 -2395.18 -51.9268 c 0
 -871.19 -210.512 -326.209 -976.17 -326.209 -3154.58 c 0
 -326.209 -3375.62 -331.82 -3611.2 -342.589 -3862.17 c 2
 -415.297 -5557.33 l 1
 -457.262 -3994.09 l 2x6f
-2988.08 -4860.43 m 0
 -2797.99 -4684.93 -2708.66 -4515.39 -2708.66 -4364.34 c 0
 -2708.66 -4017.4 -3179.92 -3768 -3984 -3768 c 0
 -4374.92 -3768 -4574.05 -3885.44 -4574.05 -4083.41 c 0
 -4574.05 -4245.15 -4441.14 -4460.64 -4171.32 -4709.75 c 0
 -3908.07 -4952.8 -3677.08 -5073.3 -3462.28 -5073.3 c 0
 -3297.08 -5073.3 -3141.46 -5002.03 -2988.08 -4860.43 c 0
EndSplineSet
Validated: 1
EndChar

StartChar: uni1B51
Encoding: 103 6993 103
Width: 10092
VWidth: 0
Flags: HW
LayerCount: 2
Fore
SplineSet
6835.9 1075.84 m 2
 7255.28 1857.44 7371.49 2230.29 7373.27 2800.08 c 0
 7376.34 3778.36 6849.68 4971.22 5977.58 4971.22 c 0
 5409.59 4971.22 5107.46 4226.48 4811.92 3812.78 c 2
 4562.48 3463.61 l 1
 4392.19 3672.76 l 2
 4298.52 3787.79 4220.67 3904.29 4219.2 3931.65 c 0
 4217.71 3959.01 3937.99 4656.1 3750.35 4747.41 c 0
 3319.97 4956.86 2904.18 4932.14 2587.01 4695.95 c 0
 1791.01 4103.18 1629.42 2476.98 2398.54 690.191 c 0
 2473.93 515.018 1786.1 635.43 1455.68 855.25 c 0
 886.888 1233.64 703.727 1961.02 848.482 3266.6 c 0
 947.1 4156.04 924.935 4996.5 681.887 4996.5 c 0
 419.659 4996.5 247.661 4162.57 247.661 3656.07 c 0
 247.661 3284.43 222.188 3166.76 141.727 3166.76 c 0
 -10.8984 3166.76 -94.3408 4158.95 21.8086 4592.58 c 0
 247.421 5434.87 1122.25 5617.63 1265.07 4852.31 c 0
 1292.51 4705.27 1259.96 4223.51 1192.74 3781.75 c 0
 1016.12 2621.04 1030.54 1925.03 1239.87 1507.83 c 0
 1348.77 1290.79 1480.67 1147.08 1612.83 1101.47 c 0
 1725.29 1062.67 1832.31 1046.01 1850.66 1064.46 c 0
 1869.01 1082.91 1815.2 1300.93 1731.09 1548.97 c 0
 1511.91 2195.26 1518.15 3394.4 1744.2 4070.1 c 0
 2017.44 4886.87 2427 5296.63 3066.47 5393.03 c 0
 3724.27 5492.2 4226.28 5105.08 4441.38 4332.78 c 2
 4537.96 3986.02 l 1
 4755.25 4385.64 l 2
 5211.97 5225.61 5625.62 5480.94 6316.34 5349.26 c 0
 7325.44 5156.88 7801.27 4200.13 7645.16 2677.45 c 0
 7615.44 2387.62 7524.46 1955.71 7442.97 1717.64 c 2
 7294.8 1284.79 l 1
 7487.86 1134.79 l 1
 7800.17 1134.79 8160.1 1561.65 8347.88 1946.32 c 0
 8502.71 2263.49 8523.92 2430.58 8548.1 3524.33 c 0
 8573.81 4687.05 8568.08 4747.62 8432.35 4747.62 c 0
 8220.83 4747.62 7634.1 5146.16 7437.98 5423.05 c 0
 7343.82 5555.97 7250.28 5812.02 7230.09 5992.06 c 0
 7195.65 6299.22 7208.97 6328.95 7446 6474.22 c 0
 8016.42 6823.82 8464.45 6557.83 8640.99 5764.75 c 0
 8691.8 5536.56 8771.42 5349.85 8817.94 5349.85 c 0
 8984.94 5349.85 9466.68 5641.29 9616.79 5833.13 c 0
 9794.68 6060.46 9907.67 6026.46 9907.67 5745.6 c 0
 9907.67 5507.55 9270.92 4854.05 8963.36 4776.45 c 2
 8763.22 4725.95 l 1
 8805.27 3867.54 l 2
 8856.33 2825.34 8757.54 1672.73 8586.01 1309.34 c 0
 8379.21 871.256 7949.39 670.855 7007.09 573.18 c 2
 6540.23 524.785 l 1
 6835.9 1075.84 l 2
8484.46 5443.95 m 0
 8483.37 5689.44 8317.5 6093.03 8154.39 6247.07 c 0
 7946.63 6443.28 7709.7 6409.77 7579.83 6165.81 c 0
 7404.1 5835.72 7599.06 5346.85 8122.9 5219.76 c 0
 8450.44 5140.3 8484.92 5340.98 8484.46 5443.95 c 0
EndSplineSet
Validated: 33
EndChar

StartChar: uni1B54
Encoding: 106 6996 106
Width: 4251
VWidth: 0
Flags: HW
LayerCount: 2
Fore
SplineSet
1169.54 978.624 m 0
 652.61 1116.14 240.857 1631.63 115.854 2297.8 c 0
 49.332 2652.32 251.982 2633.13 464.513 2264.8 c 0
 722.778 1817.2 984.952 1311.71 1772.05 1284.34 c 0
 2383.47 1263.07 2700.45 1523.35 2949.54 1676.68 c 0
 3298.63 1891.56 3103.79 2425.89 2784.06 2609.25 c 0
 2547.24 2745.05 1820.77 2856.55 1172.72 2856.55 c 0
 706.18 2856.55 704.783 2857.09 795.51 3002.63 c 0
 837.183 3069.47 983.19 3098.18 1281.56 3098.18 c 0
 2059.81 3098.18 2502.36 3336.37 2502.36 3755.25 c 0
 2502.36 3970.17 2164.72 4385.59 1778.58 4385.25 c 0
 1427.98 4384.94 891.012 3991.62 675.706 3767.26 c 0
 303.994 3379.93 218.388 3673.23 545.891 4212.04 c 0
 800.896 4631.57 1112.58 4789.54 1685.36 4789.54 c 0
 2185.95 4789.54 2837.92 4605.5 3000.73 4418.24 c 0
 3207.74 4180.14 3061.59 3672.08 2695.92 3358.66 c 0
 2466.74 3162.21 2404.68 3067.88 2492.73 3049.81 c 0
 2791.17 2988.58 3287.17 2649.6 3440.91 2401.79 c 0
 3666.71 2037.86 3593.68 1577.63 3276.99 1368.77 c 0
 2787.82 1046.15 1683.93 841.79 1169.54 978.624 c 0
EndSplineSet
Validated: 33
EndChar

StartChar: uni1B55
Encoding: 107 6997 107
Width: 6066
VWidth: 0
Flags: HW
LayerCount: 2
Fore
SplineSet
5225.82 -3548.66 m 0
 4793.75 -3188.79 4649.79 -2745 4603.34 -1629.87 c 0
 4570.4 -839.131 4605.04 -431.941 4798.89 669.441 c 0
 5239.79 3174.29 4943.64 4255.98 3681.75 4749.93 c 0
 3119.35 4970.08 2196.55 4991.22 1650.74 4796.45 c 0
 790.83 4489.61 358.868 3896.04 363.953 3028.25 c 0
 369.345 2106.97 839.857 1217.21 1564.95 965.256 c 0
 2124.71 770.755 2839.01 939.875 3129.93 1427.81 c 1
 3453.68 1692.6 3489.25 1944.14 3231.55 2146.56 c 0
 3039.28 2297.6 2940.91 2316.71 2355.66 2316.71 c 0
 1768.21 2316.71 1696.37 2330.8 1696.37 2445.98 c 0
 1696.37 2556.69 1779.63 2579.43 2276.09 2604.26 c 0
 2776.25 2629.28 2884.16 2659.15 3062.47 2821.99 c 0
 3332.01 3068.13 3448.13 3277.13 3138.73 3520.16 c 1
 2552.57 4173.51 2597.38 4167.72 1591.34 3263.87 c 1
 1354.7 3129.64 1309.6 3249.8 1471.59 3582.99 c 0
 1685.32 4022.61 2042.95 4238.52 2557.39 4238.52 c 0
 3243.21 4238.52 3618.65 3908.73 3618.65 3306.29 c 0
 3618.65 3028.5 3577.56 2954.53 3315.44 2760.34 c 2
 3012.24 2535.71 l 1
 3218.08 2429.76 l 2
 3497.42 2285.99 3793.47 1783.72 3793.07 1454.25 c 0
 3792.35 858.85 3121.1 435.599 2176.94 435.193 c 0
 1355.75 434.844 802.049 740.473 407.274 1411.99 c 0
 -467.729 2900.4 314.429 4932.88 1905.01 5303.92 c 0
 2651 5477.95 3422.73 5392.14 4086.77 5061.34 c 0
 5194.58 4509.46 5484.39 3277.16 5109.03 714.35 c 0
 4790.56 -1460.11 4874.37 -2618.62 5410.26 -3449.33 c 0
 5531.8 -3637.75 5605.73 -3791.9 5574.56 -3791.9 c 0
 5543.38 -3791.9 5386.45 -3682.44 5225.82 -3548.66 c 0
EndSplineSet
Validated: 33
EndChar

StartChar: uni1B57
Encoding: 109 6999 109
Width: 9762
VWidth: 0
Flags: HW
LayerCount: 2
Fore
SplineSet
1796.53 378.188 m 0
 1531.77 505.755 1397.13 638.381 1246.27 920.186 c 0
 1058.22 1271.47 1044.94 1373.37 1019.29 2662.17 c 0
 989.351 4166.87 1022.67 5453.51 526.262 4289.73 c 1
 300.487 3474.97 298.164 3840.35 296.741 3261.96 c 0
 295.958 2945.39 268.287 2832.73 196.859 2855.29 c 0
 -38.9854 2929.81 -85.4521 4008.72 128.159 4450.51 c 0
 307.182 4820.77 509.925 4997.9 822.689 5057.31 c 0
 1022.31 5095.23 1092.77 5066.95 1241.31 4889.3 c 0
 1406.06 4692.28 1415.99 4626.2 1369.23 4037.65 c 0
 1221.1 2173.06 1219.02 1644.57 1358.44 1297.87 c 0
 1505.52 932.076 1482.1 1234.75 1804.99 784.75 c 1
 2177.41 609.75 l 1
 2027.91 1108.41 l 1
 1945.69 1313.93 1839.23 1721.91 1791.35 2015.04 c 0
 1635.08 2971.6 1955.85 4100.62 2551.71 4691.22 c 2
 2893.89 5030.39 l 1
 3479.29 5002.32 l 2
 3972.07 4978.69 4110.45 4941.1 4353.83 4764.8 c 0
 4779.46 4456.47 4870.91 4221.98 5032.79 3023.95 c 0
 5196.01 1815.95 5317.04 1227.85 5752.03 1011.83 c 0
 5964.32 906.412 6052.97 757.631 6490.17 781.187 c 0
 7532.18 837.328 7981.91 1646.47 8029.86 2787.57 c 0
 8045.21 3152.82 8034.35 3629.7 8005.72 3847.3 c 2
 7953.68 4242.92 l 1
 7552.81 4288.01 l 2
 6748.86 4378.44 6302.62 4787.43 6302.62 5433.84 c 0
 6302.62 5894.21 6535.28 6139.49 6972 6139.49 c 0
 7258.92 6139.49 7349.92 6100.25 7539.29 5894.84 c 0
 7663.34 5760.29 7832.48 5506.94 7915.16 5331.85 c 0
 7997.83 5156.76 8116.83 5013.5 8179.59 5013.5 c 0
 8309.58 5013.5 8515.38 4999 8832.37 5275.42 c 0
 9011.21 5431.39 9230.25 5693.47 9269.15 5597.18 c 0
 9377.62 5328.73 8860.69 4579.78 8457.45 4421.15 c 2
 8237.91 4334.79 l 1
 8238.49 3116.53 l 2
 8239.14 1748.96 8149.03 1359.28 7717.05 861.56 c 0
 7225.49 295.18 6313.17 65.0059 5655.33 341.375 c 0
 5139.28 558.174 5000.13 885.986 4884.07 2158.39 c 0
 4781.54 3282.44 4628.48 4135.34 4197.63 4377.05 c 0
 3830.19 4583.19 3346.87 4591.67 2967.98 4369.27 c 0
 2602.06 4154.5 2222.01 3367.69 2111.32 2714.65 c 0
 1978.24 1929.56 2115.91 1354.01 2617.16 599.895 c 0
 2787.02 344.333 2799.21 291.051 2696.39 253.578 c 0
 2459.96 167.41 2142.81 211.332 1796.53 378.188 c 0
7804.35 5059.58 m 0
 7804.35 5281.87 7467.04 5754.27 7246.31 5841.11 c 0
 6983.74 5944.4 6735.61 5845.38 6655.37 5605.29 c 0
 6587.52 5402.25 6802.09 4965.6 7218.75 4824.59 c 0
 7630.78 4685.15 7804.35 4913.11 7804.35 5059.58 c 0
EndSplineSet
Validated: 33
EndChar

StartChar: uni1B58
Encoding: 110 7000 110
Width: 6264
VWidth: 0
Flags: HW
LayerCount: 2
Fore
SplineSet
2368.52 -60.8799 m 0
 1952.6 21.0479 1717.18 133.355 1417.33 392.877 c 0
 919.115 824.072 803.711 1244.15 937.068 2141.06 c 0
 983.897 2456.03 1026.79 3064.07 1001.81 3125.6 c 0
 947.952 3258.29 694.919 3198.69 491.365 3081.67 c 0
 368.634 3011.1 327.977 2714.46 342.664 2290.63 c 0
 355.947 1907.47 338.284 1805.38 258.721 1805.38 c 0
 88.9141 1805.38 -30.0371 2523.02 74.5088 2916.78 c 0
 217.06 3453.71 704.348 3711.79 1132.66 3477.21 c 0
 1349.75 3358.32 1387.72 3110.53 1265.42 2610.8 c 0
 1139.56 2096.46 1127.36 1593.83 1235.33 1370.39 c 0
 1356.57 1119.47 1682.84 660.697 2067.99 560.667 c 0
 2468.93 456.54 3466.82 440.51 3854.42 531.977 c 0
 4439.17 669.969 4877.19 1331.68 4965.5 1792.16 c 0
 5032.53 2141.66 4960.57 2925.74 4840.57 3153.42 c 0
 4745.63 3333.55 4724.19 3341.7 4307.32 3356 c 0
 3521.92 3382.93 2985.48 3712.33 2913.47 4211.9 c 0
 2883.41 4420.45 2906.01 4478.95 3064.6 4602.95 c 0
 3211.45 4717.78 3322.53 4748.77 3587.36 4748.77 c 0
 3871.21 4748.77 3959.6 4720.08 4154.18 4564.8 c 0
 4280.97 4463.62 4452.32 4306.52 4534.96 4215.67 c 2
 4685.21 4050.5 l 1
 4931.67 4169.6 l 2
 5199.33 4298.95 5463.31 4549.12 5575.41 4779.65 c 0
 5679.49 4993.71 5791.55 4894.42 5789.72 4589.76 c 0
 5787.66 4244.72 5467.74 4117.3 5123.85 3881.21 c 1
 4798.22 3641.98 l 1
 5094.65 3190.77 l 1
 5299.5 2682.64 5379.63 1967.93 5290.2 1446.75 c 0
 5153.88 652.387 4783.47 223.621 4061.44 24.4326 c 0
 3669.73 -83.6348 2725.58 -131.211 2368.52 -60.8799 c 0
4311.77 4119.38 m 1
 4187.89 4306.71 3799.52 4578.96 3656.17 4578.96 c 0
 3370.76 4578.96 3146.9 4383.37 3232.55 4208.84 c 0
 3299.63 4072.14 3472.89 3761.1 3873.91 3758.53 c 1
 4269.62 3881.32 l 1
 4311.77 4119.38 l 1
EndSplineSet
Validated: 33
EndChar

